<?xml version="1.0" encoding="utf-8"?>
<!-- Generator: Adobe Illustrator 17.0.0, SVG Export Plug-In . SVG Version: 6.00 Build 0)  -->
<!DOCTYPE svg PUBLIC "-//W3C//DTD SVG 1.1//EN" "http://www.w3.org/Graphics/SVG/1.1/DTD/svg11.dtd">
<svg version="1.1" id="Layer_1" xmlns="http://www.w3.org/2000/svg" xmlns:xlink="http://www.w3.org/1999/xlink" x="0px" y="0px"
	 width="62.899px" height="83.029px" viewBox="0 0 62.899 83.029" enable-background="new 0 0 62.899 83.029" xml:space="preserve">
<g>
	<g>
		<polygon fill="#FEEAAD" points="36.865,26.767 27.891,22.716 25.953,14.212 19.541,20.128 9.85,18.389 8.986,24.027 
			12.796,29.885 10.809,33.528 9.947,39.165 19.455,38.013 26.642,44.344 27.507,38.706 27.804,35.801 36.001,32.407 		"/>
		<path fill="#4A484A" d="M25.777,14.021c0,0-6.134,5.659-6.317,5.829c-0.246-0.044-9.826-1.765-9.826-1.765l-0.919,6.001
			c0,0,3.617,5.562,3.78,5.81c-0.139,0.252-1.936,3.546-1.936,3.546l-0.922,6.022c0,0,9.508-1.153,9.734-1.18
			c0.169,0.15,7.455,6.568,7.455,6.568l0.934-6.107c0,0,0.257-2.486,0.283-2.763c0.278-0.115,8.191-3.393,8.191-3.393l0.915-5.977
			c0,0-8.808-3.976-9.036-4.079c-0.057-0.243-2.008-8.816-2.008-8.816L25.777,14.021z M19.719,20.319c0,0,5.487-5.065,6.08-5.613
			c0.181,0.786,1.868,8.194,1.868,8.194s8.566,3.869,8.911,4.023c-0.053,0.353-0.771,5.035-0.812,5.299
			c-0.259,0.109-8.203,3.398-8.203,3.398l-0.315,3.06c0,0-0.669,4.369-0.79,5.155c-0.643-0.565-6.918-6.093-6.918-6.093
			s-8.655,1.048-9.285,1.125c0.092-0.594,0.792-5.171,0.804-5.257c0.044-0.079,2.039-3.737,2.039-3.737s-3.734-5.744-3.839-5.904
			c0.027-0.181,0.737-4.81,0.808-5.278c0.496,0.089,9.557,1.715,9.557,1.715L19.719,20.319z"/>
	</g>
	<g>
		<path fill="#4A484A" d="M10.891,21.092c-0.136-0.04-0.282,0.037-0.322,0.175l-1.058,3.566l0.37,0.57l1.184-3.99
			C11.106,21.277,11.028,21.134,10.891,21.092z"/>
		<path fill="#4A484A" d="M12.645,23.106c-0.143-0.021-0.274,0.077-0.296,0.218l-0.729,4.755l0.424,0.653l0.818-5.329
			C12.884,23.261,12.786,23.128,12.645,23.106z"/>
		<path fill="#4A484A" d="M11.233,23.766c-0.142-0.023-0.274,0.076-0.297,0.216l-0.377,2.465l0.425,0.652l0.466-3.038
			C11.473,23.919,11.372,23.786,11.233,23.766z"/>
		<path fill="#4A484A" d="M12.817,33.975c-0.142-0.021-0.275,0.077-0.297,0.219l-0.726,4.749l0.535-0.065l0.703-4.606
			C13.057,34.13,12.958,33.995,12.817,33.975z"/>
		<path fill="#4A484A" d="M15.236,34.695c-0.142-0.018-0.273,0.084-0.29,0.225l-0.476,3.698l0.532-0.065l0.46-3.565
			C15.479,34.844,15.377,34.713,15.236,34.695z"/>
		<path fill="#4A484A" d="M17.982,33.892c-0.14-0.018-0.271,0.081-0.291,0.224l-0.551,4.178l0.533-0.064l0.533-4.045
			C18.225,34.041,18.126,33.911,17.982,33.892z"/>
		<path fill="#4A484A" d="M20.425,32.779c-0.144-0.015-0.271,0.084-0.289,0.227l-0.621,5.062l0.474,0.414l0.662-5.413
			C20.669,32.925,20.565,32.796,20.425,32.779z"/>
		<path fill="#4A484A" d="M23.308,35.669c-0.145-0.018-0.272,0.081-0.293,0.223l-0.618,4.715l0.47,0.413l0.663-5.059
			C23.549,35.817,23.449,35.687,23.308,35.669z"/>
		<path fill="#4A484A" d="M25.598,37.857c-0.141-0.021-0.272,0.077-0.292,0.218l-0.646,4.524l0.467,0.41l0.693-4.86
			C25.839,38.008,25.74,37.876,25.598,37.857z"/>
		<path fill="#4A484A" d="M31.43,30.705c-0.141-0.027-0.277,0.063-0.307,0.204l-0.769,3.836l0.577-0.239l0.7-3.497
			C31.66,30.868,31.569,30.733,31.43,30.705z"/>
		<path fill="#4A484A" d="M33.524,29.452c-0.141-0.018-0.271,0.083-0.286,0.226l-0.497,4.08l0.547-0.228l0.462-3.79
			C33.768,29.597,33.668,29.47,33.524,29.452z"/>
		<path fill="#4A484A" d="M35.13,28.21c-0.141-0.025-0.274,0.068-0.302,0.209l-0.894,4.843l0.572-0.235l0.833-4.514
			C35.364,28.372,35.271,28.237,35.13,28.21z"/>
	</g>
	<g>
		<polygon fill="#FFE183" points="27.507,38.706 20.317,32.374 10.809,33.528 14.862,26.097 9.85,18.389 19.541,20.128 
			25.953,14.212 27.891,22.716 36.865,26.767 28.37,30.286 		"/>
		<path fill="#4A484A" d="M25.777,14.021c0,0-6.134,5.659-6.317,5.829c-0.246-0.044-10.154-1.822-10.154-1.822
			s5.091,7.828,5.254,8.079c-0.143,0.263-4.22,7.74-4.22,7.74s9.668-1.173,9.895-1.202c0.17,0.15,7.476,6.588,7.476,6.588
			s0.872-8.468,0.901-8.765c0.275-0.113,8.905-3.688,8.905-3.688s-9.174-4.143-9.402-4.246c-0.057-0.243-2.008-8.816-2.008-8.816
			L25.777,14.021z M19.719,20.319c0,0,5.487-5.065,6.08-5.613c0.181,0.786,1.868,8.194,1.868,8.194s7.582,3.424,8.544,3.858
			c-0.968,0.401-8.084,3.349-8.084,3.349s-0.737,7.187-0.827,8.072c-0.68-0.599-6.897-6.076-6.897-6.076s-8.227,0.997-9.123,1.106
			c0.426-0.781,3.884-7.124,3.884-7.124s-4.199-6.458-4.767-7.337c1.038,0.188,9.226,1.657,9.226,1.657L19.719,20.319z"/>
	</g>
</g>
</svg>
