<?xml version="1.0" encoding="utf-8"?>
<!-- Generator: Adobe Illustrator 17.0.0, SVG Export Plug-In . SVG Version: 6.00 Build 0)  -->
<!DOCTYPE svg PUBLIC "-//W3C//DTD SVG 1.1//EN" "http://www.w3.org/Graphics/SVG/1.1/DTD/svg11.dtd">
<svg version="1.1" id="Layer_1" xmlns="http://www.w3.org/2000/svg" xmlns:xlink="http://www.w3.org/1999/xlink" x="0px" y="0px"
	 width="99.912px" height="88.436px" viewBox="0 0 99.912 88.436" enable-background="new 0 0 99.912 88.436" xml:space="preserve">
<g>
	<g>
		<path fill="#ADD36A" d="M24.275,62.005c0,0-9.243,9.529-9.243,19.493c0,0,3.035,2.599,7.509,1.299c0,0,1.3-14.728,6.065-17.759
			L24.275,62.005z"/>
		<path fill="#4A484A" d="M23.963,61.704c-0.382,0.394-9.363,9.77-9.363,19.794c0,0.126,0.056,0.247,0.151,0.329
			c0.131,0.112,3.265,2.736,7.911,1.386c0.173-0.05,0.297-0.2,0.312-0.378c0.014-0.145,1.334-14.549,5.865-17.432
			c0.124-0.078,0.197-0.212,0.202-0.356c0.003-0.145-0.066-0.281-0.185-0.364l-4.331-3.032
			C24.349,61.527,24.112,61.551,23.963,61.704z M24.337,62.576c0.479,0.336,2.976,2.082,3.603,2.523
			c-4.268,3.496-5.621,15.532-5.795,17.322c-3.643,0.928-6.128-0.721-6.655-1.126C15.603,72.418,23.123,63.893,24.337,62.576z"/>
	</g>
	<g>
		<path fill="#ADD36A" d="M44.414,51.046c0,0-0.886-4.777-6.017-5.662c-5.133-0.886-13.981,6.194-16.104,15.218
			c-2.123,9.025,4.955,14.511,15.75,14.687c10.794,0.178,16.163-20.231-4.955-17.046c0,0-1.416,2.949-1.062,5.308
			c0,0,7.432,0.707,7.315,3.421c-0.119,2.714-5.898,1.062-7.078-2.359c-1.181-3.421,1.581-8.78,3.184-10.382
			C38.751,50.929,44.414,51.046,44.414,51.046z"/>
		<path fill="#4A484A" d="M21.871,60.503c-0.867,3.686-0.259,7.001,1.756,9.59c2.742,3.523,7.859,5.522,14.408,5.63
			c3.559,0.058,6.904-2.058,8.728-5.523c1.645-3.122,1.595-6.57-0.13-8.996c-1.545-2.173-5.095-4.454-12.926-3.444
			c0.639-1.377,1.401-2.575,2.047-3.221c3.13-3.13,8.595-3.06,8.651-3.059c0.131,0.003,0.255-0.053,0.339-0.153
			c0.084-0.099,0.12-0.231,0.096-0.358c-0.011-0.051-1.002-5.086-6.369-6.011C33.04,44.021,24.016,51.392,21.871,60.503z
			 M38.049,74.856c-6.28-0.103-11.16-1.983-13.738-5.295c-1.849-2.374-2.402-5.438-1.596-8.859
			c2.047-8.703,10.53-15.767,15.607-14.89c3.902,0.672,5.175,3.657,5.532,4.825c-1.401,0.041-5.806,0.383-8.712,3.289
			c-0.77,0.77-1.845,2.543-2.63,4.556c-0.12,0.285-0.274,0.69-0.435,1.197c-0.078,0.265-0.14,0.516-0.205,0.783
			c-0.182,0.715-0.336,1.489-0.336,2.285c0,0.294,0.02,0.585,0.062,0.869c0.008,0.048,0.074,0.048,0.093,0.089
			c0.051,0.352,0.05,0.723,0.163,1.05c0.888,2.575,4.14,4.279,6.238,3.975c1.027-0.15,1.64-0.783,1.682-1.738
			c0-0.028,0.002-0.056,0.002-0.084c0-2.698-5.664-3.551-7.301-3.743c-0.009-0.141-0.062-0.262-0.062-0.407
			c0-0.636,0.126-1.313,0.276-1.988c0.25-1.014,0.554-1.799,0.694-2.116c6.06-0.869,10.517,0.198,12.545,3.052
			c1.533,2.158,1.56,5.258,0.071,8.09C44.688,72.284,41.911,74.919,38.049,74.856z M44.423,50.613h-0.009H44.423z M32.673,64.472
			c-0.044-0.126-0.03-0.281-0.063-0.413c2.137,0.284,6.3,1.179,6.3,2.851c0,0.014,0,0.029-0.002,0.044
			c-0.009,0.194-0.033,0.785-0.94,0.916C36.424,68.096,33.454,66.738,32.673,64.472z"/>
	</g>
	<g>
		<path fill="#ADD36A" d="M57.193,33.936c0,0-0.886-4.777-6.018-5.662c-5.131-0.885-13.979,6.194-16.103,15.218
			c-2.124,9.025,4.955,14.511,15.75,14.687c10.794,0.178,16.161-20.231-4.955-17.045c0,0-1.416,2.95-1.063,5.308
			c0,0,7.434,0.707,7.315,3.421c-0.118,2.715-5.896,1.062-7.077-2.359c-1.182-3.42,1.581-8.78,3.184-10.382
			C51.528,33.818,57.193,33.936,57.193,33.936z"/>
		<path fill="#4A484A" d="M34.65,43.393c-0.867,3.686-0.26,7.001,1.755,9.59c2.744,3.523,7.86,5.522,14.41,5.63
			c3.559,0.058,6.904-2.058,8.728-5.522c1.645-3.123,1.595-6.571-0.13-8.997c-1.545-2.173-5.095-4.454-12.926-3.444
			c0.639-1.377,1.399-2.575,2.045-3.221c3.131-3.13,8.596-3.06,8.652-3.058c0.131,0.002,0.254-0.054,0.339-0.154
			c0.084-0.099,0.12-0.231,0.096-0.359c-0.01-0.051-1.001-5.086-6.369-6.011C45.817,26.911,36.795,34.282,34.65,43.393z
			 M50.828,57.746c-6.28-0.103-11.161-1.983-13.74-5.295c-1.849-2.374-2.401-5.438-1.595-8.859
			c2.047-8.703,10.529-15.767,15.607-14.89c3.902,0.672,5.175,3.657,5.532,4.826c-1.402,0.04-5.806,0.382-8.712,3.288
			c-0.77,0.77-1.845,2.543-2.63,4.556c-0.12,0.286-0.274,0.691-0.435,1.198c-0.08,0.264-0.14,0.515-0.205,0.782
			c-0.182,0.715-0.336,1.489-0.336,2.285c0,0.294,0.02,0.585,0.062,0.869c0.008,0.047,0.074,0.047,0.093,0.089
			c0.051,0.352,0.05,0.723,0.163,1.051c0.889,2.575,4.14,4.279,6.238,3.974c1.027-0.15,1.64-0.782,1.682-1.738
			c0-0.028,0.002-0.056,0.002-0.084c0-2.698-5.664-3.551-7.301-3.742c-0.01-0.142-0.062-0.263-0.062-0.408
			c0-0.636,0.126-1.313,0.276-1.988c0.25-1.014,0.554-1.799,0.693-2.116c6.062-0.869,10.518,0.198,12.547,3.053
			c1.533,2.158,1.56,5.258,0.069,8.09C57.467,55.174,54.69,57.81,50.828,57.746z M57.2,33.503h-0.008H57.2z M45.451,47.362
			c-0.045-0.126-0.032-0.281-0.063-0.413c2.137,0.285,6.3,1.179,6.3,2.851c0,0.014,0,0.029-0.002,0.044
			c-0.009,0.194-0.035,0.785-0.94,0.917C49.202,50.986,46.233,49.627,45.451,47.362z"/>
	</g>
	<g>
		<path fill="#ADD36A" d="M71.923,10.747c0,0-1.083-5.848-7.365-6.931c-6.28-1.083-17.11,7.581-19.708,18.627
			c-2.6,11.045,6.063,17.759,19.276,17.976c13.211,0.216,19.782-24.762-6.065-20.864c0,0-1.732,3.61-1.3,6.498
			c0,0,9.098,0.865,8.953,4.187c-0.146,3.322-7.219,1.3-8.664-2.888c-1.444-4.187,1.938-10.745,3.899-12.707
			C64.992,10.604,71.923,10.747,71.923,10.747z"/>
		<path fill="#4A484A" d="M44.429,22.344c-1.056,4.482-0.318,8.514,2.128,11.656c3.341,4.289,9.577,6.721,17.562,6.853
			c4.321,0.071,8.38-2.499,10.595-6.707c1.996-3.79,1.937-7.971-0.154-10.91c-1.887-2.657-6.234-5.454-15.905-4.161
			c0.803-1.768,1.78-3.3,2.601-4.122c3.861-3.861,10.591-3.773,10.658-3.772c0.131,0.003,0.255-0.053,0.339-0.153
			c0.084-0.099,0.121-0.231,0.096-0.358c-0.012-0.062-1.214-6.158-7.717-7.279C58.026,2.251,47.042,11.238,44.429,22.344z
			 M64.132,39.987c-7.717-0.127-13.715-2.442-16.892-6.519c-2.28-2.929-2.961-6.707-1.968-10.926
			C47.789,11.845,58.229,3.165,64.485,4.244c4.946,0.852,6.481,4.71,6.878,6.079c-1.724,0.052-7.199,0.496-10.719,4.017
			c-0.941,0.94-2.256,3.112-3.212,5.572c-0.142,0.342-0.322,0.822-0.509,1.401c-0.099,0.335-0.179,0.652-0.259,0.99
			c-0.22,0.867-0.404,1.8-0.404,2.761c0,0.355,0.021,0.708,0.074,1.052c0.009,0.056,0.083,0.06,0.111,0.105
			c0.062,0.427,0.059,0.875,0.197,1.271c1.042,3.023,5.011,5.165,7.529,4.799c1.206-0.175,1.928-0.916,1.976-2.035
			c0.001-0.032,0.001-0.066,0.001-0.099c0-3.268-7.053-4.279-8.922-4.491c-0.015-0.2-0.087-0.371-0.087-0.578
			c0-0.795,0.155-1.642,0.343-2.486c0.095-0.38,0.184-0.77,0.291-1.098c0.021-0.065,0.045-0.126,0.066-0.191
			c0.233-0.69,0.417-1.132,0.517-1.349c7.482-1.083,12.991,0.243,15.499,3.771c1.899,2.672,1.934,6.505,0.092,10.004
			C72.331,36.812,68.905,40.065,64.132,39.987z M71.932,10.314h-0.009C71.923,10.314,71.929,10.314,71.932,10.314z M57.461,27.212
			c-0.068-0.198-0.053-0.44-0.098-0.65c2.69,0.336,7.92,1.433,7.92,3.6c0,0.019,0,0.039-0.002,0.059
			c-0.03,0.701-0.435,1.098-1.233,1.215C62.126,31.715,58.432,30.027,57.461,27.212z"/>
	</g>
</g>
</svg>
