<?xml version="1.0" encoding="utf-8"?>
<!-- Generator: Adobe Illustrator 17.0.0, SVG Export Plug-In . SVG Version: 6.00 Build 0)  -->
<!DOCTYPE svg PUBLIC "-//W3C//DTD SVG 1.1//EN" "http://www.w3.org/Graphics/SVG/1.1/DTD/svg11.dtd">
<svg version="1.1" id="Layer_1" xmlns="http://www.w3.org/2000/svg" xmlns:xlink="http://www.w3.org/1999/xlink" x="0px" y="0px"
	 width="1714.414px" height="782.961px" viewBox="0 0 1714.414 782.961" enable-background="new 0 0 1714.414 782.961"
	 xml:space="preserve">
<g opacity="0.75">
	<g>
		<path opacity="0.8" fill="#FFFFFF" d="M490.156,760.409c0-1.477-0.727-2.777-1.834-3.588l33.82-58.578
			c0.918,0.513,1.974,0.808,3.1,0.808c3.516,0,6.367-2.85,6.367-6.366c0-2.322-1.247-4.348-3.105-5.46l40.364-69.912
			c0.437,0.196,0.918,0.31,1.427,0.31c1.934,0,3.502-1.568,3.502-3.502c0-1.166-0.576-2.192-1.453-2.828l32.131-55.652
			c0.914,0.437,1.933,0.689,3.013,0.689c3.868,0,7.003-3.135,7.003-7.003c0-2.395-1.205-4.508-3.039-5.771l11.287-19.549
			c0.223,0.076,0.458,0.126,0.706,0.126c1.217,0,2.204-0.987,2.204-2.204c0-0.661-0.297-1.247-0.757-1.651l9.367-16.224
			c0.835,0.403,1.768,0.635,2.758,0.635c3.516,0,6.366-2.85,6.366-6.367c0-3.516-2.85-6.366-6.366-6.366s-6.366,2.85-6.366,6.366
			c0,2.185,1.102,4.112,2.78,5.259l-9.376,16.239c-0.195-0.056-0.396-0.096-0.609-0.096c-1.217,0-2.204,0.987-2.204,2.204
			c0,0.625,0.262,1.186,0.679,1.587l-11.292,19.558c-0.946-0.476-2.01-0.75-3.141-0.75c-3.868,0-7.003,3.135-7.003,7.003
			c0,2.446,1.256,4.597,3.157,5.849l-32.141,55.67c-0.377-0.139-0.779-0.226-1.205-0.226c-1.934,0-3.501,1.568-3.501,3.501
			c0,1.081,0.5,2.035,1.269,2.677l-40.412,69.995c-0.744-0.305-1.556-0.475-2.409-0.475c-3.516,0-6.366,2.851-6.366,6.367
			c0,2.047,0.97,3.863,2.471,5.028l-33.848,58.626c-0.551-0.244-1.158-0.385-1.799-0.385c-2.461,0-4.456,1.995-4.456,4.456
			s1.995,4.456,4.456,4.456C488.161,764.865,490.156,762.87,490.156,760.409z"/>
		<path opacity="0.8" fill="#FFFFFF" d="M567.82,589.268c0-0.903-0.444-1.697-1.121-2.192l20.667-35.796
			c0.561,0.313,1.206,0.494,1.894,0.494c2.149,0,3.891-1.742,3.891-3.89c0-1.419-0.762-2.657-1.897-3.337l24.666-42.722
			c0.267,0.12,0.561,0.19,0.872,0.19c1.182,0,2.14-0.958,2.14-2.14c0-0.713-0.352-1.34-0.888-1.728l19.634-34.008
			c0.558,0.267,1.181,0.421,1.841,0.421c2.363,0,4.279-1.916,4.279-4.279c0-1.464-0.736-2.755-1.857-3.526l6.897-11.946
			c0.136,0.046,0.28,0.077,0.432,0.077c0.744,0,1.347-0.603,1.347-1.347c0-0.404-0.181-0.762-0.463-1.009l5.724-9.914
			c0.51,0.246,1.081,0.388,1.685,0.388c2.149,0,3.89-1.742,3.89-3.891s-1.742-3.89-3.89-3.89c-2.149,0-3.89,1.742-3.89,3.89
			c0,1.335,0.673,2.513,1.698,3.214l-5.729,9.924c-0.119-0.034-0.242-0.059-0.372-0.059c-0.744,0-1.347,0.603-1.347,1.347
			c0,0.382,0.16,0.724,0.415,0.969l-6.9,11.951c-0.578-0.291-1.228-0.458-1.919-0.458c-2.364,0-4.28,1.916-4.28,4.28
			c0,1.495,0.768,2.809,1.929,3.574l-19.641,34.019c-0.23-0.085-0.476-0.138-0.736-0.138c-1.182,0-2.14,0.958-2.14,2.14
			c0,0.66,0.306,1.244,0.776,1.636l-24.695,42.773c-0.454-0.186-0.951-0.29-1.472-0.29c-2.149,0-3.89,1.742-3.89,3.891
			c0,1.251,0.593,2.361,1.51,3.072l-20.684,35.825c-0.337-0.149-0.708-0.236-1.1-0.236c-1.504,0-2.723,1.219-2.723,2.723
			c0,1.504,1.219,2.723,2.723,2.723C566.6,591.991,567.82,590.772,567.82,589.268z"/>
		<path opacity="0.8" fill="#FFFFFF" d="M729.948,721.416c0-2.461-1.995-4.457-4.457-4.457c-0.641,0-1.248,0.141-1.799,0.385
			l-33.594-58.187c0.424-0.402,0.691-0.966,0.691-1.596c0-1.217-0.987-2.204-2.204-2.204c-0.218,0-0.424,0.041-0.623,0.1
			l-18.533-32.099c1.787-1.127,2.977-3.114,2.977-5.382c0-3.516-2.851-6.366-6.367-6.366c-1.073,0-2.082,0.268-2.968,0.736
			l-49.592-85.896c0.84-0.64,1.39-1.64,1.39-2.777c0-1.934-1.568-3.501-3.502-3.501c-0.481,0-0.939,0.098-1.356,0.273l-31.93-55.304
			c1.867-1.258,3.096-3.391,3.096-5.812c0-3.868-3.135-7.003-7.003-7.003c-3.868,0-7.003,3.135-7.003,7.003
			c0,3.868,3.135,7.003,7.003,7.003c1.105,0,2.147-0.263,3.077-0.719l31.946,55.332c-0.806,0.641-1.332,1.619-1.332,2.729
			c0,1.934,1.568,3.502,3.502,3.502c0.454,0,0.885-0.093,1.283-0.25l49.614,85.934c-1.569,1.159-2.592,3.017-2.592,5.118
			c0,3.516,2.851,6.366,6.367,6.366c0.907,0,1.767-0.192,2.548-0.534l18.539,32.111c-0.454,0.404-0.746,0.986-0.746,1.641
			c0,1.217,0.987,2.204,2.204,2.204c0.243,0,0.473-0.049,0.692-0.122l33.593,58.184c-1.107,0.811-1.834,2.11-1.834,3.588
			c0,2.461,1.995,4.456,4.456,4.456C727.953,725.872,729.948,723.877,729.948,721.416z"/>
	</g>
	<g>
		<circle opacity="0.5" fill="#FFFFFF" cx="1227.988" cy="15.909" r="3.755"/>
		<circle opacity="0.5" fill="#FFFFFF" cx="1319.341" cy="115.096" r="5.246"/>
		<circle opacity="0.5" fill="#FFFFFF" cx="1234.7" cy="286.125" r="3.976"/>
		<circle opacity="0.5" fill="#FFFFFF" cx="1184.805" cy="250.055" r="3.479"/>
		<circle opacity="0.5" fill="#FFFFFF" cx="1200.854" cy="159.511" r="3.313"/>
		<circle opacity="0.5" fill="#FFFFFF" cx="1109.315" cy="194.127" r="3.148"/>
		<circle opacity="0.5" fill="#FFFFFF" cx="1028.266" cy="134.724" r="3.976"/>
		<circle opacity="0.5" fill="#FFFFFF" cx="1005.632" cy="233.258" r="4.845"/>
		<path opacity="0.5" fill="#FFFFFF" d="M1220.746,15.079c-0.413,3.604,1.881,6.887,5.265,7.838l-24.065,129.395
			c-0.088-0.013-0.173-0.033-0.261-0.043c-4-0.459-7.614,2.412-8.072,6.412c-0.107,0.93-0.027,1.836,0.199,2.689l-78.14,29.202
			c-1.106-1.974-3.106-3.409-5.526-3.687c-2.498-0.286-4.846,0.726-6.369,2.502l-69.258-50.924c0.517-0.863,0.868-1.844,0.99-2.909
			c0.459-4-2.412-7.614-6.412-8.072c-4-0.459-7.614,2.412-8.072,6.412c-0.458,4,2.412,7.614,6.412,8.072
			c2.464,0.282,4.779-0.702,6.303-2.432l69.273,50.935c-0.49,0.843-0.821,1.797-0.939,2.828c-0.091,0.795-0.046,1.574,0.109,2.317
			l-90.377,33.775c-1.137-1.811-3.053-3.11-5.343-3.372c-4-0.459-7.614,2.412-8.072,6.412c-0.459,4,2.412,7.614,6.412,8.072
			c1.908,0.219,3.723-0.326,5.155-1.384l136.655,182.727c-1.275,1.148-2.157,2.742-2.368,4.58c-0.458,4,2.412,7.614,6.412,8.072
			c4,0.459,7.614-2.412,8.072-6.412c0.413-3.604-1.881-6.887-5.265-7.838l30.312-162.982c0.067,0.01,0.133,0.026,0.201,0.033
			c2.531,0.29,4.905-0.755,6.425-2.574l37.918,27.88c-0.447,0.809-0.749,1.715-0.861,2.691c-0.459,4,2.412,7.614,6.412,8.072
			c4,0.458,7.614-2.412,8.072-6.412c0.339-2.958-1.146-5.702-3.559-7.117l78.352-157.941c0.56,0.214,1.152,0.37,1.775,0.442
			c4,0.459,7.614-2.412,8.072-6.412c0.458-4-2.412-7.614-6.412-8.072c-4-0.458-7.614,2.412-8.072,6.412
			c-0.112,0.974-0.023,1.924,0.229,2.813l-104.937,39.217c-0.835-1.694-2.312-3.035-4.155-3.671l24.078-129.464
			c3.937,0.367,7.464-2.475,7.917-6.422c0.459-4-2.412-7.614-6.412-8.072C1224.819,8.208,1221.205,11.079,1220.746,15.079z
			 M1194.267,162.615c0.94,1.991,2.756,3.519,5.016,4.015l-14.163,76.151c-2.182-0.096-4.206,0.787-5.618,2.286l-64.017-47.07
			c0.562-0.894,0.944-1.919,1.072-3.038c0.127-1.108-0.009-2.183-0.346-3.173L1194.267,162.615z M1152.16,420.002
			c-1.63-0.152-3.188,0.246-4.488,1.046L1010.95,238.232c1.033-1.102,1.739-2.528,1.924-4.144c0.141-1.235-0.036-2.432-0.464-3.512
			l90.157-33.693c0.975,2.381,3.181,4.172,5.917,4.485c2.409,0.276,4.672-0.661,6.197-2.319l64.003,47.059
			c-0.589,0.912-0.989,1.964-1.121,3.116c-0.399,3.481,1.725,6.668,4.919,7.739L1152.16,420.002z M1312.806,118.315
			c0.609,1.232,1.558,2.275,2.74,2.997l-78.364,157.964c-0.524-0.189-1.074-0.328-1.651-0.394c-2.554-0.293-4.947,0.776-6.466,2.626
			l-37.908-27.873c0.465-0.824,0.776-1.751,0.89-2.75c0.427-3.727-2.037-7.116-5.611-7.932l14.164-76.163
			c3.765,0.135,7.059-2.643,7.495-6.449c0.112-0.973,0.023-1.922-0.228-2.81L1312.806,118.315z"/>
		<circle opacity="0.5" fill="#FFFFFF" cx="1151.486" cy="427.254" r="3.451"/>
	</g>
	<g opacity="0.5">
		<circle opacity="0.5" fill="#FFFFFF" cx="345.366" cy="531.85" r="7.772"/>
		<circle opacity="0.5" fill="#FFFFFF" cx="643.303" cy="379.314" r="7.772"/>
		<circle opacity="0.5" fill="#FFFFFF" cx="813.844" cy="375.051" r="7.772"/>
		<circle opacity="0.5" fill="#FFFFFF" cx="889.635" cy="297.161" r="7.772"/>
		<circle opacity="0.5" fill="#FFFFFF" cx="984.458" cy="168.033" r="7.772"/>
		<circle opacity="0.5" fill="#FFFFFF" cx="1305.766" cy="395.799" r="7.772"/>
		<circle opacity="0.5" fill="#FFFFFF" cx="489.851" cy="339.502" r="3.886"/>
		<circle opacity="0.5" fill="#FFFFFF" cx="457.834" cy="406.631" r="3.886"/>
		<circle opacity="0.5" fill="#FFFFFF" cx="434.759" cy="629.48" r="3.886"/>
		<circle opacity="0.5" fill="#FFFFFF" cx="580.55" cy="258.956" r="3.886"/>
		<circle opacity="0.5" fill="#FFFFFF" cx="714.563" cy="476.559" r="3.886"/>
		<circle opacity="0.5" fill="#FFFFFF" cx="888.357" cy="328.358" r="3.886"/>
		<circle opacity="0.5" fill="#FFFFFF" cx="955.809" cy="289.465" r="3.886"/>
		<circle opacity="0.5" fill="#FFFFFF" cx="1006.76" cy="331.989" r="3.886"/>
		<circle opacity="0.5" fill="#FFFFFF" cx="1169.348" cy="403.509" r="3.886"/>
		<circle opacity="0.5" fill="#FFFFFF" cx="1302.971" cy="255.756" r="3.886"/>
		<circle opacity="0.5" fill="#FFFFFF" cx="1232.553" cy="373.686" r="3.886"/>
		<circle opacity="0.5" fill="#FFFFFF" cx="756.267" cy="409.276" r="3.886"/>
		<circle opacity="0.5" fill="#FFFFFF" cx="672.811" cy="281.991" r="3.886"/>
		<circle opacity="0.5" fill="#FFFFFF" cx="201.003" cy="522.049" r="5.829"/>
		<circle opacity="0.5" fill="#FFFFFF" cx="563.593" cy="360.043" r="5.829"/>
		<circle opacity="0.5" fill="#FFFFFF" cx="696.18" cy="393.798" r="5.829"/>
		<circle opacity="0.5" fill="#FFFFFF" cx="881.058" cy="438.414" r="5.829"/>
		<circle opacity="0.5" fill="#FFFFFF" cx="1118.546" cy="338.708" r="5.829"/>
		<circle opacity="0.5" fill="#FFFFFF" cx="728.308" cy="440.408" r="5.829"/>
		<circle opacity="0.5" fill="#FFFFFF" cx="544.791" cy="626.303" r="5.829"/>
		<circle opacity="0.5" fill="#FFFFFF" cx="251.011" cy="428.755" r="1.943"/>
		<circle opacity="0.5" fill="#FFFFFF" cx="702.97" cy="422.189" r="1.943"/>
		<circle opacity="0.5" fill="#FFFFFF" cx="926.184" cy="308.792" r="1.943"/>
		<circle opacity="0.5" fill="#FFFFFF" cx="892.244" cy="274.478" r="1.943"/>
		<circle opacity="0.5" fill="#FFFFFF" cx="1221.134" cy="392.62" r="1.943"/>
		<circle opacity="0.5" fill="#FFFFFF" cx="1262.173" cy="382.863" r="3.486"/>
		<circle opacity="0.5" fill="#FFFFFF" cx="1159.969" cy="492.075" r="3.486"/>
		<circle opacity="0.5" fill="#FFFFFF" cx="1399.593" cy="351.991" r="3.486"/>
		<path opacity="0.5" fill="#FFFFFF" d="M1404.097,355.02c1.673-2.488,1.012-5.861-1.475-7.533c-2.488-1.673-5.86-1.012-7.533,1.475
			c-0.749,1.113-1.006,2.401-0.865,3.637l-126.903,28.616c-0.359-1.124-1.063-2.147-2.118-2.857
			c-2.488-1.673-5.86-1.012-7.533,1.475c-0.131,0.195-0.223,0.403-0.325,0.607l-19.056-5.762c0.36-2.087-0.448-4.265-2.22-5.613
			c28.239-47.183,55.846-93.709,64.371-108.088c2.572,1.249,5.729,0.471,7.37-1.97c1.796-2.672,1.087-6.293-1.584-8.09
			c-2.672-1.796-6.293-1.087-8.089,1.584c-1.69,2.513-1.139,5.847,1.152,7.731c-18.058,30.476-41.693,70.22-64.386,108.13
			c-2.536-1.122-5.584-0.312-7.185,2.069c-0.195,0.29-0.347,0.594-0.483,0.903l-101.191-30.598c0.846-3.125-0.324-6.573-3.16-8.48
			c-2.667-1.793-6.045-1.713-8.579-0.064L990.656,175.51c0.699-0.58,1.332-1.263,1.864-2.056c2.994-4.452,1.812-10.489-2.641-13.483
			c-4.453-2.994-10.489-1.812-13.483,2.641c-2.608,3.878-2.045,8.956,1.085,12.18l-83.234,96.373
			c-1.763-1.066-4.066-0.584-5.228,1.145c-1.198,1.781-0.725,4.195,1.056,5.393c0.371,0.249,0.772,0.41,1.181,0.517l-0.631,9.278
			c-3.453-0.351-6.981,1.161-9.053,4.242c-2.065,3.072-2.142,6.896-0.529,9.957L819.15,366.92
			c-4.441-2.899-10.399-1.704-13.367,2.71c-1.936,2.879-2.116,6.416-0.805,9.368l-44.335,26.462
			c-0.328-0.376-0.69-0.729-1.124-1.021c-2.672-1.796-6.293-1.087-8.09,1.584c-0.22,0.327-0.4,0.669-0.546,1.02l-47.029-12.065
			c0.441-2.883-0.757-5.895-3.338-7.63c-1.468-0.987-3.15-1.398-4.789-1.301l-21.496-98.426c1.346-0.339,2.581-1.136,3.416-2.378
			c1.796-2.671,1.087-6.293-1.584-8.09c-2.671-1.796-6.293-1.087-8.089,1.584c-0.091,0.135-0.147,0.281-0.225,0.42l-81.401-19.883
			c0.107-1.982-0.779-3.969-2.546-5.157c-2.671-1.796-6.293-1.087-8.089,1.584c-1.771,2.634-1.097,6.185,1.483,8.006l-51.114,85.663
			l-30.767-7.893c0.889-2.457,0.054-5.29-2.212-6.814c-2.671-1.796-6.293-1.087-8.09,1.584c-1.796,2.671-1.087,6.292,1.583,8.088
			l-26.876,56.801c-2.436-0.837-5.218,0-6.724,2.239c-1.796,2.671-1.087,6.293,1.584,8.09c0.065,0.044,0.136,0.067,0.202,0.108
			l-19.972,42.21c-2.794-0.961-5.86-0.586-8.321,0.96L320.638,335.01c0.524-0.387,1.005-0.849,1.389-1.42
			c1.796-2.671,1.087-6.293-1.584-8.09c-2.672-1.796-6.293-1.087-8.09,1.584c-1.796,2.671-1.087,6.293,1.584,8.09
			c1.685,1.133,3.748,1.265,5.493,0.54l105.95,119.848c-0.666,0.565-1.271,1.223-1.783,1.983
			c-2.994,4.452-1.812,10.489,2.641,13.483c0.105,0.071,0.215,0.128,0.322,0.194l-29.768,62.915l-41.732-2.723
			c-0.136-2.969-1.618-5.838-4.273-7.624c-3.446-2.317-7.836-2.123-11.034,0.143c-37.962-41.734-75.082-82.417-85.375-93.274
			c0.989-1.749,0.497-3.987-1.198-5.127c-1.781-1.198-4.195-0.725-5.393,1.056c-1.198,1.781-0.725,4.195,1.056,5.393
			c1.475,0.991,3.373,0.823,4.666-0.27c9.905,10.47,45.532,49.5,85.182,93.09c-0.509,0.483-0.978,1.023-1.386,1.63
			c-0.781,1.162-1.271,2.432-1.5,3.728l-127.038-8.288c-0.059-2.435-1.252-4.806-3.427-6.269c-3.562-2.395-8.391-1.449-10.786,2.112
			c-2.395,3.562-1.449,8.391,2.113,10.786c3.562,2.395,8.391,1.449,10.786-2.113c0.659-0.979,1.056-2.055,1.224-3.15l126.99,8.285
			c-0.106,3.235,1.395,6.451,4.279,8.391c3.733,2.51,8.572,2.075,11.805-0.751c27.784,30.564,56.35,62.044,78.583,86.571
			c-0.139,0.164-0.289,0.314-0.411,0.496c-1.796,2.671-1.087,6.293,1.584,8.089c2.672,1.796,6.293,1.087,8.09-1.584
			c0.601-0.893,0.897-1.893,0.958-2.894l96.559-2.39c0.311,2.084,1.455,4.036,3.341,5.305c3.562,2.395,8.391,1.449,10.786-2.113
			c2.395-3.562,1.449-8.391-2.113-10.786c-0.648-0.436-1.339-0.758-2.048-0.977l17.426-251.122c2.171-0.258,4.221-1.419,5.537-3.375
			c0.439-0.652,0.763-1.348,0.982-2.063l62.607,16.062c-0.329,3.435,1.186,6.936,4.25,8.996c3.94,2.65,9.117,2.023,12.332-1.241
			l49.191,34.523c-0.725,1.684-0.18,3.696,1.397,4.757c0.695,0.467,1.485,0.672,2.263,0.653l9.815,44.939
			c-1.241,0.376-2.373,1.14-3.153,2.3c-1.796,2.671-1.087,6.293,1.584,8.09c2.672,1.796,6.293,1.087,8.089-1.584
			c1.258-1.871,1.263-4.198,0.25-6.047l29.045-30.608c0.008,0.006,0.015,0.013,0.023,0.019c1.781,1.198,4.195,0.725,5.393-1.056
			c0.296-0.44,0.488-0.92,0.586-1.41l118.715-0.93c0.358,2,1.49,3.86,3.309,5.083c3.562,2.395,8.391,1.449,10.786-2.113
			c2.395-3.562,1.449-8.391-2.113-10.786c-0.974-0.655-2.045-1.052-3.133-1.222l6.567-96.601c1.705-0.14,3.336-1.001,4.365-2.531
			c0.865-1.286,1.136-2.79,0.9-4.207l28.547-17.039c0.286,0.648,0.744,1.228,1.375,1.653c1.781,1.197,4.195,0.725,5.393-1.056
			c0.249-0.371,0.409-0.772,0.517-1.18l71.091,21.303c-0.34,2.169,0.549,4.437,2.49,5.743c1.955,1.315,4.414,1.275,6.299,0.118
			c35.501,37.623,125.157,132.412,145.865,151.853c-0.066,0.087-0.145,0.158-0.207,0.249c-1.673,2.488-1.012,5.861,1.476,7.533
			c2.488,1.673,5.86,1.012,7.533-1.476c1.551-2.306,1.075-5.355-0.981-7.123c5.315-7.84,19.112-29.866,56.278-91.733
			c1.648,0.621,3.564,0.064,4.589-1.46c0.539-0.802,0.723-1.73,0.618-2.62l32.171-7.254c0.393,0.965,1.067,1.828,1.996,2.453
			c2.488,1.673,5.861,1.012,7.533-1.475c0.222-0.331,0.397-0.678,0.538-1.033l29.083,8.794c-0.86,3.799,0.62,7.904,4.046,10.208
			c4.452,2.994,10.489,1.812,13.483-2.641c2.994-4.452,1.812-10.489-2.641-13.483s-10.489-1.812-13.483,2.641
			c-0.421,0.626-0.751,1.286-1.009,1.962l-29.157-8.816c0.039-0.321,0.053-0.641,0.035-0.961l126.96-28.629
			c0.386,1.008,1.067,1.914,2.031,2.562C1399.052,358.168,1402.424,357.507,1404.097,355.02z M930.03,308.381
			c-0.076-0.707-0.343-1.382-0.788-1.957l22.135-13.212c0.341,0.403,0.72,0.781,1.18,1.09c2.672,1.796,6.293,1.087,8.09-1.584
			c0.104-0.155,0.17-0.321,0.257-0.481l149.959,45.345c-0.418,2.866,0.781,5.852,3.345,7.576c2.679,1.801,6.074,1.712,8.612,0.042
			l42.62,54.008c-0.341,0.31-0.66,0.65-0.929,1.05c-1.796,2.672-1.087,6.293,1.584,8.09c2.671,1.796,6.293,1.087,8.089-1.584
			c0.694-1.032,1.005-2.206,0.982-3.362l42.3-9.538c0.216,0.639,0.599,1.218,1.135,1.682c-26.004,43.278-48.4,80.088-56.196,91.712
			c-1.94-0.983-4.239-0.699-5.876,0.651c-18.094-17.199-98.392-101.747-145.642-151.812c0.256-0.259,0.497-0.539,0.707-0.853
			c1.796-2.672,1.087-6.293-1.584-8.09c-2.672-1.796-6.293-1.087-8.09,1.585c-0.221,0.328-0.402,0.671-0.548,1.023L930.03,308.381z
			 M922.515,307.559c-0.154,0.459-0.223,0.932-0.202,1.404l-28.618,17.082c-0.428-0.99-1.124-1.877-2.086-2.523
			c-0.626-0.421-1.306-0.692-2.001-0.845l1.078-15.862c2.746-0.301,5.347-1.76,7.009-4.232c0.458-0.681,0.806-1.4,1.072-2.138
			L922.515,307.559z M754.714,439.339c-0.1-0.626-0.357-1.219-0.75-1.735l52.924-55.772c0.458,0.469,0.97,0.899,1.535,1.28
			c4.452,2.994,10.489,1.812,13.483-2.641c2.123-3.158,2.137-7.108,0.382-10.209l62.518-37.316c0.103,0.08,0.189,0.174,0.299,0.248
			c0.732,0.492,1.536,0.779,2.353,0.906l-6.564,96.547c-2.441,0.054-4.819,1.248-6.286,3.428c-0.896,1.332-1.323,2.841-1.323,4.333
			L754.714,439.339z M718.843,472.623c-0.304-0.331-0.638-0.639-1.027-0.901c-1.1-0.74-2.358-1.032-3.586-0.96l-9.82-44.965
			c0.443-0.176,0.853-0.44,1.212-0.776l16.092,11.294c-2.197,3.536-1.224,8.201,2.259,10.543c3.562,2.395,8.391,1.449,10.786-2.113
			c0.807-1.2,1.226-2.543,1.302-3.889l11.035-0.086c0.11,0.507,0.324,0.988,0.629,1.42L718.843,472.623z M651.103,385.084
			c0.086-0.117,0.179-0.227,0.261-0.349c0.343-0.51,0.624-1.042,0.859-1.587l36.305,9.314c-0.51,2.929,0.688,6.019,3.315,7.785
			c1.784,1.199,3.885,1.561,5.839,1.176l3.757,17.201c-0.474,0.203-0.906,0.504-1.275,0.892L651.103,385.084z M571.304,360.973
			c0.336-2.805-0.868-5.695-3.374-7.38c-0.745-0.501-1.546-0.847-2.368-1.062l1.708-24.609l67.274,47.214
			c-0.293,0.613-0.517,1.245-0.673,1.888L571.304,360.973z M427.775,471.862c3.533,1.547,7.65,0.836,10.462-1.758l5.536,6.262
			c-0.216,0.229-0.427,0.464-0.609,0.734c-1.796,2.672-1.087,6.293,1.584,8.09c2.672,1.796,6.293,1.087,8.09-1.584
			c1.605-2.387,1.198-5.523-0.81-7.448l74.706-125.202l29.252,7.505c-0.624,3.002,0.569,6.217,3.27,8.033
			c1.195,0.804,2.533,1.223,3.873,1.302l-17.404,250.8c-2.807-0.338-5.698,0.866-7.383,3.373c-0.851,1.266-1.273,2.692-1.312,4.112
			l-96.539,2.39c-0.266-1.505-1.11-2.905-2.478-3.826c-2.092-1.407-4.756-1.258-6.681,0.148
			c-11.044-12.182-43.931-48.448-78.613-86.6c0.25-0.291,0.49-0.594,0.709-0.92c0.933-1.388,1.46-2.93,1.609-4.486l42.596,2.779
			l0.2-0.421L427.775,471.862z M525.35,350.6l-74.429,124.737c-1.947-1.134-4.309-1.04-6.11,0.135l-5.628-6.367
			c0.187-0.23,0.369-0.467,0.538-0.719c2.994-4.452,1.812-10.489-2.641-13.483c-0.326-0.22-0.663-0.41-1.005-0.585l19.954-42.172
			c2.416,0.79,5.153-0.05,6.642-2.264c1.796-2.671,1.087-6.293-1.584-8.09c-0.041-0.027-0.086-0.042-0.127-0.068l26.863-56.775
			c2.468,0.92,5.331,0.085,6.865-2.197c0.004-0.006,0.006-0.013,0.01-0.019L525.35,350.6z M667.219,280.44
			c-0.652,2.352,0.203,4.951,2.34,6.388c1.017,0.684,2.172,1,3.312,0.987l21.498,98.434c-1.828,0.438-3.506,1.529-4.637,3.212
			c-0.359,0.534-0.634,1.098-0.845,1.677l-36.211-9.29c1.056-3.905-0.407-8.213-3.951-10.596
			c-4.452-2.994-10.489-1.812-13.483,2.641c-0.009,0.014-0.016,0.028-0.025,0.042l-69.146-48.529l-0.083,1.211l-1.782,25.682
			c-2.703-0.211-5.439,0.996-7.06,3.407c-0.31,0.461-0.562,0.944-0.761,1.439l-28.916-7.418l50.932-85.359
			c2.495,0.994,5.429,0.159,6.988-2.16c0.335-0.498,0.555-1.034,0.719-1.581L667.219,280.44z M805.62,380.212
			c0.12,0.192,0.251,0.377,0.385,0.561l-53.047,55.901c-1.771-1.118-4.119-0.641-5.295,1.109c-0.338,0.502-0.529,1.055-0.609,1.617
			l-11.034,0.086c-0.26-2.167-1.421-4.213-3.374-5.527c-3.255-2.189-7.563-1.58-10.11,1.258l-16.104-11.302
			c0.859-1.721,0.346-3.848-1.293-4.95c-0.724-0.487-1.552-0.684-2.362-0.643l-3.775-17.286c1.428-0.555,2.708-1.533,3.628-2.901
			c0.39-0.579,0.682-1.194,0.898-1.825l46.997,12.057c-0.342,2.17,0.547,4.44,2.49,5.747c2.672,1.796,6.293,1.087,8.09-1.584
			c1.232-1.833,1.26-4.101,0.31-5.932L805.62,380.212z M881.8,302.89c0.648,0.887,1.449,1.684,2.413,2.332
			c1.569,1.055,3.336,1.581,5.096,1.639l-1.066,15.678c-1.834,0.038-3.622,0.929-4.724,2.566c-1.448,2.154-1.244,4.911,0.28,6.845
			l-62.269,37.167c-0.377-0.489-0.806-0.944-1.284-1.363L881.8,302.89z M1113.229,333.045c-0.417,0.392-0.8,0.831-1.133,1.326
			c-0.4,0.594-0.698,1.226-0.915,1.874L961.419,290.96c0.622-2.337-0.237-4.907-2.356-6.331c-2.672-1.796-6.293-1.087-8.09,1.584
			c-1.215,1.806-1.259,4.037-0.351,5.854l-22.454,13.402c-1.652-0.986-3.756-0.607-4.968,0.865l-24.053-7.208
			c0.773-3.748-0.719-7.759-4.091-10.027c-0.965-0.649-2.006-1.09-3.072-1.356l0.64-9.416c1.113-0.11,2.172-0.681,2.845-1.681
			c0.968-1.439,0.829-3.282-0.194-4.572L978.51,175.7c0.173,0.134,0.344,0.271,0.528,0.395c3.258,2.191,7.359,2.137,10.501,0.211
			L1113.229,333.045z M1226.823,372.645c-0.376,2.076,0.413,4.248,2.154,5.61c-2.165,3.612-4.314,7.196-6.445,10.745
			c-1.656-0.641-3.591-0.085-4.623,1.451c-0.425,0.632-0.63,1.344-0.65,2.053l-42.294,9.537c-0.346-1.327-1.137-2.543-2.364-3.369
			c-1.868-1.256-4.189-1.263-6.037-0.255l-42.673-54.074c0.406-0.385,0.778-0.816,1.104-1.299c0.221-0.329,0.404-0.671,0.569-1.018
			L1226.823,372.645z M1256.872,381.731c-0.131,0.615-0.14,1.24-0.057,1.853l-32.238,7.27c-0.217-0.424-0.512-0.808-0.885-1.136
			c2.078-3.463,4.227-7.047,6.445-10.747c2.55,1.169,5.638,0.372,7.254-2.032c0.204-0.303,0.366-0.622,0.506-0.946L1256.872,381.731
			z"/>
		<circle opacity="0.5" fill="#FFFFFF" cx="750.887" cy="439.951" r="1.943"/>
		<circle opacity="0.5" fill="#FFFFFF" cx="317.19" cy="330.337" r="3.886"/>
		<circle opacity="0.5" fill="#FFFFFF" cx="448.001" cy="480.352" r="3.886"/>
	</g>
	<g>
		<circle opacity="0.5" fill="#FFFFFF" cx="1486.098" cy="350.958" r="9.193"/>
		<circle opacity="0.5" fill="#FFFFFF" cx="1113.39" cy="484.508" r="9.193"/>
		<circle opacity="0.5" fill="#FFFFFF" cx="912.696" cy="463.537" r="9.193"/>
		<circle opacity="0.5" fill="#FFFFFF" cx="811.932" cy="543.359" r="9.193"/>
		<circle opacity="0.5" fill="#FFFFFF" cx="681.039" cy="680.384" r="9.193"/>
		<circle opacity="0.5" fill="#FFFFFF" cx="338.834" cy="364.282" r="9.193"/>
		<circle opacity="0.5" fill="#FFFFFF" cx="1287.325" cy="554.577" r="4.596"/>
		<circle opacity="0.5" fill="#FFFFFF" cx="1335.104" cy="480.711" r="4.596"/>
		<circle opacity="0.5" fill="#FFFFFF" cx="1396.109" cy="222.825" r="4.596"/>
		<circle opacity="0.5" fill="#FFFFFF" cx="1168.669" cy="635.244" r="4.596"/>
		<circle opacity="0.5" fill="#FFFFFF" cx="1044.611" cy="359.587" r="4.596"/>
		<circle opacity="0.5" fill="#FFFFFF" cx="818.182" cy="506.959" r="4.596"/>
		<circle opacity="0.5" fill="#FFFFFF" cx="733.137" cy="542.308" r="4.596"/>
		<circle opacity="0.5" fill="#FFFFFF" cx="679.849" cy="484.668" r="4.596"/>
		<circle opacity="0.5" fill="#FFFFFF" cx="500.025" cy="376.014" r="4.596"/>
		<circle opacity="0.5" fill="#FFFFFF" cx="320.785" cy="528.978" r="4.596"/>
		<circle opacity="0.5" fill="#FFFFFF" cx="421.345" cy="401.37" r="4.596"/>
		<circle opacity="0.5" fill="#FFFFFF" cx="985.447" cy="432.159" r="4.596"/>
		<circle opacity="0.5" fill="#FFFFFF" cx="1063.955" cy="594.173" r="4.596"/>
		<circle opacity="0.5" fill="#FFFFFF" cx="1653.944" cy="384.439" r="6.895"/>
		<circle opacity="0.5" fill="#FFFFFF" cx="1203.954" cy="519.252" r="6.895"/>
		<circle opacity="0.5" fill="#FFFFFF" cx="1053.571" cy="459.465" r="6.895"/>
		<circle opacity="0.5" fill="#FFFFFF" cx="843.505" cy="378.976" r="6.895"/>
		<circle opacity="0.5" fill="#FFFFFF" cx="549.748" cy="459.763" r="6.895"/>
		<circle opacity="0.5" fill="#FFFFFF" cx="1022.983" cy="399.899" r="6.895"/>
		<circle opacity="0.5" fill="#FFFFFF" cx="1266.558" cy="209.793" r="6.895"/>
		<circle opacity="0.5" fill="#FFFFFF" cx="1581.076" cy="486.258" r="2.298"/>
		<circle opacity="0.5" fill="#FFFFFF" cx="1049.93" cy="425.128" r="2.298"/>
		<circle opacity="0.5" fill="#FFFFFF" cx="770.832" cy="524.149" r="2.298"/>
		<circle opacity="0.5" fill="#FFFFFF" cx="805.417" cy="569.568" r="2.298"/>
		<circle opacity="0.5" fill="#FFFFFF" cx="437.622" cy="380.901" r="2.298"/>
		<circle opacity="0.5" fill="#FFFFFF" cx="387.998" cy="386.095" r="4.123"/>
		<circle opacity="0.5" fill="#FFFFFF" cx="524.516" cy="273.555" r="4.123"/>
		<circle opacity="0.5" fill="#FFFFFF" cx="222.104" cy="401.38" r="4.123"/>
		<path opacity="0.5" fill="#FFFFFF" d="M217.281,397.141c-2.341,2.663-2.08,6.72,0.584,9.061c2.663,2.341,6.72,2.08,9.061-0.584
			c1.048-1.192,1.546-2.663,1.569-4.134l153.215-14.24c0.25,1.374,0.92,2.68,2.05,3.673c2.663,2.341,6.72,2.08,9.061-0.583
			c0.183-0.209,0.322-0.439,0.474-0.663l21.475,9.661c-0.74,2.394-0.124,5.071,1.75,6.922
			c-40.31,51.045-79.779,101.415-91.968,116.983c-2.826-1.857-6.648-1.425-8.945,1.188c-2.514,2.86-2.234,7.216,0.627,9.73
			c2.86,2.514,7.216,2.233,9.73-0.627c2.365-2.69,2.227-6.685-0.174-9.244c25.823-32.998,59.6-76.019,91.992-117.031
			c2.804,1.702,6.502,1.217,8.743-1.333c0.272-0.31,0.497-0.644,0.704-0.985l114.037,51.302c-1.469,3.536-0.621,7.76,2.415,10.428
			c2.855,2.51,6.829,2.93,10.053,1.382L674.908,670.67c-0.908,0.574-1.755,1.279-2.5,2.127c-4.19,4.767-3.722,12.027,1.044,16.217
			c4.767,4.19,12.027,3.722,16.217-1.044c3.649-4.151,3.762-10.193,0.582-14.452l112.31-100.369
			c1.906,1.519,4.681,1.304,6.307-0.546c1.676-1.907,1.489-4.811-0.418-6.487c-0.397-0.349-0.843-0.598-1.306-0.787l2.153-10.787
			c3.996,0.938,8.366-0.298,11.265-3.597c2.891-3.289,3.562-7.763,2.137-11.599l82.533-67.08c4.768,4.076,11.938,3.583,16.093-1.143
			c2.709-3.082,3.459-7.204,2.371-10.867l56.034-24.288c0.328,0.492,0.698,0.961,1.163,1.369c2.86,2.514,7.216,2.233,9.73-0.627
			c0.308-0.35,0.571-0.724,0.796-1.113l53.327,21.315c-0.957,3.314-0.01,7.03,2.753,9.458c1.571,1.381,3.482,2.119,5.419,2.255
			l10.225,118.727c-1.63,0.193-3.201,0.94-4.37,2.269c-2.514,2.86-2.233,7.216,0.627,9.731c2.86,2.514,7.217,2.233,9.73-0.627
			c0.127-0.144,0.215-0.307,0.328-0.458l92.455,35.719c-0.427,2.309,0.309,4.774,2.201,6.437c2.86,2.514,7.217,2.233,9.73-0.627
			c2.479-2.82,2.229-7.088-0.521-9.617l73.002-92.698l34.887,13.944c-1.417,2.746-0.869,6.197,1.557,8.329
			c2.86,2.514,7.216,2.233,9.73-0.627c2.514-2.859,2.233-7.215-0.625-9.729l40.176-62.535c2.729,1.353,6.121,0.794,8.228-1.602
			c2.514-2.86,2.234-7.216-0.626-9.73c-0.069-0.061-0.149-0.099-0.22-0.157l29.855-46.47c3.131,1.552,6.784,1.58,9.907,0.141
			l105.928,156.57c-0.674,0.374-1.308,0.842-1.846,1.454c-2.514,2.86-2.234,7.216,0.627,9.73c2.86,2.514,7.216,2.234,9.73-0.627
			c2.514-2.86,2.233-7.216-0.627-9.73c-1.805-1.586-4.203-2.054-6.361-1.469l-106.027-156.716c0.867-0.562,1.678-1.241,2.393-2.055
			c4.19-4.767,3.722-12.027-1.044-16.217c-0.113-0.099-0.233-0.183-0.349-0.277l44.5-69.265l48.537,9.549
			c-0.292,3.504,1.008,7.095,3.852,9.594c3.689,3.243,8.868,3.684,12.965,1.513c38.173,54.735,75.52,108.109,85.939,122.412
			c-1.426,1.902-1.19,4.601,0.625,6.197c1.906,1.676,4.811,1.489,6.487-0.418c1.676-1.906,1.489-4.811-0.418-6.487
			c-1.578-1.387-3.832-1.479-5.515-0.394c-10.025-13.79-45.87-64.998-85.741-122.167c0.671-0.489,1.303-1.051,1.874-1.701
			c1.093-1.244,1.862-2.659,2.327-4.144l147.752,29.069c-0.302,2.865,0.737,5.828,3.065,7.875c3.813,3.352,9.622,2.978,12.974-0.835
			c3.352-3.813,2.978-9.622-0.835-12.974c-3.813-3.352-9.622-2.978-12.974,0.835c-0.922,1.048-1.551,2.25-1.916,3.508
			l-147.697-29.058c0.617-3.779-0.654-7.78-3.742-10.494c-3.996-3.513-9.738-3.74-13.961-0.917
			c-27.936-40.083-56.649-81.359-78.994-113.515c0.187-0.171,0.386-0.324,0.558-0.519c2.514-2.86,2.233-7.217-0.626-9.73
			c-2.86-2.514-7.216-2.234-9.73,0.627c-0.84,0.956-1.34,2.083-1.564,3.249l-113.627-11.902c-0.048-2.492-1.092-4.956-3.112-6.731
			c-3.813-3.352-9.622-2.978-12.974,0.835c-3.352,3.813-2.978,9.622,0.835,12.974c0.694,0.61,1.455,1.093,2.254,1.458
			l-58.685,291.911c-2.585-0.028-5.168,1.022-7.009,3.116c-0.614,0.698-1.1,1.465-1.466,2.27l-70.992-28.375
			c0.909-3.979-0.335-8.317-3.615-11.2c-4.219-3.708-10.386-3.761-14.654-0.422l-52.443-47.987c1.107-1.865,0.774-4.308-0.914-5.792
			c-0.744-0.654-1.64-1.015-2.555-1.11l-4.669-54.209c1.513-0.252,2.957-0.976,4.049-2.218c2.514-2.86,2.234-7.216-0.627-9.73
			c-2.86-2.514-7.216-2.233-9.73,0.627c-1.761,2.003-2.121,4.731-1.214,7.056l-38.732,31.48c-0.009-0.008-0.015-0.018-0.024-0.026
			c-1.907-1.676-4.811-1.489-6.487,0.418c-0.414,0.472-0.713,1.004-0.902,1.564l-139.393-16.989
			c-0.115-2.401-1.159-4.754-3.107-6.467c-3.813-3.352-9.622-2.978-12.974,0.835c-3.352,3.813-2.978,9.622,0.835,12.973
			c1.043,0.917,2.238,1.545,3.489,1.91l-22.415,112.312c-2.022-0.095-4.066,0.666-5.506,2.304c-1.21,1.377-1.757,3.1-1.696,4.798
			l-36.08,15.639c-0.238-0.803-0.685-1.554-1.361-2.148c-1.907-1.676-4.811-1.489-6.487,0.418c-0.349,0.397-0.598,0.843-0.786,1.306
			l-80.146-35.815c0.729-2.492,0.032-5.288-2.047-7.116c-2.093-1.84-4.983-2.168-7.371-1.098
			c-35.913-49.538-126.643-174.379-147.973-200.337c0.091-0.092,0.195-0.163,0.281-0.261c2.341-2.663,2.08-6.72-0.584-9.061
			c-2.663-2.341-6.72-2.08-9.061,0.584c-2.17,2.469-2.077,6.118,0.066,8.505c-7.428,8.387-26.967,32.122-79.984,99.031
			c-1.839-0.979-4.171-0.618-5.606,1.014c-0.755,0.858-1.111,1.919-1.124,2.979l-38.841,3.61c-0.314-1.192-0.973-2.307-1.968-3.182
			c-2.663-2.341-6.72-2.08-9.061,0.584c-0.311,0.354-0.569,0.734-0.788,1.13l-32.776-14.745c1.587-4.326,0.477-9.365-3.191-12.59
			c-4.767-4.19-12.027-3.722-16.217,1.044c-4.19,4.767-3.722,12.027,1.044,16.217c4.767,4.19,12.027,3.722,16.217-1.044
			c0.589-0.671,1.077-1.394,1.483-2.148l32.858,14.782c-0.095,0.371-0.159,0.743-0.187,1.122l-153.284,14.247
			c-0.299-1.241-0.96-2.407-1.992-3.314C223.679,394.217,219.622,394.478,217.281,397.141z M766.257,524.046
			c-0.019,0.841,0.192,1.674,0.626,2.416l-27.976,12.126c-0.339-0.525-0.726-1.026-1.218-1.458c-2.86-2.514-7.216-2.234-9.73,0.627
			c-0.145,0.165-0.249,0.35-0.376,0.525l-168.996-76.027c0.927-3.299-0.025-6.983-2.771-9.396
			c-2.868-2.521-6.864-2.933-10.095-1.361l-41.768-69.841c0.447-0.312,0.874-0.662,1.25-1.09c2.514-2.86,2.234-7.216-0.627-9.73
			s-7.216-2.234-9.73,0.627c-0.972,1.105-1.515,2.434-1.664,3.794l-51.07,4.747c-0.156-0.782-0.517-1.52-1.076-2.146
			c37.094-46.805,68.97-86.571,79.884-99.019c2.126,1.448,4.866,1.465,6.992,0.132c18.605,22.93,99.918,134.333,147.717,200.255
			c-0.34,0.264-0.665,0.557-0.959,0.892c-2.514,2.86-2.234,7.217,0.626,9.73c2.86,2.514,7.216,2.234,9.73-0.627
			c0.309-0.351,0.573-0.726,0.798-1.117L766.257,524.046z M774.947,526.154c0.251-0.515,0.403-1.06,0.45-1.616l36.171-15.678
			c0.351,1.226,1.033,2.373,2.062,3.278c0.67,0.589,1.427,1.011,2.219,1.296l-3.681,18.442c-3.267-0.065-6.54,1.25-8.866,3.897
			c-0.64,0.729-1.159,1.52-1.583,2.345L774.947,526.154z M991.847,397.132c0.022,0.75,0.233,1.484,0.615,2.149l-70.574,57.36
			c-0.466-0.62-1.001-1.203-1.606-1.735c-4.767-4.19-12.027-3.722-16.217,1.044c-2.972,3.381-3.589,8.012-2.003,11.917
			l-79.016,34.25c-0.109-0.109-0.195-0.233-0.313-0.337c-0.783-0.689-1.683-1.148-2.622-1.421l22.403-112.25
			c2.872,0.309,5.843-0.73,7.895-3.064c1.253-1.426,1.985-3.13,2.211-4.881L991.847,397.132z M1038.991,363.553
			c0.307,0.434,0.651,0.847,1.068,1.213c1.177,1.035,2.609,1.57,4.061,1.673l4.671,54.239c-0.547,0.139-1.068,0.386-1.54,0.726
			l-17.156-15.698c3.115-3.813,2.684-9.434-1.044-12.711c-3.813-3.352-9.622-2.978-12.974,0.835
			c-1.129,1.284-1.825,2.797-2.12,4.364l-12.957-1.579c-0.051-0.612-0.229-1.209-0.521-1.761L1038.991,363.553z M1105.119,476.552
			c-0.119,0.124-0.245,0.239-0.36,0.37c-0.48,0.546-0.891,1.127-1.249,1.73l-41.167-16.454c1.044-3.358,0.109-7.165-2.703-9.637
			c-1.909-1.678-4.319-2.422-6.67-2.268l-1.787-20.749c0.586-0.166,1.14-0.453,1.632-0.852L1105.119,476.552z M1195.052,516.986
			c-0.822,3.24,0.151,6.812,2.833,9.17c0.797,0.701,1.685,1.229,2.616,1.607l-5.751,28.606l-71.722-65.628
			c0.437-0.675,0.796-1.381,1.077-2.112L1195.052,516.986z M1380.297,408.773c-3.908-2.353-8.846-2.146-12.54,0.469l-5.54-8.189
			c0.288-0.236,0.572-0.479,0.826-0.768c2.514-2.86,2.234-7.216-0.627-9.73c-2.86-2.514-7.216-2.233-9.73,0.627
			c-2.246,2.556-2.246,6.297-0.184,8.859l-106.697,135.484l-33.17-13.258c1.189-3.426,0.28-7.379-2.612-9.92
			c-1.279-1.125-2.784-1.82-4.345-2.116l58.61-291.536c3.241,0.824,6.815-0.149,9.174-2.832c1.191-1.356,1.903-2.964,2.166-4.624
			l113.604,11.899c0.083,1.806,0.859,3.577,2.325,4.865c2.24,1.969,5.387,2.2,7.859,0.843c11.1,15.972,44.153,63.52,79.024,113.554
			c-0.338,0.303-0.665,0.622-0.972,0.971c-1.306,1.486-2.159,3.215-2.571,5.017l-49.542-9.747l-0.298,0.463L1380.297,408.773z
			 M1247.375,536.153l106.301-134.981c2.111,1.626,4.896,1.877,7.187,0.772l5.632,8.325c-0.255,0.241-0.504,0.492-0.74,0.761
			c-4.19,4.767-3.722,12.027,1.044,16.217c0.35,0.307,0.716,0.582,1.09,0.839l-29.828,46.429c-2.714-1.295-6.053-0.726-8.136,1.643
			c-2.514,2.86-2.234,7.217,0.627,9.73c0.044,0.038,0.094,0.062,0.138,0.099l-40.157,62.505c-2.755-1.454-6.24-0.911-8.387,1.531
			c-0.006,0.006-0.009,0.014-0.015,0.02L1247.375,536.153z M1070.278,596.844c1.122-2.659,0.516-5.839-1.771-7.849
			c-1.089-0.957-2.396-1.504-3.734-1.662l-10.226-118.736c2.211-0.236,4.345-1.259,5.929-3.061c0.503-0.572,0.911-1.192,1.247-1.838
			l41.061,16.412c-1.833,4.42-0.773,9.696,3.02,13.031c4.767,4.19,12.027,3.722,16.217-1.044c0.013-0.014,0.023-0.03,0.036-0.045
			l73.718,67.454l0.282-1.408l6.002-29.854c3.139,0.659,6.532-0.341,8.801-2.921c0.434-0.493,0.802-1.022,1.112-1.572l32.789,13.105
			l-72.743,92.369c-2.775-1.546-6.344-1.013-8.526,1.469c-0.469,0.533-0.808,1.129-1.084,1.745L1070.278,596.844z M923.13,458.735
			c-0.112-0.243-0.237-0.48-0.366-0.716l70.738-57.493c1.907,1.582,4.734,1.379,6.38-0.494c0.472-0.537,0.781-1.157,0.96-1.804
			l12.956,1.579c-0.025,2.581,1.025,5.158,3.116,6.997c3.485,3.063,8.631,3.005,12.051,0.063l17.168,15.71
			c-1.27,1.888-0.991,4.461,0.763,6.004c0.775,0.682,1.716,1.039,2.672,1.114l1.796,20.851c-1.76,0.434-3.41,1.386-4.698,2.851
			c-0.545,0.62-0.982,1.297-1.331,2.004l-53.291-21.3c0.731-2.493,0.034-5.292-2.045-7.12c-2.86-2.514-7.216-2.234-9.73,0.626
			c-1.724,1.962-2.103,4.619-1.267,6.911L923.13,458.735z M821.994,537.831c-0.625-1.139-1.443-2.195-2.475-3.103
			c-1.68-1.477-3.672-2.363-5.728-2.698l3.638-18.228c2.157,0.235,4.39-0.538,5.932-2.291c2.027-2.306,2.207-5.571,0.713-8.072
			l78.702-34.114c0.368,0.631,0.802,1.231,1.299,1.794L821.994,537.831z M555.122,467.214c0.549-0.396,1.065-0.853,1.531-1.382
			c0.559-0.636,1.005-1.332,1.359-2.059L726.786,539.7c-1.085,2.646-0.469,5.791,1.8,7.786c2.86,2.514,7.216,2.233,9.73-0.627
			c1.7-1.934,2.092-4.543,1.303-6.813l28.38-12.301c1.787,1.408,4.313,1.284,5.959-0.258l27.117,12.118
			c-1.477,4.279-0.339,9.211,3.271,12.384c1.033,0.908,2.187,1.584,3.397,2.058l-2.185,10.948c-1.322-0.04-2.652,0.467-3.593,1.539
			c-1.354,1.541-1.472,3.724-0.469,5.393l-112.312,100.37c-0.183-0.184-0.362-0.37-0.559-0.544
			c-3.487-3.066-8.307-3.627-12.285-1.847L555.122,467.214z M427.907,403.464c0.757-2.378,0.162-5.046-1.672-6.909
			c3.089-3.907,6.156-7.783,9.196-11.623c1.845,1.004,4.199,0.646,5.643-0.998c0.595-0.676,0.943-1.48,1.075-2.309l51.063-4.746
			c0.204,1.609,0.946,3.157,2.26,4.311c2,1.758,4.721,2.12,7.043,1.219l41.819,69.927c-0.534,0.39-1.037,0.839-1.492,1.356
			c-0.309,0.352-0.576,0.726-0.822,1.108L427.907,403.464z M394.044,388.23c0.247-0.702,0.353-1.433,0.349-2.165l38.922-3.618
			c0.19,0.531,0.478,1.026,0.865,1.468c-2.965,3.745-6.032,7.622-9.196,11.624c-2.813-1.759-6.557-1.295-8.819,1.278
			c-0.285,0.325-0.524,0.674-0.738,1.032L394.044,388.23z"/>
		<circle opacity="0.5" fill="#FFFFFF" cx="996.428" cy="396.997" r="2.298"/>
		<circle opacity="0.5" fill="#FFFFFF" cx="1488.459" cy="591.622" r="4.596"/>
		<circle opacity="0.5" fill="#FFFFFF" cx="1357.865" cy="395.734" r="4.596"/>
	</g>
	<g>
		<circle opacity="0.5" fill="#FFFFFF" cx="752.763" cy="283.045" r="5.097"/>
		<circle opacity="0.5" fill="#FFFFFF" cx="546.105" cy="357.095" r="5.097"/>
		<circle opacity="0.5" fill="#FFFFFF" cx="434.826" cy="345.467" r="5.097"/>
		<circle opacity="0.5" fill="#FFFFFF" cx="378.955" cy="389.727" r="5.097"/>
		<circle opacity="0.5" fill="#FFFFFF" cx="306.378" cy="465.703" r="5.097"/>
		<circle opacity="0.5" fill="#FFFFFF" cx="116.634" cy="290.433" r="5.097"/>
		<circle opacity="0.5" fill="#FFFFFF" cx="642.548" cy="395.947" r="2.549"/>
		<circle opacity="0.5" fill="#FFFFFF" cx="669.041" cy="354.99" r="2.549"/>
		<circle opacity="0.5" fill="#FFFFFF" cx="702.866" cy="211.998" r="2.549"/>
		<circle opacity="0.5" fill="#FFFFFF" cx="576.756" cy="440.675" r="2.549"/>
		<circle opacity="0.5" fill="#FFFFFF" cx="507.969" cy="287.83" r="2.549"/>
		<circle opacity="0.5" fill="#FFFFFF" cx="382.42" cy="369.544" r="2.549"/>
		<circle opacity="0.5" fill="#FFFFFF" cx="335.265" cy="389.144" r="2.549"/>
		<circle opacity="0.5" fill="#FFFFFF" cx="305.718" cy="357.184" r="2.549"/>
		<circle opacity="0.5" fill="#FFFFFF" cx="206.01" cy="296.938" r="2.549"/>
		<circle opacity="0.5" fill="#FFFFFF" cx="106.626" cy="381.753" r="2.549"/>
		<circle opacity="0.5" fill="#FFFFFF" cx="162.384" cy="310.997" r="2.549"/>
		<circle opacity="0.5" fill="#FFFFFF" cx="475.164" cy="328.069" r="2.549"/>
		<circle opacity="0.5" fill="#FFFFFF" cx="518.695" cy="417.902" r="2.549"/>
		<circle opacity="0.5" fill="#FFFFFF" cx="845.829" cy="301.61" r="3.823"/>
		<circle opacity="0.5" fill="#FFFFFF" cx="596.321" cy="376.36" r="3.823"/>
		<circle opacity="0.5" fill="#FFFFFF" cx="512.937" cy="343.21" r="3.823"/>
		<circle opacity="0.5" fill="#FFFFFF" cx="396.461" cy="298.58" r="3.823"/>
		<circle opacity="0.5" fill="#FFFFFF" cx="233.58" cy="343.375" r="3.823"/>
		<circle opacity="0.5" fill="#FFFFFF" cx="495.977" cy="310.182" r="3.823"/>
		<circle opacity="0.5" fill="#FFFFFF" cx="631.034" cy="204.773" r="3.823"/>
		<circle opacity="0.5" fill="#FFFFFF" cx="805.426" cy="358.066" r="1.274"/>
		<circle opacity="0.5" fill="#FFFFFF" cx="510.919" cy="324.171" r="1.274"/>
		<circle opacity="0.5" fill="#FFFFFF" cx="356.166" cy="379.075" r="1.274"/>
		<circle opacity="0.5" fill="#FFFFFF" cx="375.342" cy="404.259" r="1.274"/>
		<circle opacity="0.5" fill="#FFFFFF" cx="171.409" cy="299.648" r="1.274"/>
		<circle opacity="0.5" fill="#FFFFFF" cx="143.894" cy="302.528" r="2.286"/>
		<circle opacity="0.5" fill="#FFFFFF" cx="219.59" cy="240.127" r="2.286"/>
		<circle opacity="0.5" fill="#FFFFFF" cx="51.91" cy="311.003" r="2.286"/>
		<path opacity="0.5" fill="#FFFFFF" d="M49.236,308.653c-1.298,1.477-1.153,3.726,0.324,5.024c1.477,1.298,3.726,1.153,5.024-0.324
			c0.581-0.661,0.857-1.477,0.87-2.292l84.954-7.896c0.138,0.762,0.51,1.486,1.136,2.037c1.477,1.298,3.726,1.153,5.024-0.324
			c0.102-0.116,0.179-0.243,0.263-0.368l11.907,5.357c-0.41,1.327-0.068,2.812,0.97,3.838
			c-22.351,28.303-44.235,56.232-50.994,64.865c-1.567-1.03-3.686-0.79-4.96,0.659c-1.394,1.586-1.238,4.001,0.347,5.395
			s4.001,1.238,5.395-0.347c1.311-1.491,1.235-3.707-0.097-5.126c14.318-18.296,33.047-42.15,51.007-64.891
			c1.555,0.944,3.605,0.675,4.848-0.739c0.151-0.172,0.276-0.357,0.391-0.546l63.231,28.446c-0.814,1.961-0.344,4.303,1.339,5.782
			c1.583,1.392,3.787,1.625,5.574,0.766l67.189,112.348c-0.504,0.318-0.973,0.709-1.386,1.179c-2.323,2.643-2.064,6.669,0.579,8.992
			c2.643,2.323,6.669,2.064,8.992-0.579c2.023-2.302,2.086-5.652,0.323-8.013l62.273-55.652c1.057,0.842,2.595,0.723,3.497-0.303
			c0.929-1.057,0.826-2.668-0.232-3.597c-0.22-0.193-0.467-0.332-0.724-0.436l1.194-5.981c2.216,0.52,4.638-0.166,6.246-1.994
			c1.603-1.823,1.975-4.305,1.185-6.431l45.763-37.195c2.644,2.26,6.62,1.987,8.923-0.634c1.502-1.709,1.918-3.994,1.315-6.025
			l31.07-13.467c0.182,0.272,0.387,0.533,0.645,0.759c1.586,1.394,4.001,1.238,5.395-0.347c0.171-0.194,0.317-0.402,0.441-0.617
			l29.569,11.818c-0.53,1.838-0.005,3.898,1.527,5.244c0.871,0.766,1.931,1.175,3.005,1.251l5.67,65.831
			c-0.904,0.107-1.774,0.521-2.423,1.259c-1.394,1.586-1.238,4.001,0.347,5.395c1.586,1.394,4.001,1.238,5.395-0.347
			c0.07-0.08,0.119-0.17,0.182-0.254l51.264,19.806c-0.237,1.28,0.171,2.647,1.22,3.569c1.586,1.394,4.001,1.238,5.395-0.347
			c1.375-1.564,1.236-3.93-0.289-5.332l40.478-51.399l19.344,7.732c-0.786,1.522-0.482,3.436,0.863,4.618
			c1.586,1.394,4.001,1.238,5.395-0.347c1.394-1.586,1.238-4-0.347-5.394l22.277-34.674c1.514,0.75,3.394,0.441,4.562-0.888
			c1.394-1.586,1.239-4.001-0.347-5.395c-0.038-0.034-0.083-0.055-0.122-0.087l16.554-25.767c1.736,0.861,3.762,0.876,5.493,0.078
			l58.735,86.814c-0.374,0.207-0.725,0.467-1.024,0.806c-1.394,1.586-1.238,4.001,0.347,5.395c1.586,1.394,4.001,1.238,5.395-0.347
			c1.394-1.586,1.238-4.001-0.347-5.395c-1.001-0.879-2.331-1.139-3.527-0.815l-58.79-86.895c0.481-0.311,0.93-0.688,1.327-1.139
			c2.323-2.643,2.064-6.669-0.579-8.992c-0.062-0.055-0.129-0.101-0.193-0.153l24.674-38.406l26.913,5.295
			c-0.162,1.943,0.559,3.934,2.136,5.32c2.046,1.798,4.917,2.043,7.189,0.839c21.166,30.349,41.874,59.944,47.651,67.875
			c-0.791,1.054-0.66,2.551,0.347,3.436c1.057,0.929,2.668,0.826,3.597-0.231c0.929-1.057,0.826-2.668-0.232-3.597
			c-0.875-0.769-2.125-0.82-3.058-0.218c-5.558-7.646-25.434-36.04-47.541-67.738c0.372-0.271,0.723-0.583,1.039-0.943
			c0.606-0.69,1.032-1.475,1.291-2.298l81.925,16.118c-0.167,1.589,0.409,3.232,1.7,4.367c2.114,1.859,5.335,1.651,7.194-0.463
			c1.859-2.115,1.651-5.335-0.463-7.194c-2.114-1.858-5.335-1.651-7.194,0.463c-0.511,0.581-0.86,1.248-1.062,1.945l-81.894-16.112
			c0.342-2.095-0.363-4.314-2.075-5.818c-2.216-1.947-5.4-2.073-7.741-0.508c-15.49-22.225-31.411-45.112-43.8-62.941
			c0.104-0.095,0.214-0.18,0.309-0.288c1.394-1.586,1.238-4.001-0.347-5.395c-1.586-1.394-4.001-1.238-5.395,0.347
			c-0.466,0.53-0.743,1.155-0.867,1.801l-63.003-6.599c-0.027-1.382-0.606-2.748-1.725-3.732c-2.115-1.859-5.335-1.651-7.194,0.463
			c-1.858,2.114-1.651,5.335,0.463,7.194c0.385,0.338,0.807,0.606,1.25,0.808l-32.539,161.857c-1.434-0.016-2.865,0.566-3.886,1.728
			c-0.34,0.387-0.61,0.812-0.813,1.258l-39.363-15.733c0.504-2.206-0.186-4.611-2.005-6.21c-2.339-2.056-5.759-2.086-8.125-0.234
			l-29.078-26.608c0.614-1.034,0.429-2.389-0.507-3.212c-0.412-0.363-0.909-0.563-1.417-0.615l-2.589-30.057
			c0.839-0.14,1.639-0.541,2.245-1.23c1.394-1.586,1.238-4.001-0.347-5.395c-1.586-1.394-4.001-1.239-5.395,0.347
			c-0.976,1.111-1.176,2.623-0.673,3.912l-21.476,17.455c-0.005-0.005-0.008-0.01-0.013-0.014c-1.057-0.929-2.668-0.826-3.597,0.231
			c-0.23,0.262-0.395,0.557-0.5,0.867l-77.29-9.42c-0.064-1.331-0.643-2.636-1.723-3.586c-2.115-1.859-5.335-1.651-7.194,0.463
			c-1.858,2.114-1.651,5.335,0.463,7.194c0.578,0.509,1.241,0.857,1.934,1.059l-12.428,62.274c-1.121-0.053-2.255,0.369-3.053,1.278
			c-0.671,0.763-0.974,1.719-0.94,2.66l-20.006,8.672c-0.132-0.445-0.38-0.862-0.755-1.191c-1.057-0.929-2.668-0.826-3.597,0.231
			c-0.193,0.22-0.331,0.467-0.436,0.724l-44.439-19.859c0.404-1.382,0.018-2.932-1.135-3.945c-1.161-1.02-2.763-1.202-4.087-0.609
			c-19.913-27.468-70.22-96.689-82.047-111.082c0.05-0.051,0.108-0.09,0.156-0.145c1.298-1.477,1.153-3.726-0.323-5.024
			c-1.477-1.298-3.726-1.153-5.024,0.324c-1.203,1.369-1.151,3.392,0.037,4.716c-4.119,4.651-14.953,17.811-44.349,54.91
			c-1.02-0.543-2.313-0.343-3.108,0.562c-0.418,0.476-0.616,1.064-0.623,1.652l-21.537,2.002c-0.174-0.661-0.539-1.279-1.091-1.764
			c-1.477-1.298-3.726-1.153-5.024,0.324c-0.172,0.196-0.315,0.407-0.437,0.626l-18.173-8.176c0.88-2.398,0.264-5.193-1.77-6.981
			c-2.643-2.323-6.669-2.064-8.992,0.579c-2.323,2.643-2.064,6.669,0.579,8.992c2.643,2.323,6.669,2.064,8.992-0.579
			c0.327-0.372,0.597-0.773,0.822-1.191l18.219,8.196c-0.053,0.206-0.088,0.412-0.104,0.622l-84.992,7.9
			c-0.166-0.688-0.532-1.335-1.104-1.838C52.783,307.031,50.534,307.176,49.236,308.653z M353.629,379.018
			c-0.01,0.466,0.106,0.928,0.347,1.34l-15.512,6.724c-0.188-0.291-0.402-0.569-0.675-0.809c-1.586-1.394-4.001-1.238-5.395,0.347
			c-0.08,0.092-0.138,0.194-0.208,0.291l-93.704-42.155c0.514-1.829-0.014-3.872-1.536-5.21c-1.59-1.398-3.806-1.626-5.597-0.755
			l-23.159-38.725c0.248-0.173,0.484-0.367,0.693-0.604c1.394-1.586,1.238-4.001-0.347-5.395c-1.586-1.394-4.001-1.238-5.395,0.347
			c-0.539,0.613-0.84,1.35-0.923,2.103l-28.317,2.632c-0.086-0.434-0.287-0.843-0.596-1.19
			c20.568-25.952,38.242-48.002,44.294-54.904c1.179,0.803,2.698,0.812,3.877,0.073c10.316,12.714,55.402,74.484,81.906,111.036
			c-0.189,0.147-0.368,0.309-0.532,0.495c-1.394,1.586-1.238,4.002,0.347,5.395c1.586,1.394,4.001,1.239,5.395-0.347
			c0.171-0.195,0.318-0.403,0.443-0.619L353.629,379.018z M358.447,380.187c0.139-0.286,0.224-0.588,0.25-0.896l20.056-8.693
			c0.195,0.68,0.573,1.316,1.143,1.817c0.372,0.327,0.791,0.56,1.23,0.719l-2.041,10.226c-1.812-0.036-3.626,0.693-4.916,2.161
			c-0.355,0.404-0.642,0.843-0.878,1.3L358.447,380.187z M478.713,308.647c0.012,0.416,0.129,0.823,0.341,1.192l-39.131,31.805
			c-0.258-0.344-0.555-0.667-0.891-0.962c-2.643-2.323-6.669-2.064-8.992,0.579c-1.648,1.875-1.99,4.443-1.11,6.608l-43.812,18.991
			c-0.06-0.061-0.108-0.129-0.173-0.187c-0.435-0.382-0.933-0.637-1.454-0.788l12.422-62.24c1.592,0.171,3.24-0.405,4.378-1.699
			c0.695-0.79,1.101-1.736,1.226-2.706L478.713,308.647z M504.853,290.029c0.17,0.241,0.361,0.47,0.592,0.673
			c0.653,0.574,1.447,0.871,2.252,0.927l2.59,30.074c-0.303,0.077-0.592,0.214-0.854,0.403l-9.512-8.704
			c1.727-2.114,1.488-5.231-0.579-7.048c-2.114-1.859-5.335-1.651-7.194,0.463c-0.626,0.712-1.012,1.551-1.175,2.42l-7.184-0.876
			c-0.028-0.339-0.127-0.67-0.289-0.977L504.853,290.029z M541.52,352.684c-0.066,0.069-0.136,0.133-0.2,0.205
			c-0.266,0.303-0.494,0.625-0.692,0.959l-22.826-9.123c0.579-1.862,0.06-3.973-1.499-5.343c-1.059-0.931-2.395-1.343-3.698-1.258
			l-0.991-11.505c0.325-0.092,0.632-0.251,0.905-0.472L541.52,352.684z M591.385,375.104c-0.456,1.796,0.084,3.777,1.571,5.084
			c0.442,0.389,0.934,0.682,1.45,0.891l-3.189,15.861l-39.768-36.389c0.242-0.374,0.441-0.766,0.597-1.171L591.385,375.104z
			 M694.099,315.102c-2.167-1.304-4.905-1.19-6.953,0.26l-3.072-4.54c0.159-0.131,0.317-0.266,0.458-0.426
			c1.394-1.586,1.238-4.001-0.347-5.395c-1.586-1.394-4.001-1.238-5.395,0.347c-1.245,1.417-1.245,3.491-0.102,4.912l-59.161,75.123
			l-18.392-7.351c0.659-1.9,0.155-4.091-1.448-5.501c-0.709-0.624-1.544-1.009-2.409-1.174l32.498-161.65
			c1.797,0.457,3.779-0.082,5.087-1.571c0.661-0.751,1.055-1.643,1.201-2.564l62.99,6.598c0.046,1.001,0.477,1.983,1.289,2.698
			c1.242,1.092,2.987,1.22,4.358,0.468c6.155,8.856,24.482,35.22,43.817,62.963c-0.187,0.168-0.369,0.345-0.539,0.538
			c-0.724,0.824-1.197,1.783-1.426,2.782l-27.47-5.404l-0.166,0.257L694.099,315.102z M620.397,385.731l58.941-74.843
			c1.171,0.902,2.715,1.041,3.985,0.428l3.123,4.616c-0.141,0.134-0.279,0.273-0.41,0.422c-2.323,2.643-2.064,6.669,0.579,8.992
			c0.194,0.171,0.397,0.323,0.604,0.465l-16.539,25.743c-1.505-0.718-3.356-0.403-4.511,0.911c-1.394,1.586-1.238,4.001,0.347,5.395
			c0.024,0.021,0.052,0.034,0.077,0.055l-22.266,34.658c-1.527-0.806-3.46-0.505-4.651,0.849c-0.003,0.003-0.005,0.008-0.008,0.011
			L620.397,385.731z M522.201,419.383c0.622-1.475,0.286-3.237-0.982-4.352c-0.604-0.531-1.328-0.834-2.07-0.922l-5.67-65.836
			c1.226-0.131,2.409-0.698,3.287-1.698c0.279-0.317,0.505-0.661,0.692-1.019l22.767,9.1c-1.016,2.45-0.429,5.376,1.675,7.225
			c2.643,2.323,6.669,2.064,8.992-0.579c0.007-0.008,0.013-0.017,0.02-0.025l40.874,37.402l0.157-0.781l3.328-16.553
			c1.74,0.365,3.622-0.189,4.88-1.62c0.241-0.274,0.445-0.566,0.617-0.872l18.18,7.267l-40.334,51.216
			c-1.539-0.857-3.517-0.562-4.728,0.815c-0.26,0.296-0.448,0.626-0.601,0.967L522.201,419.383z M440.611,342.805
			c-0.062-0.135-0.131-0.266-0.203-0.397l39.222-31.878c1.057,0.877,2.625,0.764,3.538-0.274c0.262-0.298,0.433-0.642,0.532-1
			l7.184,0.876c-0.014,1.431,0.568,2.86,1.728,3.88c1.932,1.698,4.786,1.666,6.682,0.035l9.52,8.711
			c-0.704,1.047-0.55,2.474,0.423,3.329c0.43,0.378,0.952,0.576,1.482,0.618l0.996,11.561c-0.976,0.24-1.891,0.768-2.605,1.58
			c-0.302,0.344-0.544,0.719-0.738,1.111l-29.548-11.81c0.405-1.382,0.019-2.934-1.134-3.948c-1.586-1.394-4.001-1.238-5.395,0.347
			c-0.956,1.088-1.166,2.561-0.703,3.832L440.611,342.805z M384.534,386.662c-0.347-0.632-0.8-1.217-1.372-1.721
			c-0.932-0.819-2.036-1.31-3.176-1.496l2.017-10.107c1.196,0.13,2.434-0.298,3.289-1.27c1.124-1.279,1.224-3.089,0.396-4.476
			l43.638-18.916c0.204,0.35,0.445,0.682,0.72,0.995L384.534,386.662z M236.56,347.506c0.304-0.22,0.591-0.473,0.849-0.767
			c0.31-0.353,0.557-0.738,0.753-1.141l93.581,42.1c-0.602,1.467-0.26,3.211,0.998,4.317c1.586,1.394,4.002,1.238,5.395-0.347
			c0.943-1.072,1.16-2.519,0.723-3.778l15.736-6.821c0.991,0.781,2.392,0.712,3.304-0.143l15.036,6.719
			c-0.819,2.372-0.188,5.107,1.814,6.867c0.573,0.503,1.212,0.878,1.884,1.141l-1.211,6.07c-0.733-0.022-1.47,0.259-1.993,0.853
			c-0.751,0.854-0.816,2.064-0.26,2.99l-62.274,55.653c-0.101-0.102-0.2-0.205-0.31-0.301c-1.934-1.7-4.606-2.011-6.812-1.024
			L236.56,347.506z M166.022,312.159c0.42-1.319,0.09-2.798-0.927-3.831c1.713-2.166,3.413-4.316,5.099-6.444
			c1.023,0.556,2.328,0.358,3.129-0.553c0.33-0.375,0.523-0.821,0.596-1.28l28.313-2.632c0.113,0.892,0.525,1.75,1.253,2.391
			c1.109,0.975,2.618,1.175,3.905,0.676l23.188,38.773c-0.296,0.216-0.575,0.465-0.827,0.752c-0.172,0.195-0.319,0.402-0.456,0.614
			L166.022,312.159z M147.246,303.712c0.137-0.389,0.196-0.794,0.194-1.2l21.581-2.006c0.105,0.294,0.265,0.569,0.48,0.814
			c-1.644,2.077-3.344,4.226-5.099,6.445c-1.56-0.976-3.636-0.718-4.89,0.709c-0.158,0.18-0.291,0.374-0.409,0.572L147.246,303.712z
			"/>
		<circle opacity="0.5" fill="#FFFFFF" cx="481.253" cy="308.573" r="1.274"/>
		<circle opacity="0.5" fill="#FFFFFF" cx="754.072" cy="416.488" r="2.549"/>
		<circle opacity="0.5" fill="#FFFFFF" cx="681.661" cy="307.872" r="2.549"/>
	</g>
	<g>
		<circle opacity="0.5" fill="#FFFFFF" cx="736.256" cy="600.444" r="5.097"/>
		<circle opacity="0.5" fill="#FFFFFF" cx="945.407" cy="533.76" r="5.097"/>
		<circle opacity="0.5" fill="#FFFFFF" cx="1056.205" cy="549.323" r="5.097"/>
		<circle opacity="0.5" fill="#FFFFFF" cx="1113.609" cy="507.07" r="5.097"/>
		<circle opacity="0.5" fill="#FFFFFF" cx="1188.832" cy="433.712" r="5.097"/>
		<circle opacity="0.5" fill="#FFFFFF" cx="1372.248" cy="615.594" r="5.097"/>
		<circle opacity="0.5" fill="#FFFFFF" cx="850.401" cy="491.517" r="2.549"/>
		<circle opacity="0.5" fill="#FFFFFF" cx="822.475" cy="531.51" r="2.549"/>
		<circle opacity="0.5" fill="#FFFFFF" cx="783.605" cy="673.213" r="2.549"/>
		<circle opacity="0.5" fill="#FFFFFF" cx="917.736" cy="449.148" r="2.549"/>
		<circle opacity="0.5" fill="#FFFFFF" cx="981.066" cy="604.333" r="2.549"/>
		<circle opacity="0.5" fill="#FFFFFF" cx="1109.431" cy="527.118" r="2.549"/>
		<circle opacity="0.5" fill="#FFFFFF" cx="1157.251" cy="509.2" r="2.549"/>
		<circle opacity="0.5" fill="#FFFFFF" cx="1185.647" cy="542.187" r="2.549"/>
		<circle opacity="0.5" fill="#FFFFFF" cx="1283.158" cy="605.927" r="2.549"/>
		<circle opacity="0.5" fill="#FFFFFF" cx="1385.485" cy="524.686" r="2.549"/>
		<circle opacity="0.5" fill="#FFFFFF" cx="1327.255" cy="593.422" r="2.549"/>
		<circle opacity="0.5" fill="#FFFFFF" cx="1015.276" cy="565.281" r="2.549"/>
		<circle opacity="0.5" fill="#FFFFFF" cx="974.954" cy="473.963" r="2.549"/>
		<circle opacity="0.5" fill="#FFFFFF" cx="643.906" cy="578.594" r="3.823"/>
		<circle opacity="0.5" fill="#FFFFFF" cx="895.906" cy="512.729" r="3.823"/>
		<circle opacity="0.5" fill="#FFFFFF" cx="978.063" cy="548.812" r="3.823"/>
		<circle opacity="0.5" fill="#FFFFFF" cx="1092.885" cy="597.539" r="3.823"/>
		<circle opacity="0.5" fill="#FFFFFF" cx="1257.25" cy="558.543" r="3.823"/>
		<circle opacity="0.5" fill="#FFFFFF" cx="993.843" cy="582.42" r="3.823"/>
		<circle opacity="0.5" fill="#FFFFFF" cx="855.136" cy="682.979" r="3.823"/>
		<circle opacity="0.5" fill="#FFFFFF" cx="686.284" cy="523.605" r="1.274"/>
		<circle opacity="0.5" fill="#FFFFFF" cx="979.406" cy="567.911" r="1.274"/>
		<circle opacity="0.5" fill="#FFFFFF" cx="1136.007" cy="518.522" r="1.274"/>
		<circle opacity="0.5" fill="#FFFFFF" cx="1117.734" cy="492.675" r="1.274"/>
		<circle opacity="0.5" fill="#FFFFFF" cx="1317.833" cy="604.445" r="1.274"/>
		<circle opacity="0.5" fill="#FFFFFF" cx="1345.433" cy="602.541" r="2.286"/>
		<circle opacity="0.5" fill="#FFFFFF" cx="1267.575" cy="662.221" r="2.286"/>
		<circle opacity="0.5" fill="#FFFFFF" cx="1437.66" cy="597.329" r="2.286"/>
		<path opacity="0.5" fill="#FFFFFF" d="M1440.249,599.773c1.35-1.43,1.284-3.683-0.145-5.033c-1.43-1.349-3.683-1.284-5.033,0.145
			c-0.604,0.64-0.909,1.445-0.95,2.26l-85.18,4.882c-0.112-0.766-0.457-1.503-1.064-2.076c-1.43-1.35-3.683-1.284-5.033,0.145
			c-0.106,0.112-0.187,0.237-0.276,0.358l-11.71-5.775c0.457-1.312,0.168-2.808-0.833-3.87
			c23.339-27.494,46.199-54.63,53.259-63.017c1.53,1.085,3.656,0.92,4.98-0.483c1.449-1.535,1.379-3.955-0.156-5.404
			c-1.535-1.449-3.955-1.379-5.404,0.156c-1.363,1.444-1.365,3.66-0.085,5.126c-14.958,17.778-34.519,40.953-53.274,63.043
			c-1.52-0.998-3.579-0.802-4.871,0.567c-0.157,0.166-0.288,0.347-0.41,0.532l-62.183-30.668c0.883-1.931,0.496-4.288-1.133-5.826
			c-1.533-1.447-3.727-1.758-5.543-0.963l-63.168-114.658c0.515-0.3,0.998-0.674,1.427-1.13c2.415-2.559,2.299-6.592-0.26-9.007
			c-2.559-2.415-6.591-2.299-9.007,0.26c-2.104,2.229-2.285,5.574-0.607,7.997l-64.205,53.411c-1.026-0.879-2.568-0.814-3.506,0.179
			c-0.966,1.024-0.92,2.637,0.104,3.603c0.213,0.201,0.455,0.348,0.708,0.462l-1.405,5.935c-2.196-0.598-4.642,0.001-6.313,1.772
			c-1.666,1.765-2.127,4.232-1.412,6.385l-47.052,35.55c-2.562-2.352-6.545-2.22-8.94,0.317c-1.562,1.655-2.058,3.924-1.527,5.975
			l-31.527,12.358c-0.172-0.279-0.368-0.546-0.617-0.781c-1.535-1.449-3.955-1.379-5.404,0.156c-0.177,0.188-0.331,0.39-0.463,0.601
			L982.901,550.4c0.595-1.818,0.143-3.895-1.34-5.295c-0.843-0.796-1.888-1.243-2.959-1.356l-3.334-65.991
			c0.907-0.075,1.792-0.458,2.466-1.172c1.449-1.535,1.379-3.955-0.156-5.404c-1.535-1.449-3.955-1.379-5.404,0.156
			c-0.073,0.077-0.125,0.166-0.19,0.247l-50.53-21.609c0.282-1.271-0.078-2.651-1.093-3.61c-1.535-1.449-3.955-1.379-5.404,0.156
			c-1.429,1.514-1.374,3.884,0.1,5.339l-42.273,49.933l-19.058-8.412c0.839-1.494,0.603-3.417-0.699-4.646
			c-1.535-1.449-3.955-1.379-5.404,0.156c-1.449,1.535-1.379,3.954,0.155,5.403l-23.491,33.863c-1.486-0.803-3.377-0.56-4.591,0.726
			c-1.449,1.535-1.379,3.955,0.156,5.404c0.037,0.035,0.08,0.058,0.119,0.091l-17.456,25.164c-1.704-0.922-3.728-1.009-5.487-0.273
			l-55.623-88.84c0.381-0.194,0.741-0.441,1.052-0.77c1.449-1.535,1.379-3.955-0.156-5.404c-1.535-1.449-3.955-1.379-5.404,0.156
			c-1.449,1.535-1.379,3.955,0.156,5.404c0.969,0.914,2.289,1.221,3.496,0.939l55.675,88.923c-0.492,0.294-0.954,0.654-1.367,1.091
			c-2.415,2.559-2.299,6.591,0.26,9.007c0.06,0.057,0.126,0.106,0.188,0.16l-26.019,37.508l-26.708-6.245
			c0.231-1.936-0.419-3.951-1.946-5.392c-1.981-1.87-4.842-2.216-7.155-1.093c-20.078-31.08-39.724-61.389-45.217-69.52
			c0.828-1.026,0.75-2.526-0.225-3.446c-1.024-0.966-2.637-0.919-3.603,0.104c-0.966,1.024-0.92,2.637,0.104,3.603
			c0.847,0.8,2.094,0.895,3.048,0.327c5.284,7.838,24.141,36.918,45.112,69.38c-0.382,0.258-0.743,0.557-1.072,0.906
			c-0.63,0.668-1.084,1.437-1.371,2.25l-81.303-19.01c0.224-1.582-0.294-3.244-1.544-4.424c-2.047-1.932-5.273-1.839-7.206,0.208
			c-1.932,2.047-1.839,5.273,0.208,7.206c2.047,1.932,5.273,1.839,7.206-0.208c0.531-0.563,0.904-1.216,1.13-1.906l81.272,19.003
			c-0.416,2.082,0.21,4.324,1.867,5.888c2.145,2.025,5.323,2.263,7.718,0.782c14.693,22.76,29.793,46.196,41.543,64.453
			c-0.108,0.091-0.221,0.172-0.319,0.277c-1.449,1.535-1.379,3.955,0.156,5.404c1.535,1.449,3.955,1.379,5.404-0.156
			c0.484-0.513,0.784-1.128,0.931-1.77l62.73,8.827c-0.023,1.382,0.508,2.768,1.592,3.791c2.047,1.932,5.273,1.839,7.206-0.208
			c1.932-2.047,1.839-5.273-0.208-7.206c-0.372-0.352-0.785-0.634-1.22-0.852l38.252-160.603c1.432,0.066,2.884-0.465,3.945-1.589
			c0.354-0.375,0.638-0.79,0.857-1.229l38.781,17.117c-0.582,2.187,0.022,4.615,1.783,6.278c2.265,2.138,5.681,2.288,8.112,0.522
			l28.117,27.621c-0.65,1.012-0.513,2.372,0.393,3.228c0.399,0.377,0.889,0.595,1.394,0.665l1.522,30.13
			c-0.844,0.11-1.658,0.483-2.287,1.149c-1.449,1.535-1.379,3.955,0.156,5.404c1.535,1.449,3.955,1.379,5.404-0.156
			c1.015-1.075,1.268-2.58,0.811-3.886l22.081-16.683c0.005,0.005,0.008,0.01,0.013,0.015c1.024,0.966,2.637,0.92,3.603-0.104
			c0.239-0.253,0.415-0.543,0.531-0.849l76.908,12.152c0.016,1.333,0.549,2.657,1.595,3.644c2.047,1.932,5.273,1.839,7.205-0.208
			c1.932-2.047,1.839-5.273-0.208-7.206c-0.56-0.529-1.21-0.9-1.896-1.127l14.627-61.795c1.118,0.093,2.266-0.289,3.096-1.169
			c0.698-0.739,1.034-1.683,1.034-2.626l20.3-7.957c0.116,0.449,0.349,0.874,0.712,1.217c1.024,0.966,2.637,0.92,3.603-0.104
			c0.201-0.213,0.348-0.455,0.461-0.708l43.708,21.42c-0.453,1.366-0.122,2.93,0.994,3.983c1.124,1.061,2.719,1.299,4.063,0.753
			c18.927,28.156,66.751,99.116,78.061,113.918c-0.052,0.049-0.111,0.087-0.161,0.139c-1.349,1.43-1.284,3.683,0.146,5.032
			c1.43,1.35,3.683,1.285,5.032-0.145c1.251-1.325,1.271-3.349,0.131-4.714c4.281-4.502,15.574-17.27,46.266-53.305
			c1,0.579,2.299,0.425,3.126-0.452c0.435-0.461,0.653-1.042,0.681-1.629l21.594-1.237c0.151,0.667,0.494,1.297,1.028,1.802
			c1.43,1.35,3.683,1.284,5.032-0.145c0.179-0.19,0.33-0.396,0.459-0.611l17.872,8.814c-0.964,2.365-0.448,5.18,1.521,7.039
			c2.559,2.415,6.591,2.299,9.007-0.26c2.415-2.559,2.299-6.591-0.26-9.007c-2.559-2.415-6.591-2.299-9.007,0.26
			c-0.34,0.36-0.624,0.751-0.864,1.161l-17.917-8.836c0.06-0.204,0.103-0.409,0.126-0.618l85.219-4.884
			c0.142,0.694,0.485,1.353,1.039,1.875C1436.646,601.268,1438.9,601.203,1440.249,599.773z M1138.539,518.669
			c0.027-0.466-0.073-0.931-0.299-1.351l15.74-6.17c0.177,0.298,0.382,0.583,0.646,0.832c1.535,1.449,3.955,1.379,5.404-0.156
			c0.084-0.089,0.145-0.189,0.218-0.284l92.152,45.448c-0.578,1.81-0.123,3.87,1.351,5.261c1.54,1.453,3.746,1.76,5.567,0.952
			l21.773,39.521c-0.254,0.164-0.497,0.35-0.714,0.58c-1.449,1.535-1.379,3.955,0.156,5.404c1.536,1.449,3.955,1.379,5.404-0.156
			c0.56-0.593,0.887-1.319,0.997-2.07l28.393-1.627c0.071,0.437,0.257,0.853,0.554,1.21c-21.474,25.207-39.918,46.617-46.211,53.3
			c-1.149-0.844-2.667-0.907-3.872-0.21c-9.859-13.072-52.729-76.4-77.921-113.868c0.194-0.14,0.379-0.296,0.549-0.476
			c1.449-1.535,1.379-3.955-0.156-5.404c-1.536-1.449-3.955-1.379-5.404,0.156c-0.178,0.189-0.332,0.391-0.464,0.603
			L1138.539,518.669z M1133.766,517.331c-0.149,0.28-0.244,0.579-0.281,0.886l-20.351,7.977c-0.17-0.686-0.526-1.335-1.078-1.857
			c-0.36-0.34-0.771-0.588-1.204-0.762l2.402-10.147c1.809,0.1,3.648-0.565,4.99-1.985c0.369-0.391,0.672-0.82,0.923-1.268
			L1133.766,517.331z M1011.042,584.565c0.002-0.416-0.1-0.827-0.299-1.203l40.233-30.399c0.246,0.353,0.531,0.686,0.856,0.993
			c2.559,2.415,6.592,2.299,9.007-0.26c1.713-1.815,2.146-4.369,1.344-6.564l44.458-17.427c0.058,0.063,0.104,0.133,0.167,0.192
			c0.421,0.397,0.91,0.669,1.425,0.839l-14.619,61.761c-1.585-0.228-3.252,0.29-4.435,1.543c-0.722,0.765-1.161,1.696-1.321,2.661
			L1011.042,584.565z M984.258,602.246c-0.161-0.247-0.344-0.482-0.568-0.693c-0.632-0.597-1.415-0.921-2.217-1.007l-1.523-30.147
			c0.306-0.066,0.599-0.193,0.867-0.372l9.198,9.036c-1.801,2.052-1.673,5.175,0.329,7.064c2.047,1.932,5.273,1.839,7.206-0.208
			c0.651-0.69,1.066-1.514,1.26-2.376l7.149,1.13c0.016,0.34,0.103,0.674,0.254,0.986L984.258,602.246z M949.834,538.332
			c0.069-0.067,0.14-0.128,0.207-0.198c0.276-0.293,0.516-0.607,0.726-0.934l22.489,9.926c-0.644,1.841-0.201,3.968,1.309,5.393
			c1.025,0.967,2.346,1.427,3.651,1.388l0.583,11.533c-0.328,0.08-0.64,0.229-0.921,0.44L949.834,538.332z M900.794,514.159
			c0.519-1.779,0.05-3.778-1.39-5.137c-0.428-0.404-0.909-0.714-1.418-0.942l3.748-15.738l38.454,37.775
			c-0.256,0.365-0.468,0.75-0.638,1.149L900.794,514.159z M796.019,570.485c2.119,1.38,4.86,1.363,6.958-0.014l2.909,4.646
			c-0.164,0.125-0.326,0.254-0.472,0.409c-1.449,1.535-1.379,3.955,0.156,5.404s3.955,1.379,5.404-0.156
			c1.295-1.372,1.368-3.445,0.276-4.906l61.785-72.98l18.12,7.998c-0.726,1.875-0.3,4.083,1.252,5.548
			c0.687,0.648,1.507,1.063,2.366,1.258l-38.204,160.397c-1.779-0.52-3.779-0.051-5.139,1.389c-0.687,0.728-1.113,1.605-1.291,2.52
			l-62.717-8.825c-0.01-1.002-0.406-1.999-1.193-2.742c-1.203-1.135-2.942-1.325-4.338-0.622
			c-5.837-9.068-23.219-36.065-41.559-64.475c0.193-0.161,0.381-0.332,0.558-0.519c0.753-0.798,1.26-1.739,1.523-2.73l27.261,6.374
			l0.174-0.251L796.019,570.485z M872.177,502.511l-61.555,72.709c-1.138-0.943-2.676-1.136-3.967-0.569l-2.958-4.724
			c0.146-0.129,0.289-0.263,0.425-0.407c2.415-2.559,2.299-6.591-0.26-9.007c-0.188-0.177-0.385-0.336-0.588-0.486l17.441-25.141
			c1.478,0.771,3.34,0.521,4.54-0.751c1.449-1.535,1.379-3.955-0.156-5.404c-0.023-0.022-0.051-0.036-0.075-0.057l23.48-33.847
			c1.498,0.86,3.44,0.628,4.677-0.684c0.003-0.003,0.005-0.007,0.008-0.011L872.177,502.511z M971.503,472.359
			c-0.674,1.452-0.4,3.225,0.827,4.384c0.585,0.552,1.298,0.881,2.037,0.995l3.335,65.996c-1.23,0.087-2.432,0.612-3.346,1.58
			c-0.29,0.307-0.528,0.643-0.727,0.994l-22.43-9.9c1.103-2.413,0.619-5.358-1.418-7.28c-2.559-2.415-6.592-2.299-9.007,0.26
			c-0.007,0.008-0.013,0.016-0.021,0.024l-39.524-38.826l-0.184,0.775l-3.912,16.425c-1.726-0.427-3.626,0.06-4.934,1.446
			c-0.25,0.265-0.465,0.55-0.647,0.85l-17.912-7.906l42.123-49.755c1.507,0.911,3.495,0.686,4.753-0.647
			c0.27-0.286,0.47-0.61,0.635-0.946L971.503,472.359z M1050.329,551.778c0.057,0.137,0.122,0.271,0.189,0.404l-40.327,30.469
			c-1.026-0.914-2.596-0.857-3.545,0.149c-0.272,0.289-0.455,0.626-0.568,0.981l-7.148-1.13c0.064-1.43-0.467-2.879-1.589-3.938
			c-1.871-1.766-4.723-1.835-6.676-0.272l-9.205-9.043c0.741-1.021,0.637-2.453-0.305-3.342c-0.416-0.393-0.931-0.61-1.459-0.67
			l-0.586-11.589c0.984-0.206,1.917-0.701,2.659-1.487c0.314-0.333,0.569-0.7,0.777-1.084l29.112,12.85
			c-0.454,1.367-0.123,2.932,0.994,3.985c1.535,1.449,3.955,1.379,5.404-0.156c0.994-1.053,1.256-2.518,0.838-3.805
			L1050.329,551.778z M1107.925,509.936c0.324,0.643,0.757,1.245,1.311,1.768c0.902,0.852,1.988,1.381,3.121,1.608l-2.374,10.029
			c-1.191-0.173-2.443,0.212-3.332,1.153c-1.169,1.238-1.332,3.044-0.554,4.459l-44.281,17.358c-0.192-0.357-0.42-0.698-0.684-1.02
			L1107.925,509.936z M1254.419,554.308c-0.312,0.209-0.607,0.451-0.876,0.736c-0.322,0.342-0.583,0.718-0.793,1.114l-92.031-45.388
			c0.653-1.445,0.374-3.2-0.845-4.35c-1.535-1.449-3.955-1.379-5.404,0.156c-0.98,1.038-1.249,2.476-0.856,3.75l-15.968,6.259
			c-0.963-0.815-2.365-0.796-3.307,0.026l-14.788-7.247c0.902-2.342,0.368-5.098-1.569-6.927c-0.555-0.523-1.181-0.921-1.842-1.207
			l1.426-6.024c0.732,0.048,1.479-0.207,2.021-0.782c0.781-0.827,0.889-2.034,0.366-2.979l64.206-53.412
			c0.098,0.106,0.193,0.212,0.299,0.312c1.873,1.767,4.532,2.173,6.771,1.265L1254.419,554.308z M1323.66,592.132
			c-0.466,1.303-0.189,2.793,0.791,3.861c-1.789,2.104-3.564,4.192-5.324,6.26c-1.002-0.592-2.314-0.44-3.147,0.442
			c-0.343,0.363-0.552,0.802-0.641,1.258l-28.389,1.627c-0.081-0.896-0.462-1.768-1.168-2.433c-1.074-1.013-2.575-1.267-3.879-0.814
			l-21.8-39.57c0.304-0.206,0.591-0.444,0.853-0.722c0.178-0.189,0.334-0.391,0.477-0.598L1323.66,592.132z M1342.125,601.239
			c-0.151,0.384-0.224,0.787-0.236,1.193l-21.639,1.24c-0.095-0.298-0.245-0.578-0.451-0.83c1.716-2.017,3.492-4.105,5.324-6.261
			c1.524,1.03,3.608,0.846,4.912-0.535c0.165-0.174,0.304-0.363,0.429-0.557L1342.125,601.239z"/>
		<circle opacity="0.5" fill="#FFFFFF" cx="1008.5" cy="584.55" r="1.274"/>
		<circle opacity="0.5" fill="#FFFFFF" cx="739.675" cy="467.039" r="2.549"/>
		<circle opacity="0.5" fill="#FFFFFF" cx="808.194" cy="578.151" r="2.549"/>
	</g>
</g>
</svg>
