<?xml version="1.0" encoding="utf-8"?>
<!-- Generator: Adobe Illustrator 17.0.0, SVG Export Plug-In . SVG Version: 6.00 Build 0)  -->
<!DOCTYPE svg PUBLIC "-//W3C//DTD SVG 1.1//EN" "http://www.w3.org/Graphics/SVG/1.1/DTD/svg11.dtd">
<svg version="1.1" id="Layer_1" xmlns="http://www.w3.org/2000/svg" xmlns:xlink="http://www.w3.org/1999/xlink" x="0px" y="0px"
	 width="64.799px" height="66.325px" viewBox="0 0 64.799 66.325" enable-background="new 0 0 64.799 66.325" xml:space="preserve">
<g>
	<g>
		<polygon fill="#CEEAEE" points="55.054,27.555 38.368,20.025 34.767,4.216 22.849,15.215 4.831,11.98 3.226,22.461 10.308,33.351 
			6.615,40.123 5.012,50.605 22.688,48.462 36.051,60.232 37.656,49.75 38.209,44.35 53.449,38.041 		"/>
		<path fill="#4A484A" d="M34.442,3.859c0,0-11.402,10.521-11.747,10.837c-0.457-0.082-18.266-3.279-18.266-3.279L2.722,22.572
			c0,0,6.726,10.34,7.027,10.798c-0.257,0.47-3.597,6.594-3.597,6.594L4.437,51.16c0,0,17.676-2.144,18.095-2.192
			c0.317,0.279,13.861,12.209,13.861,12.209l1.737-11.353c0,0,0.476-4.623,0.526-5.136c0.517-0.214,15.228-6.306,15.228-6.306
			l1.7-11.114c0,0-16.374-7.392-16.799-7.582c-0.105-0.452-3.734-16.389-3.734-16.389L34.442,3.859z M23.177,15.567
			c0,0,10.201-9.416,11.306-10.434c0.332,1.462,3.47,15.235,3.47,15.235s15.928,7.191,16.568,7.478
			c-0.098,0.656-1.432,9.36-1.509,9.851C52.528,37.9,37.76,44.015,37.76,44.015l-0.584,5.687c0,0-1.245,8.123-1.47,9.585
			c-1.196-1.05-12.863-11.328-12.863-11.328S6.755,49.908,5.583,50.05c0.17-1.102,1.471-9.613,1.495-9.772
			c0.081-0.146,3.791-6.947,3.791-6.947s-6.943-10.68-7.136-10.979c0.05-0.333,1.369-8.939,1.5-9.812
			c0.922,0.165,17.766,3.189,17.766,3.189L23.177,15.567z"/>
	</g>
	<g>
		<path fill="#4A484A" d="M6.766,17.007c-0.252-0.074-0.524,0.067-0.598,0.323l-1.969,6.631l0.69,1.06l2.2-7.418
			C7.169,17.349,7.022,17.082,6.766,17.007z"/>
		<path fill="#4A484A" d="M10.028,20.748c-0.265-0.039-0.51,0.144-0.547,0.407l-1.355,8.84l0.787,1.212l1.52-9.908
			C10.473,21.038,10.29,20.79,10.028,20.748z"/>
		<path fill="#4A484A" d="M7.403,21.976c-0.263-0.042-0.509,0.143-0.552,0.402l-0.699,4.581l0.788,1.214l0.866-5.648
			C7.847,22.262,7.662,22.016,7.403,21.976z"/>
		<path fill="#4A484A" d="M10.347,40.956c-0.262-0.041-0.511,0.142-0.552,0.405L8.448,50.19l0.994-0.121l1.309-8.563
			C10.792,41.243,10.61,40.994,10.347,40.956z"/>
		<path fill="#4A484A" d="M14.846,42.295c-0.264-0.034-0.508,0.154-0.541,0.418l-0.883,6.873l0.99-0.119l0.855-6.632
			C15.297,42.572,15.107,42.328,14.846,42.295z"/>
		<path fill="#4A484A" d="M19.951,40.801c-0.261-0.033-0.506,0.149-0.542,0.416l-1.025,7.767l0.991-0.121l0.992-7.521
			C20.402,41.079,20.215,40.836,19.951,40.801z"/>
		<path fill="#4A484A" d="M24.492,38.733c-0.268-0.031-0.507,0.154-0.538,0.42l-1.154,9.41l0.879,0.772l1.231-10.064
			C24.943,39.004,24.752,38.765,24.492,38.733z"/>
		<path fill="#4A484A" d="M29.851,44.105c-0.269-0.035-0.505,0.152-0.544,0.413l-1.149,8.764l0.873,0.77l1.234-9.406
			C30.299,44.38,30.113,44.138,29.851,44.105z"/>
		<path fill="#4A484A" d="M34.107,48.172c-0.261-0.04-0.506,0.143-0.545,0.405l-1.2,8.409l0.866,0.763l1.289-9.035
			C34.556,48.453,34.372,48.209,34.107,48.172z"/>
		<path fill="#4A484A" d="M44.949,34.876c-0.26-0.05-0.515,0.118-0.569,0.38l-1.428,7.13l1.073-0.443l1.302-6.502
			C45.378,35.181,45.209,34.928,44.949,34.876z"/>
		<path fill="#4A484A" d="M48.844,32.547c-0.262-0.032-0.505,0.157-0.534,0.419l-0.922,7.586l1.019-0.426l0.858-7.045
			C49.298,32.818,49.11,32.579,48.844,32.547z"/>
		<path fill="#4A484A" d="M51.826,30.239c-0.259-0.047-0.51,0.125-0.56,0.388l-1.66,9.004l1.062-0.438l1.55-8.392
			C52.263,30.541,52.091,30.288,51.826,30.239z"/>
	</g>
	<g>
		<polygon fill="#419CB6" points="37.656,49.75 24.292,37.98 6.615,40.123 14.15,26.31 4.831,11.98 22.849,15.215 34.767,4.216 
			38.368,20.025 55.054,27.555 39.261,34.099 		"/>
		<path fill="#4A484A" d="M34.442,3.859c0,0-11.402,10.521-11.747,10.837c-0.457-0.082-18.876-3.387-18.876-3.387
			s9.464,14.553,9.769,15.02c-0.265,0.487-7.846,14.388-7.846,14.388s17.976-2.179,18.394-2.232
			c0.317,0.278,13.9,12.246,13.9,12.246s1.618-15.745,1.674-16.296c0.513-0.211,16.556-6.857,16.556-6.857
			s-17.055-7.702-17.48-7.893c-0.105-0.452-3.734-16.389-3.734-16.389L34.442,3.859z M23.177,15.567c0,0,10.201-9.416,11.306-10.434
			c0.332,1.462,3.47,15.235,3.47,15.235S52.05,26.73,53.84,27.539c-1.799,0.745-15.029,6.224-15.029,6.224s-1.37,13.36-1.539,15.008
			c-1.262-1.113-12.822-11.294-12.822-11.294S9.155,39.328,7.487,39.532c0.794-1.452,7.222-13.244,7.222-13.244
			S6.903,14.283,5.847,12.65c1.929,0.348,17.152,3.08,17.152,3.08L23.177,15.567z"/>
	</g>
</g>
</svg>
