<?xml version="1.0" encoding="utf-8"?>
<!-- Generator: Adobe Illustrator 17.0.0, SVG Export Plug-In . SVG Version: 6.00 Build 0)  -->
<!DOCTYPE svg PUBLIC "-//W3C//DTD SVG 1.1//EN" "http://www.w3.org/Graphics/SVG/1.1/DTD/svg11.dtd">
<svg version="1.1" id="Layer_1" xmlns="http://www.w3.org/2000/svg" xmlns:xlink="http://www.w3.org/1999/xlink" x="0px" y="0px"
	 width="184.649px" height="131.68px" viewBox="0 0 184.649 131.68" enable-background="new 0 0 184.649 131.68"
	 xml:space="preserve">
<g>
	<g>
		<g>
			<path fill="#E8D8E8" d="M162.257,64.563c0,0,6.311,7.54,1.235,13.816c-5.075,6.277-13.71,6.673-17.279,7.538l4.295,5.623
				c0,0,12.067-2.243,18.046-10.295c5.979-8.051-2.219-19.087-2.219-19.087L162.257,64.563z"/>
			<path fill="#4A484A" d="M166.218,61.96l-4.077,2.407c-0.058,0.034-0.098,0.092-0.109,0.158c-0.011,0.066,0.007,0.135,0.05,0.186
				c0.062,0.074,6.129,7.469,1.232,13.523c-4.143,5.124-10.604,6.262-14.878,7.016l-2.277,0.442
				c-0.077,0.016-0.137,0.069-0.165,0.143c-0.028,0.073-0.01,0.156,0.037,0.219l4.294,5.623c0.053,0.069,0.139,0.102,0.225,0.086
				c0.121-0.022,12.224-2.352,18.187-10.383c6.01-8.094-2.137-19.248-2.22-19.36C166.448,61.927,166.319,61.9,166.218,61.96z
				 M150.603,91.286c-0.158-0.206-3.589-4.7-3.983-5.216c0.501-0.097,1.896-0.369,1.896-0.369
				c4.079-0.718,10.904-1.921,15.155-7.178c1.483-1.834,2.012-3.78,2.012-5.62c0-3.946-2.426-7.408-3.084-8.274
				c0.382-0.225,3.356-1.981,3.67-2.167c0.581,0.825,4.223,6.228,4.223,11.984c0,2.262-0.57,4.572-2.122,6.663
				C162.836,88.561,151.888,91.021,150.603,91.286z"/>
		</g>
		<g>
			<path fill="#4A484A" d="M164.097,67.504c0.068,0.139,0.133,0.28,0.198,0.425c1.213-0.339,2.95-0.883,4.443-1.586
				c-0.065-0.139-0.131-0.28-0.196-0.414C167.057,66.624,165.297,67.171,164.097,67.504z"/>
			<path fill="#4A484A" d="M165.302,71.087c1.435-0.142,3.208-0.441,4.803-1.049c-0.041-0.149-0.084-0.296-0.128-0.443
				c-1.566,0.598-3.337,0.892-4.765,1.032C165.245,70.778,165.273,70.932,165.302,71.087z"/>
			<path fill="#4A484A" d="M165.084,75.438c1.503,0.047,3.664-0.015,5.646-0.57c0.006-0.162,0.003-0.323,0.002-0.486
				c-1.9,0.55-4.022,0.631-5.522,0.594C165.173,75.129,165.133,75.283,165.084,75.438z"/>
			<path fill="#4A484A" d="M164.251,77.291c-0.076,0.129-0.159,0.258-0.245,0.388c0.935,0.582,3.186,1.868,5.363,2.282
				c0.077-0.141,0.154-0.283,0.224-0.425C167.476,79.167,165.184,77.865,164.251,77.291z"/>
			<path fill="#4A484A" d="M159.967,81.558c1.156,1.075,2.942,2.637,4.616,3.691c0.124-0.096,0.246-0.197,0.371-0.297
				c-1.617-1.002-3.409-2.56-4.591-3.655C160.234,81.388,160.099,81.471,159.967,81.558z"/>
			<path fill="#4A484A" d="M157.141,83.108c0.697,1.559,1.709,3.625,2.76,5.093c0.135-0.068,0.27-0.139,0.406-0.209
				c-1.024-1.42-2.044-3.504-2.746-5.078C157.421,82.981,157.28,83.045,157.141,83.108z"/>
			<path fill="#4A484A" d="M156.247,89.827c0.142-0.055,0.284-0.109,0.429-0.167c-0.833-1.692-1.752-3.724-2.494-5.453
				c-0.149,0.045-0.296,0.084-0.443,0.126C154.279,85.595,155.27,87.851,156.247,89.827z"/>
			<path fill="#4A484A" d="M152.517,91.055c0.144-0.04,0.292-0.081,0.448-0.127c-0.882-1.76-1.88-4.243-2.493-5.82
				c-0.154,0.03-0.307,0.06-0.458,0.088C150.616,86.75,151.615,89.241,152.517,91.055z"/>
		</g>
	</g>
	<g>
		<g>
			<path fill="#E8D8E8" d="M165.617,57.378c0.941,0.154,1.626-0.122,1.869-3.738c0.199-2.951-0.841-6.606-1.23-7.851
				c-0.006,0.002-0.016,0.003-0.022,0.004c-0.89,0.241-2.481,1.453-2.481,1.453s1.879,7.749,0.421,8.87
				C164.588,56.793,165.075,57.289,165.617,57.378z"/>
			<path fill="#4A484A" d="M166.172,45.572c-0.923,0.25-2.494,1.44-2.56,1.49c-0.073,0.053-0.106,0.148-0.084,0.237
				c0.713,2.941,1.48,7.885,0.503,8.635c-0.092,0.071-0.117,0.202-0.056,0.301c0.502,0.816,1.04,1.276,1.603,1.369l0,0
				c0.352,0.057,0.76,0.078,1.118-0.206c0.566-0.451,0.87-1.569,1.016-3.743c0.198-2.947-0.801-6.531-1.24-7.934
				C166.437,45.602,166.291,45.539,166.172,45.572z M165.654,57.152c-0.39-0.064-0.799-0.44-1.194-1.039
				c0.35-0.436,0.491-1.247,0.491-2.242c0-2.406-0.746-5.704-0.942-6.531c0.274-0.204,1.34-0.965,2.096-1.245
				c0.414,1.356,1.177,4.187,1.177,6.76c0,0.26-0.008,0.517-0.025,0.769c-0.131,1.95-0.407,3.067-0.844,3.414
				C166.235,57.181,166.021,57.212,165.654,57.152z"/>
		</g>
		<g>
			<path fill="#E8D8E8" d="M160.923,61.718c-4.001-5.047-5.428-12.066-5.84-14.68c-1.446,0.728-3.083,2.979-3.124,3.233
				c-0.049,0.303,0.64,15.504,11.764,15.62c1.97,0.02,3.492-0.5,4.667-1.374C166.097,65.267,163.32,64.742,160.923,61.718z"/>
			<path fill="#4A484A" d="M154.98,46.833c-1.509,0.76-3.193,3.058-3.248,3.402c-0.01,0.06,0.204,7.502,4.158,12.202
				c2.027,2.41,4.662,3.649,7.831,3.682c1.866,0.02,3.454-0.452,4.735-1.384c0.002-0.001,0.004-0.001,0.004-0.001h-0.002
				c0.021-0.015,0.049-0.019,0.069-0.035c0.059-0.045,0.092-0.112,0.092-0.183c0-0.036-0.008-0.073-0.025-0.106
				c-0.052-0.099-0.168-0.147-0.275-0.112c-1.5,0.491-4.432,0.79-7.216-2.723l0,0c-3.939-4.969-5.364-11.848-5.793-14.574
				c-0.011-0.073-0.057-0.135-0.121-0.168C155.123,46.8,155.046,46.8,154.98,46.833z M160.744,61.86L160.744,61.86
				c2.176,2.746,4.436,3.272,6.131,3.158c-0.938,0.393-1.961,0.656-3.149,0.643c-2.852-0.029-5.254-1.081-7.14-3.128
				c-4.137-4.485-4.404-12.159-4.404-12.211l0,0c0.09-0.274,1.468-2.098,2.738-2.891C155.412,50.382,156.884,56.992,160.744,61.86z"
				/>
		</g>
		<g>
			<path fill="#CFADCE" d="M170.326,45.842c0,0-3.155-0.285-4.071-0.053c0.389,1.244,1.429,4.899,1.23,7.851
				c-0.243,3.617-0.927,3.892-1.869,3.738c-0.542-0.088-1.028-0.585-1.444-1.262c-0.006,0.004-0.01,0.014-0.016,0.017
				c0,0-2.183-3.22-3.707-9.041c0,0-3.041-0.342-4.597-0.286c-0.241,0.009-0.503,0.098-0.769,0.233
				c0.412,2.614,1.839,9.633,5.84,14.68c2.397,3.024,5.174,3.55,7.467,2.799C173.857,60.45,171.668,48.545,170.326,45.842z"/>
			<path fill="#4A484A" d="M166.198,45.566c-0.061,0.015-0.113,0.056-0.143,0.11c-0.031,0.056-0.038,0.12-0.019,0.18
				c0.431,1.38,1.414,4.898,1.221,7.768c-0.131,1.95-0.407,3.067-0.844,3.414c-0.178,0.142-0.391,0.174-0.759,0.113
				c-0.419-0.069-0.865-0.468-1.308-1.147c-0.021-0.032-2.18-3.261-3.675-8.971c-0.024-0.091-0.102-0.159-0.196-0.17
				c-0.125-0.014-3.075-0.343-4.631-0.288l-0.864,0.257c-0.11,0.033-0.14,0.126-0.123,0.241c0.435,2.762,1.879,9.734,5.887,14.787
				c2.957,3.731,6.105,3.402,7.783,2.839c5.656-4.206,3.257-16.434,2.004-18.959c-0.035-0.071-0.106-0.118-0.185-0.125
				C170.217,45.602,167.142,45.327,166.198,45.566z M170.169,46.06c0.634,1.367,1.53,5.092,1.53,8.944
				c0,3.636-0.801,7.369-3.38,9.296c-1.5,0.491-4.432,0.79-7.216-2.723c-3.86-4.87-5.299-11.551-5.759-14.383
				c0.198-0.061,0.516-0.159,0.516-0.159c1.33-0.046,3.791,0.202,4.412,0.269c1.515,5.692,3.674,8.926,3.705,8.932
				c0.502,0.816,1.04,1.276,1.603,1.369c0.352,0.057,0.76,0.078,1.118-0.206c0.566-0.451,0.87-1.569,1.016-3.743
				c0.018-0.261,0.026-0.527,0.026-0.796c0-2.627-0.77-5.495-1.191-6.88C167.52,45.848,169.728,46.021,170.169,46.06z"/>
		</g>
	</g>
	<g>
		<path fill="#419CB6" d="M52.174,36.414c0,0-9.318-0.765-9.776,0.304c-0.458,1.071-5.194,10.234-3.666,11.456
			c1.528,1.223,9.47,2.903,9.47,2.903L52.174,36.414z"/>
		<path fill="#4A484A" d="M42.188,36.629l-0.405,0.859c-2.301,4.794-4.479,9.838-3.194,10.865c1.553,1.243,9.239,2.88,9.566,2.948
			c0.12,0.025,0.237-0.046,0.268-0.164l3.972-14.664c0.018-0.065,0.006-0.136-0.033-0.191c-0.04-0.056-0.101-0.092-0.17-0.097
			C49.969,36.002,42.673,35.496,42.188,36.629z M51.879,36.625c-0.139,0.514-3.733,13.782-3.841,14.183
			c-1.046-0.227-7.801-1.721-9.163-2.812c-0.16-0.127-0.24-0.376-0.24-0.745c0-1.421,1.191-4.625,3.56-9.563l0.413-0.878
			C42.823,36.313,46.959,36.237,51.879,36.625z"/>
	</g>
	<g>
		<path fill="#419CB6" d="M136.337,45.273c0,0,9.623,0.305,10.234,1.527c0.611,1.223,2.291,9.318,1.68,10.54
			c-0.61,1.222-9.317,1.987-9.317,1.987L136.337,45.273z"/>
		<path fill="#4A484A" d="M136.163,45.124c-0.045,0.051-0.065,0.123-0.051,0.19l2.596,14.053c0.022,0.116,0.128,0.198,0.245,0.186
			c1.475-0.129,8.866-0.84,9.503-2.111c0.675-1.351-1.127-9.638-1.681-10.745c-0.64-1.28-8.802-1.602-10.432-1.654
			C136.274,45.042,136.208,45.07,136.163,45.124z M139.121,59.077c-0.073-0.394-2.407-13.029-2.506-13.563
			c3.924,0.14,9.381,0.648,9.751,1.388c0.575,1.15,1.789,7.152,1.789,9.504c0,0.39-0.034,0.68-0.109,0.83
			C147.651,58.029,142.451,58.774,139.121,59.077z"/>
	</g>
	<g>
		<path fill="#69C3DD" d="M38.579,71.087c0,0,11.151-45.67,22.606-49.642c11.456-3.972,57.738,2.443,68.278,10.233
			c10.539,7.79,16.344,49.49,16.344,50.713C145.808,83.613,38.579,71.087,38.579,71.087z"/>
		<path fill="#4A484A" d="M61.11,21.228c-11.443,3.967-22.298,47.934-22.754,49.805c-0.015,0.064-0.002,0.131,0.035,0.185
			c0.037,0.054,0.096,0.089,0.161,0.097c17.722,2.07,106.188,12.342,107.397,11.266c0.049-0.044,0.087-0.125,0.087-0.19
			c0-1.919-5.967-43.159-16.437-50.897C118.506,23.293,72.218,17.378,61.11,21.228z M145.569,82.22
			c-3.025,0.541-70.755-7.132-106.704-11.331c0.884-3.532,11.607-45.487,22.397-49.228c11.038-3.827,57.04,2.051,68.066,10.201
			C139.49,39.374,145.358,78.975,145.569,82.22z"/>
	</g>
	<g>
		<path fill="#4A484A" d="M49.946,36.716c3.732,0.127,8.74,0.382,8.807,0.386l-0.023,0.457c-0.069-0.004-5.242-0.266-8.983-0.391
			C49.814,37.017,49.879,36.865,49.946,36.716z"/>
		<path fill="#4A484A" d="M48.008,41.311c3.687,0.131,8.389,0.37,8.454,0.373l-0.024,0.457c-0.066-0.002-4.908-0.248-8.611-0.378
			C47.887,41.612,47.947,41.461,48.008,41.311z"/>
		<path fill="#4A484A" d="M46.321,45.719c3.754,0.124,9.004,0.391,9.073,0.394L55.37,46.57c-0.07-0.003-5.459-0.276-9.215-0.398
			C46.211,46.021,46.265,45.871,46.321,45.719z"/>
		<path fill="#4A484A" d="M44.481,50.956c3.578,0.134,7.795,0.347,7.856,0.351l-0.023,0.457c-0.062-0.002-4.385-0.221-7.984-0.355
			C44.38,51.258,44.431,51.106,44.481,50.956z"/>
		<path fill="#4A484A" d="M48.495,56.193c-0.049-0.002-2.735-0.138-5.63-0.261c0.048-0.15,0.094-0.3,0.143-0.452
			c2.849,0.122,5.462,0.253,5.51,0.257L48.495,56.193z"/>
		<path fill="#4A484A" d="M41.759,59.552c3.288,0.133,6.704,0.306,6.759,0.31l-0.023,0.456c-0.057-0.002-3.552-0.179-6.872-0.313
			C41.668,59.854,41.713,59.705,41.759,59.552z"/>
	</g>
	<g>
		<path fill="#CEEAEE" d="M130.838,70.934c5.809-11.618,6.335-26.228,0.265-37.732c9.5,10.59,14.705,48.031,14.705,49.188
			c0,0.378-10.218-0.556-24.34-2.025C125.641,78.19,129.025,75.012,130.838,70.934z"/>
		<path fill="#4A484A" d="M130.971,33.014c-0.094,0.066-0.126,0.192-0.072,0.294c5.857,11.102,5.755,25.481-0.267,37.524
			c-0.002,0.002-0.003,0.005-0.005,0.009c-1.699,3.823-4.903,7.047-9.265,9.32c-0.091,0.046-0.139,0.147-0.119,0.247
			c0.019,0.099,0.1,0.174,0.202,0.185c23.946,2.491,24.31,2.162,24.506,1.987c0.048-0.044,0.085-0.126,0.085-0.19
			c0-1.629-5.36-38.859-14.762-49.341C131.196,32.963,131.067,32.948,130.971,33.014z M145.563,82.221
			c-0.705,0.121-5.44-0.151-23.401-2.015c4.138-2.299,7.224-5.442,8.884-9.175c3.088-6.178,4.634-12.963,4.634-19.616
			c0-5.767-1.229-11.401-3.555-16.487C140.571,46.797,145.413,79.707,145.563,82.221z M131.047,71.027
			c-0.001,0.002-0.003,0.007-0.004,0.01C131.045,71.033,131.046,71.031,131.047,71.027z"/>
	</g>
	<g>
		<path fill="#4A484A" d="M133.541,39.077l1.48,0.36c0.085,0.176,0.169,0.353,0.253,0.534l-1.565-0.381
			C133.656,39.419,133.595,39.249,133.541,39.077z"/>
		<path fill="#4A484A" d="M134.731,43.834l2.388,0.58c0.065,0.172,0.128,0.345,0.192,0.519l-2.485-0.603
			C134.798,44.163,134.762,44,134.731,43.834z"/>
		<path fill="#4A484A" d="M135.405,50.575l4.078,0.99c0.049,0.169,0.1,0.338,0.149,0.508l-4.22-1.026
			C135.41,50.89,135.409,50.733,135.405,50.575z"/>
		<path fill="#4A484A" d="M135.347,53.806l5.113,1.24c0.045,0.168,0.088,0.337,0.133,0.505l-5.266-1.278
			C135.338,54.117,135.338,53.961,135.347,53.806z"/>
		<path fill="#4A484A" d="M134.962,57.641l6.56,1.593c0.041,0.167,0.081,0.334,0.12,0.501l-6.751-1.639
			C134.915,57.945,134.941,57.794,134.962,57.641z"/>
		<path fill="#4A484A" d="M134.281,61.295l8.174,1.984c0.037,0.167,0.072,0.332,0.108,0.499l-8.377-2.034
			C134.222,61.596,134.247,61.444,134.281,61.295z"/>
		<path fill="#4A484A" d="M133.008,65.722l10.486,2.546c0.033,0.166,0.065,0.331,0.097,0.495l-10.729-2.604
			C132.914,66.014,132.958,65.867,133.008,65.722z"/>
		<path fill="#4A484A" d="M131.815,68.829l12.355,3c0.03,0.166,0.06,0.33,0.089,0.494l-12.641-3.069
			C131.682,69.111,131.754,68.973,131.815,68.829z"/>
		<path fill="#4A484A" d="M129.765,72.928l15.231,3.697c0.027,0.166,0.053,0.332,0.079,0.492l-15.57-3.781
			C129.593,73.201,129.68,73.066,129.765,72.928z"/>
		<path fill="#4A484A" d="M127.772,75.572l17.721,4.302c0.025,0.17,0.048,0.333,0.069,0.489l-18.148-4.406
			C127.536,75.83,127.654,75.703,127.772,75.572z"/>
	</g>
	<g>
		<g>
			<path fill="#E8D8E8" d="M23.743,57.183c0,0-7.444,6.422-3.446,13.436c3.997,7.013,12.455,8.796,15.837,10.224l-5.145,4.858
				c0,0-11.547-4.16-16.149-13.07c-4.603-8.91,5.268-18.48,5.268-18.48L23.743,57.183z"/>
			<path fill="#4A484A" d="M19.949,53.987c-0.1,0.097-9.94,9.793-5.312,18.75c4.589,8.888,16.158,13.139,16.275,13.18
				c0.081,0.029,0.173,0.011,0.235-0.049l5.145-4.858c0.057-0.054,0.088-0.133,0.072-0.211c-0.015-0.077-0.065-0.139-0.139-0.166
				l-2.175-0.804c-4.098-1.433-10.29-3.598-13.554-9.324C16.64,63.74,23.82,57.42,23.893,57.357c0.051-0.044,0.08-0.108,0.08-0.175
				c-0.001-0.067-0.03-0.131-0.082-0.174l-3.636-3.033C20.165,53.901,20.032,53.906,19.949,53.987z M23.396,57.192
				c-0.865,0.818-4.498,4.53-4.498,9.138c0,1.405,0.339,2.891,1.2,4.402c3.349,5.874,9.891,8.162,13.8,9.53
				c0,0,1.333,0.492,1.811,0.668c-0.472,0.445-4.584,4.328-4.772,4.507c-1.225-0.471-11.633-4.663-15.893-12.911
				c-0.843-1.633-1.186-3.296-1.186-4.917c0-6.555,5.529-12.396,6.267-13.145C20.405,54.697,23.056,56.909,23.396,57.192z"/>
		</g>
		<g>
			<path fill="#4A484A" d="M21.454,59.79c-0.089,0.125-0.177,0.254-0.265,0.386c-1.142-0.529-2.769-1.347-4.129-2.281
				c0.087-0.127,0.174-0.255,0.26-0.378C18.674,58.444,20.322,59.268,21.454,59.79z"/>
			<path fill="#4A484A" d="M19.687,63.13c-1.395-0.371-3.096-0.953-4.572-1.81c0.065-0.139,0.131-0.279,0.198-0.417
				c1.449,0.844,3.15,1.419,4.537,1.788C19.793,62.835,19.74,62.983,19.687,63.13z"/>
			<path fill="#4A484A" d="M19.201,67.46c-1.49-0.196-3.613-0.605-5.481-1.473c0.021-0.161,0.05-0.32,0.077-0.48
				c1.786,0.85,3.868,1.271,5.353,1.475C19.163,67.141,19.177,67.299,19.201,67.46z"/>
			<path fill="#4A484A" d="M19.724,69.422c0.055,0.141,0.116,0.282,0.181,0.424c-1.017,0.423-3.447,1.33-5.662,1.388
				c-0.053-0.152-0.106-0.304-0.152-0.456C16.238,70.754,18.71,69.838,19.724,69.422z"/>
			<path fill="#4A484A" d="M23.263,74.324c-1.314,0.876-3.328,2.129-5.152,2.9c-0.106-0.116-0.211-0.236-0.317-0.354
				c1.757-0.729,3.776-1.976,5.12-2.867C23.028,74.115,23.147,74.217,23.263,74.324z"/>
			<path fill="#4A484A" d="M25.803,76.311c-0.939,1.425-2.271,3.301-3.545,4.581c-0.122-0.09-0.245-0.18-0.366-0.272
				c1.239-1.236,2.582-3.129,3.528-4.568C25.547,76.14,25.675,76.226,25.803,76.311z"/>
			<path fill="#4A484A" d="M25.602,83.084c-0.131-0.076-0.263-0.153-0.397-0.233c1.096-1.537,2.329-3.394,3.341-4.98
				c0.14,0.068,0.279,0.131,0.417,0.195C28.226,79.226,26.885,81.294,25.602,83.084z"/>
			<path fill="#4A484A" d="M29.085,84.899c-0.136-0.063-0.276-0.127-0.423-0.198c1.154-1.592,2.54-3.882,3.399-5.341
				c0.148,0.055,0.294,0.108,0.439,0.162C31.656,80.958,30.269,83.254,29.085,84.899z"/>
		</g>
	</g>
	<g>
		<path fill="#419CB6" d="M23.763,107.594c-1.177-1.412,10.233-36.506,12.983-37.728c2.749-1.223,109.672,10.538,111.2,12.525
			c1.528,1.986,9.776,26.119,8.554,26.577C155.277,109.426,24.528,108.51,23.763,107.594z"/>
		<path fill="#4A484A" d="M36.653,69.656c-2.375,1.055-10.566,25.299-12.673,34.346c-0.766,3.29-0.514,3.593-0.393,3.738l0,0
			c0.394,0.473,22.725,0.906,66.37,1.285c26.424,0.229,65.872,0.439,66.623,0.158c0.077-0.029,0.182-0.102,0.233-0.283
			c0.589-2.062-7.124-24.618-8.686-26.65c-1.118-1.453-46.261-6.547-55.298-7.553C66.825,71.801,38.153,68.988,36.653,69.656z
			 M23.936,107.406c-0.023-0.057-0.04-0.132-0.04-0.26c0-1.337,1.256-6.49,3.903-14.752c3.897-12.165,7.783-21.761,9.041-22.319
			c3.025-1.345,108.774,10.536,110.925,12.455c1.753,2.278,9.23,25.106,8.67,26.219C153.409,109.412,26.847,108.123,23.936,107.406z
			"/>
	</g>
	<g>
		<path fill="#69C3DD" d="M131.613,79.598c9.561,1.282,15.967,2.317,16.333,2.793c1.528,1.986,9.776,26.119,8.554,26.577
			c-0.532,0.199-25.561,0.139-53.74-0.068C117.574,104.692,130.176,95.957,131.613,79.598z"/>
		<path fill="#4A484A" d="M131.47,79.418c-0.049,0.04-0.08,0.097-0.085,0.159c-1.559,17.762-16.462,25.63-28.688,29.102
			c-0.109,0.032-0.18,0.138-0.165,0.252c0.015,0.113,0.112,0.197,0.225,0.198c19.658,0.144,53.115,0.319,53.823,0.055
			c0.077-0.029,0.182-0.102,0.233-0.283c0.589-2.062-7.124-24.618-8.686-26.65c-0.172-0.224-0.574-0.746-16.483-2.88
			C131.582,79.362,131.519,79.379,131.47,79.418z M104.268,108.681c12.009-3.698,25.909-11.669,27.54-28.825
			c13.751,1.849,15.749,2.492,15.955,2.674c1.69,2.198,8.701,23.494,8.701,26.017c0,0.093-0.01,0.161-0.03,0.202
			C155.65,108.921,133.326,108.89,104.268,108.681z"/>
	</g>
	<g>
		<path fill="#4A484A" d="M131.145,82.92c6.174,0.625,13.203,1.343,17.944,1.843c0.063,0.15,0.13,0.317,0.196,0.48
			c-4.577-0.481-11.544-1.194-18.234-1.872C131.082,83.221,131.115,83.072,131.145,82.92z"/>
		<path fill="#4A484A" d="M129.806,87.688c7.421,0.75,16.44,1.671,21.239,2.187c0.057,0.159,0.115,0.316,0.173,0.478
			c-4.552-0.487-13.403-1.393-21.58-2.222C129.696,87.985,129.749,87.835,129.806,87.688z"/>
		<path fill="#4A484A" d="M128.28,91.047c8.367,0.847,19.478,1.978,24.053,2.481c0.055,0.159,0.109,0.318,0.163,0.477
			c-4.213-0.463-15.021-1.567-24.45-2.521C128.127,91.339,128.202,91.192,128.28,91.047z"/>
		<path fill="#4A484A" d="M125.372,95.426c9.33,0.886,23.897,2.276,28.515,2.765c0.05,0.159,0.102,0.318,0.152,0.474
			c-4.079-0.433-17.9-1.757-29.013-2.811C125.145,95.713,125.257,95.568,125.372,95.426z"/>
		<path fill="#4A484A" d="M120.212,100.494c10.841,0.537,27.208,1.352,34.936,1.771c0.046,0.157,0.092,0.312,0.137,0.465
			c-7.274-0.393-22.867-1.174-35.64-1.805C119.835,100.783,120.026,100.641,120.212,100.494z"/>
		<path fill="#4A484A" d="M114.627,104.154c9.672,0.476,32.567,1.608,41.605,2.102c0.038,0.161,0.073,0.315,0.106,0.464
			c-8.205-0.447-28.777-1.471-42.503-2.146C114.101,104.435,114.366,104.297,114.627,104.154z"/>
	</g>
	<g>
		<path fill="#4A484A" d="M35.089,72.294c3.76,0.123,9.084,0.394,9.153,0.397l-0.023,0.456c-0.071-0.003-5.595-0.283-9.355-0.402
			C34.942,72.585,35.015,72.443,35.089,72.294z"/>
		<path fill="#4A484A" d="M33.065,76.886c3.739,0.127,8.819,0.385,8.886,0.389l-0.023,0.456c-0.069-0.004-5.301-0.268-9.046-0.394
			C32.943,77.183,33.003,77.037,33.065,76.886z"/>
		<path fill="#4A484A" d="M31.368,81.294c3.769,0.119,9.443,0.405,9.515,0.409l-0.024,0.457c-0.072-0.004-5.901-0.299-9.658-0.413
			C31.256,81.596,31.312,81.447,31.368,81.294z"/>
		<path fill="#4A484A" d="M29.506,86.529c3.667,0.132,8.257,0.365,8.321,0.369l-0.023,0.456c-0.065-0.002-4.773-0.241-8.455-0.372
			C29.401,86.829,29.453,86.68,29.506,86.529z"/>
		<path fill="#4A484A" d="M33.985,91.784c-0.052-0.003-3.057-0.154-6.138-0.283c0.048-0.15,0.097-0.302,0.147-0.453
			c3.039,0.127,5.963,0.276,6.014,0.279L33.985,91.784z"/>
		<path fill="#4A484A" d="M26.702,95.12c3.445,0.135,7.247,0.328,7.306,0.331l-0.023,0.457c-0.059-0.004-3.95-0.2-7.422-0.335
			C26.608,95.423,26.655,95.273,26.702,95.12z"/>
	</g>
	<g>
		<g>
			<path fill="#E8D8E8" d="M21.587,49.55c-0.954,0-1.585-0.382-1.241-3.991c0.28-2.944,1.895-6.384,2.48-7.55
				c0.006,0.003,0.015,0.006,0.022,0.009c0.84,0.382,2.214,1.833,2.214,1.833s-3.104,7.346-1.845,8.687
				C22.695,49.139,22.135,49.55,21.587,49.55z"/>
			<path fill="#4A484A" d="M22.62,37.907c-0.66,1.315-2.223,4.692-2.503,7.631c-0.206,2.168-0.087,3.322,0.399,3.857
				c0.308,0.339,0.715,0.384,1.071,0.384c0.569,0,1.176-0.368,1.803-1.091c0.076-0.089,0.073-0.221-0.006-0.308
				c-0.843-0.897,0.711-5.653,1.889-8.441c0.035-0.083,0.018-0.179-0.045-0.246c-0.057-0.061-1.416-1.489-2.285-1.885
				C22.829,37.758,22.676,37.797,22.62,37.907z M24.791,39.903c-0.38,0.911-2.095,5.15-2.095,7.497c0,0.456,0.089,0.809,0.244,1.081
				c-0.49,0.534-0.957,0.84-1.353,0.84c-0.374,0-0.578-0.065-0.731-0.233c-0.251-0.276-0.375-0.878-0.375-1.827
				c0-0.474,0.032-1.032,0.093-1.68c0.26-2.739,1.661-5.846,2.35-7.244C23.625,38.736,24.554,39.659,24.791,39.903z"/>
		</g>
		<g>
			<path fill="#E8D8E8" d="M25.519,54.59c4.762-4.335,7.302-11.034,8.13-13.546c1.309,0.952,2.562,3.437,2.562,3.695
				c0,0.306-3.131,15.198-14.129,13.518c-1.946-0.297-3.365-1.056-4.384-2.108C19.84,57.258,22.666,57.188,25.519,54.59z"/>
			<path fill="#4A484A" d="M33.579,40.825c-0.069,0.023-0.124,0.077-0.147,0.147c-0.863,2.622-3.378,9.181-8.066,13.449l0,0
				c-3.316,3.018-6.16,2.25-7.561,1.524c-0.1-0.052-0.222-0.023-0.289,0.066c-0.03,0.041-0.045,0.09-0.045,0.137
				c0,0.058,0.021,0.116,0.065,0.159c0.018,0.019,0.045,0.027,0.062,0.045c-0.001-0.001-0.002,0-0.003-0.001
				c0.002,0.001,0.003,0.002,0.005,0.002c1.114,1.126,2.605,1.848,4.449,2.13c3.134,0.478,5.933-0.32,8.323-2.371
				c4.661-4.003,6.071-11.311,6.071-11.373c0-0.347-1.293-2.888-2.657-3.88C33.725,40.815,33.648,40.804,33.579,40.825z
				 M22.117,58.03c-1.18-0.181-2.145-0.61-3.01-1.153c1.655,0.387,3.971,0.245,6.566-2.117l0,0
				c4.594-4.183,7.112-10.468,8.074-13.302c1.125,0.986,2.191,3.009,2.235,3.268c-0.006,0.069-1.506,7.606-6.315,11.368
				C27.476,57.809,24.936,58.46,22.117,58.03z"/>
		</g>
		<g>
			<path fill="#CFADCE" d="M18.798,37.406c0,0,3.159,0.227,4.027,0.603c-0.585,1.166-2.2,4.606-2.48,7.55
				c-0.344,3.609,0.287,3.991,1.241,3.991c0.549,0,1.109-0.411,1.629-1.012c0.005,0.006,0.007,0.014,0.012,0.02
				c0,0,2.674-2.826,5.118-8.325c0,0,3.055,0.152,4.582,0.458c0.237,0.048,0.48,0.177,0.722,0.353
				c-0.828,2.513-3.368,9.211-8.13,13.546c-2.853,2.599-5.679,2.669-7.821,1.558C12.959,51.254,17.039,39.858,18.798,37.406z"/>
			<path fill="#4A484A" d="M18.612,37.272c-1.643,2.29-5.981,13.972-1.019,19.079c1.506,0.781,4.56,1.614,8.08-1.591
				c4.769-4.342,7.319-10.989,8.193-13.645c0.036-0.11,0.021-0.207-0.082-0.257l-0.812-0.392c-1.525-0.305-4.49-0.456-4.616-0.463
				c-0.095-0.004-0.182,0.05-0.221,0.136c-2.397,5.393-5.048,8.232-5.094,8.248c-0.528,0.61-1.032,0.934-1.455,0.934
				c-0.374,0-0.578-0.065-0.731-0.233c-0.375-0.413-0.468-1.56-0.282-3.507c0.272-2.861,1.809-6.175,2.457-7.469
				c0.028-0.057,0.033-0.12,0.011-0.181c-0.021-0.059-0.067-0.106-0.125-0.131c-0.893-0.389-3.971-0.612-4.102-0.622
				C18.736,37.173,18.659,37.208,18.612,37.272z M22.507,38.148c-0.703,1.429-2.123,4.585-2.39,7.39
				c-0.065,0.674-0.096,1.249-0.096,1.74c0,1.087,0.161,1.749,0.495,2.117c0.308,0.339,0.715,0.384,1.071,0.384
				c0.569,0,1.176-0.368,1.808-1.064c0.027-0.029,2.679-2.873,5.092-8.245c0.631,0.034,3.096,0.185,4.397,0.445
				c0,0,0.311,0.154,0.484,0.241c-0.911,2.721-3.408,9.081-8.003,13.265c-3.315,3.018-6.16,2.25-7.502,1.568
				c-1.59-1.642-2.163-4.017-2.163-6.531c0-4.862,2.139-10.221,3.22-11.811C19.477,37.69,21.603,37.874,22.507,38.148z"/>
		</g>
	</g>
	<g>
		<path fill="#419CB6" d="M130.227,59.937c1.305-1.305,0.458-13.289-3.055-15.274c-3.512-1.986-41.241-13.29-49.031-10.846
			c-7.79,2.445-12.829,15.275-10.386,17.261C70.197,53.063,128.547,61.617,130.227,59.937z"/>
		<path fill="#4A484A" d="M78.072,33.598c-5.778,1.812-10.098,9.272-10.996,13.959c-0.349,1.822-0.159,3.135,0.534,3.698
			c1.329,1.081,17.331,3.791,31.635,5.854c4.981,0.718,29.898,4.236,31.145,2.99c0.787-0.787,0.778-4.386,0.372-7.373
			c-0.28-2.052-1.179-6.964-3.477-8.264C123.823,42.505,85.957,31.124,78.072,33.598z M130.066,59.772
			c-1.692,1.358-59.78-6.933-62.167-8.873c-0.547-0.445-0.683-1.631-0.371-3.257c0.875-4.573,5.075-11.848,10.683-13.607
			c7.808-2.45,45.408,8.881,48.85,10.826c1.471,0.831,2.685,3.794,3.248,7.925c0.189,1.381,0.27,2.667,0.27,3.754
			C130.577,58.249,130.376,59.461,130.066,59.772z"/>
	</g>
	<g>
		<circle fill="#CFADCE" cx="118.16" cy="50.466" r="2.902"/>
		<path fill="#4A484A" d="M118.16,47.335c-1.726,0-3.132,1.405-3.132,3.131c0,1.726,1.405,3.132,3.132,3.132
			s3.132-1.405,3.132-3.132C121.292,48.74,119.887,47.335,118.16,47.335z M118.16,53.14c-1.475,0-2.673-1.199-2.673-2.673
			c0-1.474,1.199-2.673,2.673-2.673c1.474,0,2.673,1.2,2.673,2.673C120.834,51.941,119.634,53.14,118.16,53.14z"/>
	</g>
	<g>
		<circle fill="#CFADCE" cx="82.418" cy="44.204" r="2.902"/>
		<path fill="#4A484A" d="M82.417,41.073c-1.726,0-3.132,1.404-3.132,3.131c0,1.725,1.405,3.131,3.132,3.131
			c1.727,0,3.132-1.405,3.132-3.131C85.55,42.477,84.144,41.073,82.417,41.073z M82.417,46.877c-1.474,0-2.673-1.2-2.673-2.673
			c0-1.475,1.199-2.673,2.673-2.673c1.475,0,2.673,1.199,2.673,2.673C85.091,45.677,83.892,46.877,82.417,46.877z"/>
	</g>
	<g>
		<path fill="#FFFFFF" d="M87.61,62.839c0.611-0.764,23.064,1.527,23.37,2.597c0.306,1.069,0,8.095-0.763,8.248
			c-0.764,0.153-22.911-1.375-23.675-2.138C85.777,70.782,86.999,63.603,87.61,62.839z"/>
		<path fill="#4A484A" d="M87.431,62.696c-0.489,0.611-1.352,4.975-1.352,7.43c0,0.78,0.087,1.369,0.3,1.581
			c0.981,0.981,23.702,2.238,23.882,2.201l0.319-0.257c0.699-1.148,0.884-7.353,0.62-8.279c-0.062-0.215-0.278-0.441-2.221-0.83
			C104.351,63.614,88.101,61.859,87.431,62.696z M86.704,71.384c-0.125-0.126-0.178-0.521-0.178-1.078
			c0-2.144,0.785-6.666,1.253-7.302c1.368-0.69,22.131,1.592,22.982,2.493c0.312,1.093-0.057,7.558-0.587,7.961
			C109.065,73.642,87.603,72.024,86.704,71.384z M87.431,62.696L87.431,62.696L87.431,62.696L87.431,62.696z"/>
	</g>
	<g>
		<path fill="#69C3DD" d="M110.256,65.081c0.432,0.127,0.694,0.247,0.724,0.354c0.306,1.069,0,8.095-0.763,8.248
			c-0.232,0.046-2.441-0.063-5.419-0.258C107.381,71.539,109.161,68.572,110.256,65.081z"/>
		<path fill="#4A484A" d="M110.038,65.013c-1.162,3.704-2.971,6.473-5.375,8.229c-0.077,0.057-0.112,0.156-0.084,0.249
			c0.026,0.092,0.109,0.158,0.205,0.165c1.529,0.1,5.122,0.325,5.478,0.253l0.319-0.257c0.699-1.149,0.884-7.353,0.62-8.279
			c-0.057-0.201-0.296-0.339-0.88-0.512C110.201,64.826,110.076,64.893,110.038,65.013z M110.761,65.502
			c0.079,0.278,0.114,0.899,0.114,1.68c0,2.3-0.307,5.977-0.702,6.276c-0.182,0.03-1.772-0.033-4.812-0.226
			c2.211-1.782,3.91-4.41,5.031-7.863C110.645,65.457,110.758,65.515,110.761,65.502z"/>
	</g>
	<g>
		<path fill="#69C3DD" d="M87.61,62.839c0.074-0.092,0.475-0.139,1.107-0.149c0.257,3.67,2.033,7.865,5.074,9.873
			c-3.872-0.362-6.973-0.74-7.25-1.017C85.777,70.782,86.999,63.603,87.61,62.839z"/>
		<path fill="#4A484A" d="M88.714,62.46c-1.023,0.018-1.19,0.121-1.282,0.235l-0.001,0.001c-0.644,0.808-1.938,8.125-1.052,9.011
			c0.13,0.13,0.433,0.433,7.391,1.084c0.105,0.01,0.202-0.053,0.237-0.152c0.035-0.1-0.002-0.209-0.089-0.268
			c-3.108-2.053-4.737-6.35-4.973-9.698C88.938,62.552,88.836,62.459,88.714,62.46z M93.04,72.259
			c-5.415-0.525-6.237-0.806-6.336-0.875c-0.125-0.126-0.178-0.521-0.178-1.078c0-2.146,0.787-6.673,1.254-7.303
			c0.043-0.018,0.219-0.058,0.736-0.077C88.791,66.113,90.282,70.037,93.04,72.259z"/>
	</g>
</g>
</svg>
