<?xml version="1.0" encoding="utf-8"?>
<!-- Generator: Adobe Illustrator 17.0.0, SVG Export Plug-In . SVG Version: 6.00 Build 0)  -->
<!DOCTYPE svg PUBLIC "-//W3C//DTD SVG 1.1//EN" "http://www.w3.org/Graphics/SVG/1.1/DTD/svg11.dtd">
<svg version="1.1" id="Layer_1" xmlns="http://www.w3.org/2000/svg" xmlns:xlink="http://www.w3.org/1999/xlink" x="0px" y="0px"
	 width="248.824px" height="307.18px" viewBox="0 0 248.824 307.18" enable-background="new 0 0 248.824 307.18"
	 xml:space="preserve">
<g>
	<g>
		<g>
			<path fill="#F69C9C" d="M83.038,254.969c-1.712-6.182-4.267-8.273-5.476-8.941c-0.621,0.604-1.035,1.247-1.068,1.883
				c-0.128,2.437,3.721,26.432,5.39,28.101c0.244,0.244,0.838,0.395,1.67,0.47C87.106,273.004,84.943,261.85,83.038,254.969z"/>
			<path fill="#4A484A" d="M77.293,245.753c-0.75,0.728-1.148,1.449-1.184,2.139c-0.119,2.282,3.703,26.594,5.502,28.393
				c0.307,0.308,0.913,0.493,1.908,0.581c0.113,0.011,0.224-0.028,0.304-0.107c4.011-3.928,1.047-16.617-0.414-21.893l0,0
				c-1.719-6.209-4.285-8.413-5.661-9.173C77.599,245.609,77.415,245.634,77.293,245.753z M82.155,275.74
				c-1.47-1.47-5.28-24.671-5.28-27.681c0-0.048,0.001-0.09,0.003-0.127c0.022-0.418,0.312-0.901,0.766-1.397
				c1.147,0.731,3.444,2.835,5.024,8.538l0,0c0.727,2.626,2.404,9.266,2.404,14.59c0,2.724-0.455,5.08-1.684,6.403
				C82.522,275.959,82.209,275.793,82.155,275.74z"/>
		</g>
		<g>
			<path fill="#D25C58" d="M84.321,242.908c-1.518,0-4.996,1.403-6.759,3.121c1.209,0.668,3.764,2.758,5.476,8.941
				c1.906,6.881,4.068,18.035,0.516,21.513c4.852,0.432,18.007-1.82,19.759-4.447C105.365,268.956,101.13,242.908,84.321,242.908z"
				/>
			<path fill="#4A484A" d="M77.293,245.753c-0.088,0.084-0.13,0.205-0.113,0.326c0.016,0.122,0.088,0.226,0.195,0.285
				c1.023,0.567,3.586,2.546,5.292,8.708c1.111,4.012,4.44,17.392,0.618,21.135c-0.108,0.106-0.144,0.264-0.093,0.406
				c0.05,0.14,0.178,0.24,0.327,0.253c4.793,0.43,18.189-1.731,20.113-4.617c1.368-2.05,0.208-11.552-3.748-18.942
				c-2.633-4.919-7.47-10.782-15.564-10.782C82.651,242.524,79.079,244.012,77.293,245.753z M84.321,243.293
				c7.712,0,12.351,5.641,14.884,10.377c4.017,7.502,4.883,16.506,3.786,18.151c-1.556,2.335-13.409,4.513-18.713,4.306
				c1.111-1.53,1.562-3.863,1.562-6.539c0-5.158-1.513-11.404-2.432-14.722c-1.559-5.629-3.772-7.891-5.205-8.844
				C80.033,244.454,83.064,243.293,84.321,243.293z"/>
		</g>
	</g>
	<g>
		<path fill="#CBCBCB" d="M97.858,184.268c0,0,2.695,19.055-1.155,35.415c-3.849,16.359-16.168,23.481-16.168,25.598
			c0,2.117,3.85,6.736,10.201,4.427c6.351-2.31,14.628-19.633,16.937-27.909c2.31-8.275,1.925-35.414,1.925-35.414
			S105.557,181.957,97.858,184.268z"/>
		<path fill="#4A484A" d="M97.748,183.898c-0.182,0.055-0.297,0.234-0.271,0.423c0.027,0.19,2.64,19.174-1.148,35.273
			c-2.703,11.486-9.689,18.444-13.442,22.184c-1.764,1.759-2.736,2.726-2.736,3.502c0,1.048,0.828,2.757,2.647,4.03
			c1.296,0.909,4.069,2.214,8.071,0.757c6.432-2.338,14.776-19.566,17.176-28.165c2.299-8.236,1.955-34.414,1.939-35.525
			c-0.001-0.094-0.037-0.183-0.101-0.253C109.712,185.937,105.588,181.545,97.748,183.898z M109.217,186.552
			c0.005,0.387,0.02,1.829,0.02,4.037c0,7.949-0.211,24.937-1.933,31.107c-2.301,8.246-10.595,25.432-16.699,27.651
			c-3.674,1.336-6.192,0.157-7.367-0.666c-1.505-1.053-2.317-2.539-2.317-3.4c0-0.456,1.163-1.615,2.509-2.956
			c3.807-3.793,10.895-10.853,13.648-22.555c1.604-6.815,2.071-14.139,2.071-20.354c0-7.503-0.68-13.395-0.864-14.851
			C105.154,182.649,108.806,186.129,109.217,186.552z"/>
	</g>
	<g>
		<path fill="#4A484A" d="M98.45,190.312c0.019,0.262,0.037,0.526,0.055,0.8c2.902,0.427,7.045,0.837,11.117,0.577
			c0.001-0.27,0.002-0.534,0.002-0.787C105.539,191.158,101.335,190.736,98.45,190.312z"/>
		<path fill="#4A484A" d="M98.714,195.509c0.007,0.264,0.015,0.527,0.021,0.796c3.058,0.385,7.039,0.676,10.85,0.311
			c0.004-0.268,0.007-0.53,0.009-0.792C105.795,196.189,101.772,195.896,98.714,195.509z"/>
		<path fill="#4A484A" d="M98.766,200.649c-0.002,0.264-0.005,0.525-0.009,0.791c3.027,0.381,6.954,0.665,10.725,0.315
			c0.007-0.264,0.014-0.526,0.021-0.788C105.755,201.317,101.793,201.028,98.766,200.649z"/>
		<path fill="#4A484A" d="M98.602,205.761c-0.015,0.26-0.033,0.523-0.05,0.786c3.007,0.387,6.945,0.687,10.749,0.355
			c0.012-0.262,0.021-0.523,0.033-0.786C105.563,206.45,101.604,206.145,98.602,205.761z"/>
		<path fill="#4A484A" d="M98.208,210.618c-0.028,0.258-0.058,0.521-0.088,0.78c3.022,0.399,7.029,0.716,10.902,0.38
			c0.019-0.261,0.037-0.523,0.054-0.786C105.246,211.331,101.226,211.009,98.208,210.618z"/>
		<path fill="#4A484A" d="M97.395,216.338c-0.048,0.26-0.098,0.521-0.147,0.779c3.19,0.393,7.34,0.661,11.245,0.214
			c0.033-0.262,0.068-0.527,0.099-0.8C104.741,216.987,100.592,216.726,97.395,216.338z"/>
		<path fill="#4A484A" d="M95.98,222.305c-0.079,0.257-0.161,0.509-0.244,0.76c3.153,0.42,7.401,0.759,11.449,0.349
			c0.091-0.281,0.177-0.557,0.259-0.824C103.451,223.029,99.17,222.717,95.98,222.305z"/>
		<path fill="#4A484A" d="M93.824,227.842c2.924,0.897,6.879,1.891,10.812,2.202c0.11-0.253,0.22-0.506,0.327-0.755
			c-3.89-0.284-7.872-1.277-10.82-2.172C94.035,227.356,93.936,227.61,93.824,227.842z"/>
		<path fill="#4A484A" d="M91.246,232.446c2.871,1.223,6.753,2.646,10.659,3.345c0.126-0.246,0.251-0.491,0.375-0.737
			c-3.844-0.667-7.736-2.069-10.623-3.287C91.519,231.988,91.386,232.229,91.246,232.446z"/>
		<path fill="#4A484A" d="M86.629,238.43c2.828,1.274,7.134,2.975,11.514,3.817c0.153-0.232,0.305-0.466,0.457-0.704
			c-4.261-0.787-8.555-2.453-11.42-3.723C86.992,238.033,86.814,238.225,86.629,238.43z"/>
		<path fill="#4A484A" d="M81.689,243.544c2.885,1.32,7.511,3.187,12.177,4.034c0.225-0.215,0.452-0.447,0.68-0.687
			c-4.6-0.761-9.294-2.606-12.277-3.944C82.066,243.153,81.86,243.363,81.689,243.544z"/>
	</g>
	<g>
		<g>
			<g>
				<path fill="#F69C9C" d="M153.824,252.721c-3.484-5.387-6.547-6.616-7.901-6.893c-0.412,0.763-0.614,1.5-0.455,2.117
					c0.608,2.364,11.46,24.107,13.551,25.199c0.306,0.161,0.919,0.126,1.735-0.051C163.101,268.712,157.7,258.716,153.824,252.721z"
					/>
				<path fill="#4A484A" d="M145.584,245.645c-0.497,0.921-0.662,1.726-0.489,2.397c0.568,2.21,11.491,24.266,13.746,25.445
					c0.384,0.199,1.018,0.195,1.994-0.019c0.11-0.024,0.204-0.092,0.258-0.191c2.651-4.949-3.974-16.172-6.945-20.767
					c-3.501-5.412-6.608-6.745-8.148-7.06C145.833,245.416,145.664,245.496,145.584,245.645z M159.197,272.805
					c-1.872-0.98-12.761-22.639-13.356-24.956c-0.027-0.108-0.041-0.222-0.041-0.347c0-0.339,0.173-0.771,0.375-1.211
					c1.322,0.365,4.131,1.696,7.326,6.637c1.93,2.985,7.446,12.001,7.446,17.509c0,0.875-0.158,1.649-0.472,2.307
					C159.61,272.907,159.265,272.84,159.197,272.805z"/>
			</g>
			<g>
				<path fill="#D25C58" d="M151.439,240.827c-1.449,0.455-4.347,2.835-5.516,5.002c1.354,0.277,4.417,1.506,7.901,6.893
					c3.877,5.995,9.278,15.991,6.93,20.373c4.76-1.039,16.637-7.126,17.522-10.157C179.313,259.385,167.477,235.797,151.439,240.827
					z"/>
				<path fill="#4A484A" d="M151.324,240.46L151.324,240.46c-1.595,0.499-4.557,2.993-5.74,5.185
					c-0.058,0.108-0.061,0.235-0.01,0.345c0.052,0.113,0.153,0.19,0.272,0.215c1.144,0.233,4.183,1.354,7.654,6.723
					c2.261,3.496,9.44,15.268,6.914,19.985c-0.072,0.132-0.058,0.293,0.032,0.413c0.091,0.118,0.243,0.175,0.389,0.142
					c4.702-1.025,16.838-7.092,17.811-10.425c0.691-2.365-3.26-11.085-9.246-16.951C165.415,242.186,159.045,238.039,151.324,240.46
					z M168.862,246.642c5.658,5.548,9.101,13.152,9.101,15.706c0,0.19-0.019,0.351-0.057,0.48
					c-0.786,2.695-11.42,8.298-16.542,9.687c0.207-0.629,0.342-1.305,0.342-2.062c0-5.568-5.066-14.087-7.559-17.942
					c-3.175-4.908-5.963-6.403-7.614-6.882c1.277-2.041,3.821-4.058,5.021-4.435C158.912,238.887,165.026,242.885,168.862,246.642z"
					/>
			</g>
		</g>
		<g>
			<path fill="#CBCBCB" d="M146.807,180.824c0,0,8.273,17.375,9.496,34.137c1.223,16.763-8.4,27.243-7.767,29.264
				c0.634,2.02,5.69,5.276,11.059,1.171c5.37-4.105,8.082-23.11,7.81-31.698c-0.273-8.587-8.762-34.368-8.762-34.368
				S153.462,176.316,146.807,180.824z"/>
			<path fill="#4A484A" d="M146.591,180.505c-0.157,0.104-0.214,0.312-0.131,0.483c0.082,0.171,8.256,17.506,9.459,34
				c0.859,11.77-3.725,20.501-6.188,25.191c-1.157,2.204-1.793,3.42-1.562,4.16c0.314,1.001,1.616,2.384,3.733,3.054
				c1.508,0.478,4.544,0.894,7.927-1.692c5.437-4.157,8.244-23.091,7.961-32.017c-0.272-8.544-8.434-33.421-8.781-34.477
				c-0.029-0.088-0.09-0.165-0.172-0.211C158.617,178.868,153.369,175.915,146.591,180.505z M158.327,179.601
				c0.526,1.605,8.433,25.914,8.693,34.109c0.013,0.386,0.019,0.791,0.019,1.214c0,9.009-2.749,26.4-7.678,30.166
				c-3.106,2.374-5.861,2.004-7.227,1.57c-1.753-0.554-2.973-1.728-3.23-2.55c-0.011-0.035-0.016-0.075-0.016-0.122
				c0-0.545,0.712-1.899,1.525-3.449c2.288-4.358,6.382-12.157,6.382-22.65c0-0.962-0.035-1.949-0.108-2.956
				c-1.127-15.445-8.292-31.574-9.384-33.952C153.212,177.146,157.715,179.275,158.327,179.601z"/>
		</g>
		<g>
			<path fill="#4A484A" d="M149.18,186.414c0.096,0.244,0.192,0.49,0.292,0.745c2.897-0.459,6.972-1.31,10.78-2.776
				c-0.081-0.258-0.159-0.507-0.235-0.751C156.198,185.1,152.061,185.955,149.18,186.414z"/>
			<path fill="#4A484A" d="M150.988,191.295c0.086,0.246,0.172,0.498,0.258,0.752c3.035-0.547,6.919-1.462,10.446-2.951
				c-0.077-0.258-0.153-0.507-0.228-0.759C157.947,189.825,154.021,190.748,150.988,191.295z"/>
			<path fill="#4A484A" d="M152.576,196.182c0.076,0.253,0.153,0.503,0.228,0.759c3.002-0.542,6.835-1.447,10.328-2.908
				c-0.073-0.254-0.144-0.509-0.216-0.759C159.444,194.73,155.578,195.64,152.576,196.182z"/>
			<path fill="#4A484A" d="M153.948,201.109c0.064,0.254,0.126,0.511,0.188,0.764c2.985-0.529,6.832-1.423,10.362-2.878
				c-0.067-0.252-0.135-0.505-0.203-0.759C160.797,199.683,156.929,200.576,153.948,201.109z"/>
			<path fill="#4A484A" d="M155.026,205.86c0.051,0.258,0.101,0.514,0.15,0.774c3.003-0.523,6.921-1.421,10.516-2.899
				c-0.06-0.256-0.121-0.51-0.183-0.767C161.954,204.434,158.023,205.333,155.026,205.86z"/>
			<path fill="#4A484A" d="M155.962,211.564c0.032,0.262,0.062,0.525,0.092,0.786c3.161-0.577,7.202-1.563,10.794-3.159
				c-0.046-0.264-0.093-0.525-0.145-0.796C163.165,209.983,159.128,210.975,155.962,211.564z"/>
			<path fill="#4A484A" d="M156.397,217.681c0.002,0.268-0.001,0.534-0.005,0.798c3.133-0.543,7.288-1.491,11.028-3.093
				c0.003-0.296,0.003-0.584,0-0.863C163.743,216.136,159.565,217.117,156.397,217.681z"/>
			<path fill="#4A484A" d="M155.998,223.607c3.058-0.019,7.13-0.253,10.975-1.134c0.029-0.274,0.058-0.547,0.086-0.818
				c-3.797,0.893-7.895,1.136-10.974,1.166C156.053,223.081,156.035,223.353,155.998,223.607z"/>
			<path fill="#4A484A" d="M154.915,228.773c3.106,0.307,7.235,0.503,11.171,0c0.048-0.27,0.092-0.542,0.139-0.815
				c-3.868,0.515-8.002,0.341-11.121,0.044C155.038,228.257,154.983,228.524,154.915,228.773z"/>
			<path fill="#4A484A" d="M152.301,235.865c3.08,0.369,7.697,0.704,12.128,0.195c0.077-0.266,0.152-0.535,0.226-0.806
				c-4.302,0.523-8.898,0.215-12.013-0.139C152.528,235.378,152.415,235.612,152.301,235.865z"/>
			<path fill="#4A484A" d="M149.117,242.223c3.147,0.395,8.12,0.794,12.826,0.205c0.151-0.274,0.299-0.561,0.443-0.858
				c-4.617,0.646-9.648,0.296-12.894-0.09C149.36,241.737,149.226,241.996,149.117,242.223z"/>
		</g>
	</g>
	<g>
		<path fill="#CBCBCB" d="M209.557,92.265c0,0,2.695,16.298-10.008,21.044c-12.703,4.747-25.536-2.052-31.437-3.849l1.412,11.806
			c0,0,19.374,7.057,34.901,0.513c15.526-6.543,13.088-29.513,13.088-29.513H209.557z"/>
		<path fill="#4A484A" d="M209.557,91.88c-0.112,0-0.22,0.049-0.293,0.135c-0.074,0.088-0.105,0.202-0.086,0.313
			c0.026,0.159,2.491,16.042-9.764,20.621c-10.372,3.875-20.692,0.007-27.521-2.554l-3.671-1.304
			c-0.126-0.046-0.257-0.017-0.361,0.064c-0.104,0.083-0.149,0.218-0.133,0.351l1.412,11.805c0.017,0.143,0.113,0.265,0.25,0.316
			c0.195,0.071,19.696,7.033,35.182,0.506c15.61-6.578,13.346-29.675,13.322-29.908c-0.021-0.195-0.186-0.345-0.383-0.345H209.557z
			 M217.158,92.651c0.037,0.488,0.098,1.483,0.098,2.864c0,6.499-1.356,21.009-12.981,25.909
			c-14.565,6.139-32.721,0.135-34.398-0.444c-0.052-0.436-1.18-9.867-1.31-10.949c0.808,0.288,3.057,1.085,3.057,1.085
			c6.515,2.443,17.419,6.533,28.059,2.555c9.145-3.418,10.481-12.759,10.481-17.921c0-1.448-0.103-2.531-0.17-3.098
			C210.737,92.651,216.547,92.651,217.158,92.651z"/>
	</g>
	<g>
		<path fill="#4A484A" d="M209.708,98.093c-0.021,0.257-0.045,0.515-0.073,0.782c2.042,0.546,5.022,1.241,7.78,1.499
			c0.026-0.258,0.05-0.514,0.072-0.767C214.743,99.347,211.729,98.635,209.708,98.093z"/>
		<path fill="#4A484A" d="M208.393,104.304c2.2,1.018,5.021,2.1,7.847,2.583c0.068-0.251,0.13-0.501,0.193-0.752
			c-2.778-0.47-5.592-1.558-7.779-2.574C208.573,103.808,208.484,104.055,208.393,104.304z"/>
		<path fill="#4A484A" d="M204.364,110.411c2.131,1.352,5.312,3.108,8.654,3.998c0.147-0.23,0.28-0.467,0.417-0.701
			c-3.219-0.827-6.357-2.521-8.495-3.856C204.754,110.042,204.565,110.232,204.364,110.411z"/>
		<path fill="#4A484A" d="M201.576,112.381c-0.224,0.122-0.453,0.238-0.689,0.352c0.856,1.64,3.015,5.424,5.811,7.883
			c0.234-0.139,0.465-0.278,0.688-0.424C204.642,117.85,202.436,114.01,201.576,112.381z"/>
		<path fill="#4A484A" d="M191.733,114.899c0.753,2.544,2.004,6.328,3.527,9.284c0.264-0.036,0.527-0.078,0.791-0.116
			c-1.482-2.828-2.745-6.612-3.521-9.207C192.263,114.88,191.999,114.884,191.733,114.899z"/>
		<path fill="#4A484A" d="M186.32,114.728c-0.323,2.851-0.624,6.705-0.357,9.727c0.255,0.015,0.509,0.031,0.766,0.043
			c-0.269-2.93,0.036-6.818,0.362-9.691C186.833,114.785,186.576,114.757,186.32,114.728z"/>
		<path fill="#4A484A" d="M179.289,123.687c0.252,0.041,0.505,0.084,0.764,0.124c0.238-3.163,0.646-6.886,1.046-10.019
			c-0.254-0.063-0.499-0.132-0.75-0.198C180.056,115.883,179.562,119.995,179.289,123.687z"/>
		<path fill="#4A484A" d="M172.844,122.279c0.242,0.067,0.493,0.133,0.757,0.201c0.227-3.298,0.901-7.744,1.362-10.552
			c-0.25-0.087-0.496-0.174-0.739-0.264C173.765,114.426,173.085,118.882,172.844,122.279z"/>
	</g>
	<g>
		<g>
			<path fill="#FAC6C5" d="M167.488,95.111c-1.007-0.668-9.578-0.728-9.578-0.728L85.091,98.68l-5.214,2.726
				c6.484,1.55,37.507,8.924,39.345,8.696C120.954,109.885,158.815,101.092,167.488,95.111z"/>
			<path fill="#4A484A" d="M85.069,98.296l-5.369,2.769c-0.142,0.075-0.224,0.228-0.204,0.388c0.019,0.159,0.136,0.289,0.292,0.327
				c8.789,2.101,37.615,8.935,39.481,8.704c1.369-0.171,39.468-8.871,48.437-15.057c0.106-0.072,0.168-0.193,0.167-0.321
				c-0.002-0.127-0.066-0.246-0.173-0.317c-1.049-0.695-8.338-0.782-9.788-0.791L85.069,98.296z M85.269,99.023l72.663-4.256
				c2.878,0.021,6.906,0.178,8.59,0.467c-9.773,5.941-46.042,14.322-47.347,14.487c-1.357,0.167-21.196-4.391-38.207-8.452
				C82.21,100.621,85.269,99.023,85.269,99.023z"/>
		</g>
		<g>
			<g>
				<path fill="#D25C58" d="M79.878,101.407l-0.432,0.226c0,0,0.705,80.325,1.668,81.48c0.947,1.136,44.719,9.533,48.511,9.254
					c-2.283-11.17-9.259-70.94-10.571-82.264C116.091,110.022,86.228,102.923,79.878,101.407z"/>
				<path fill="#4A484A" d="M79.7,101.065l-0.432,0.225c-0.128,0.068-0.208,0.202-0.207,0.347
					c0.165,18.874,0.782,80.552,1.757,81.722c1.364,1.638,46.268,9.579,48.835,9.39c0.11-0.007,0.211-0.064,0.278-0.151
					c0.067-0.087,0.092-0.202,0.07-0.311c-2.275-11.123-9.201-70.45-10.566-82.231c-0.023-0.189-0.181-0.335-0.373-0.34
					c-2.943-0.078-33.084-7.247-39.096-8.685C79.877,101.01,79.781,101.021,79.7,101.065z M79.929,101.813
					c6.133,1.465,34.605,8.232,38.776,8.637c1.416,12.214,8.116,69.523,10.455,81.523c-5.507-0.17-46.031-7.88-47.783-9.137
					c-0.687-1.886-1.351-58.873-1.545-80.971C79.881,101.839,79.888,101.835,79.929,101.813z"/>
			</g>
			<g>
				<path fill="#EB7672" d="M79.603,117.212c0.26,23.418,0.819,65.071,1.51,65.901c0.947,1.136,44.719,9.533,48.511,9.254
					c-0.452-2.211-1.089-6.34-1.827-11.601C102.357,170.502,87.609,144.618,79.603,117.212z"/>
				<path fill="#4A484A" d="M79.547,116.83c-0.19,0.028-0.331,0.191-0.329,0.384c0.723,65.094,1.359,65.856,1.599,66.145
					c1.364,1.638,46.268,9.579,48.835,9.39c0.11-0.007,0.211-0.064,0.278-0.151c0.067-0.087,0.092-0.202,0.07-0.311
					c-0.42-2.049-1.033-5.944-1.823-11.574c-0.019-0.138-0.11-0.253-0.238-0.304c-27.617-11.14-41.328-40.576-47.969-63.306
					C79.919,116.919,79.737,116.802,79.547,116.83z M81.378,182.836c-0.399-1.131-0.916-24.087-1.359-62.957
					c6.938,22.44,20.687,50.245,47.427,61.15c0.729,5.178,1.301,8.823,1.714,10.944C123.645,191.8,83.131,184.092,81.378,182.836z"
					/>
			</g>
			<g>
				<path fill="#4A484A" d="M84.209,130.764l-4.457-1.098c0.003,0.264,0.007,0.531,0.009,0.795l4.794,1.18
					C84.438,131.349,84.324,131.057,84.209,130.764z"/>
				<path fill="#4A484A" d="M86.563,136.416l-6.746-1.66c0.004,0.264,0.008,0.529,0.011,0.794l7.127,1.756
					C86.822,137.012,86.694,136.715,86.563,136.416z"/>
				<path fill="#4A484A" d="M89.46,142.525l-9.567-2.358c0.003,0.265,0.007,0.531,0.011,0.796l10.024,2.471
					C89.772,143.13,89.615,142.828,89.46,142.525z"/>
				<path fill="#4A484A" d="M92.573,148.237l-12.606-3.105c0.003,0.265,0.008,0.53,0.012,0.796l13.136,3.235
					C92.932,148.856,92.753,148.546,92.573,148.237z"/>
				<path fill="#4A484A" d="M96.83,154.931l-16.773-4.13c0.004,0.266,0.009,0.529,0.013,0.794l17.435,4.295
					C97.278,155.573,97.053,155.251,96.83,154.931z"/>
				<path fill="#4A484A" d="M101.576,161.171l-21.431-5.28c0.005,0.268,0.01,0.531,0.015,0.795l22.274,5.487
					C102.146,161.842,101.859,161.507,101.576,161.171z"/>
				<path fill="#4A484A" d="M107.689,167.685l-27.448-6.762c0.005,0.269,0.011,0.533,0.017,0.798l28.577,7.039
					C108.447,168.409,108.07,168.045,107.689,167.685z"/>
				<path fill="#4A484A" d="M118.198,175.86l-37.834-9.318c0.006,0.268,0.012,0.531,0.019,0.796l40.076,9.871
					C119.694,176.774,118.941,176.324,118.198,175.86z"/>
				<path fill="#4A484A" d="M128.095,182.854l-47.615-11.73c0.007,0.268,0.015,0.538,0.023,0.799l47.71,11.751
					C128.173,183.402,128.135,183.134,128.095,182.854z"/>
				<path fill="#4A484A" d="M128.789,187.519l-48.171-11.866c0.01,0.278,0.019,0.534,0.029,0.8l48.271,11.889
					C128.876,188.071,128.833,187.804,128.789,187.519z"/>
			</g>
			<g>
				<path fill="#EB7672" d="M167.598,95.215c-0.009-0.036-0.058-0.072-0.11-0.104c-8.673,5.981-46.534,14.774-48.265,14.991
					c-0.039,0.003-0.108,0-0.17,0c1.312,11.324,8.288,71.094,10.571,82.264c0.063-0.007,0.144-0.007,0.185-0.015
					c2.502-0.578,48.311-12.704,49.273-15.205C180.044,174.643,167.79,95.985,167.598,95.215z"/>
				<path fill="#4A484A" d="M167.269,94.794c-8.638,5.957-46.755,14.758-48.094,14.927c-0.21,0.025-0.529,0.216-0.505,0.426
					c1.366,11.784,8.297,71.141,10.577,82.296c0.04,0.194,0.262,0.324,0.459,0.304l0.186-0.019
					c0.482-0.112,48.437-12.551,49.549-15.444c1.012-2.631-11.301-81.483-11.469-82.161c-0.031-0.122-0.175-0.276-0.292-0.32
					C167.561,94.759,167.373,94.721,167.269,94.794z M167.296,95.67c1.34,6.851,11.462,74.242,11.462,80.878
					c0,0.228-0.012,0.384-0.038,0.463c-1.229,2.236-43.033,13.554-48.786,14.914c-2.313-11.746-9.018-69.092-10.455-81.483
					C122.17,109.959,157.905,101.717,167.296,95.67z"/>
			</g>
			<g>
				<path fill="#F2AAA9" d="M173.341,132.622c-1.836,24.001-22.317,43.524-45.752,46.662c0.828,5.976,1.541,10.668,2.034,13.083
					c0.063-0.007,0.144-0.007,0.185-0.015c2.502-0.578,48.311-12.704,49.273-15.205
					C179.586,175.834,176.459,153.598,173.341,132.622z"/>
				<path fill="#4A484A" d="M173.328,132.236c-0.197,0.008-0.356,0.159-0.371,0.355c-1.772,23.172-21.298,43.081-45.418,46.311
					c-0.102,0.013-0.193,0.066-0.256,0.147c-0.062,0.083-0.089,0.185-0.075,0.286c0.894,6.456,1.58,10.865,2.038,13.107
					c0.04,0.194,0.262,0.324,0.459,0.304l0.186-0.019c0.482-0.112,48.437-12.551,49.549-15.444c0.165-0.43,0.669-1.741-5.72-44.72
					C173.693,132.372,173.524,132.231,173.328,132.236z M173.373,135.47c4.638,31.36,5.383,39.268,5.383,41.083
					c0,0.256-0.014,0.392-0.035,0.458c-1.229,2.236-43.037,13.554-48.786,14.914c-0.445-2.261-1.085-6.384-1.911-12.328
					C151.332,176.299,170.289,157.647,173.373,135.47z"/>
			</g>
			<g>
				<path fill="#4A484A" d="M174.692,141.791l-3.315,1.035c-0.092,0.297-0.182,0.598-0.28,0.893l3.707-1.156
					C174.767,142.305,174.729,142.048,174.692,141.791z"/>
				<path fill="#4A484A" d="M175.217,145.405l-5.382,1.68c-0.13,0.311-0.262,0.622-0.398,0.929l5.891-1.838
					C175.291,145.92,175.253,145.662,175.217,145.405z"/>
				<path fill="#4A484A" d="M176.102,151.601l-10.325,3.22c-0.219,0.34-0.441,0.679-0.667,1.013l11.101-3.462
					C176.175,152.115,176.139,151.86,176.102,151.601z"/>
				<path fill="#4A484A" d="M176.982,157.904l-18.244,5.692c-0.4,0.404-0.81,0.796-1.223,1.187l19.572-6.104
					C177.052,158.423,177.017,158.164,176.982,157.904z"/>
				<path fill="#4A484A" d="M177.554,162.141l-27.458,8.566c-0.851,0.565-1.721,1.1-2.602,1.618l30.163-9.41
					C177.623,162.659,177.59,162.404,177.554,162.141z"/>
				<path fill="#4A484A" d="M178.306,167.993l-50.102,15.631c0.038,0.265,0.075,0.511,0.114,0.77l50.083-15.623
					C178.37,168.513,178.34,168.259,178.306,167.993z"/>
				<path fill="#4A484A" d="M178.841,172.637l-49.942,15.58c0.042,0.262,0.084,0.522,0.123,0.768l49.898-15.566
					C178.896,173.17,178.87,172.91,178.841,172.637z"/>
			</g>
		</g>
	</g>
	<g>
		<path fill="#EB7672" d="M89.444,65.163c-0.316,0.305-0.585,0.613-0.761,0.926c-3.464,6.159-3.978,32.975-3.978,32.975
			l33.875,8.214c0,0,0.042-0.011,0.072-0.017c-1.716-7.714-9.953-37.322-9.953-37.322C99.515,62.686,93.013,63.531,89.444,65.163z"
			/>
		<path fill="#4A484A" d="M89.284,64.812c-0.053,0.025-0.069,0.028-0.106,0.074l-0.829,1.013c-3.472,6.174-4.006,32.061-4.027,33.16
			c-0.003,0.181,0.119,0.339,0.294,0.382l33.875,8.212c0.13,0.031,0.301-0.015,0.397-0.11c0.095-0.092,0.171-0.238,0.143-0.367
			c-1.699-7.637-9.875-37.045-9.958-37.34c-0.022-0.08-0.068-0.151-0.133-0.201C99.784,62.408,93.197,63.024,89.284,64.812z
			 M108.367,70.174c0.407,1.467,7.9,28.45,9.779,36.602c-1.013-0.245-32.465-7.871-33.048-8.012
			c0.068-2.875,0.731-26.817,3.921-32.487c0,0,0.575-0.697,0.65-0.787C93.38,63.818,99.614,63.305,108.367,70.174z"/>
	</g>
	<g>
		<g>
			<path fill="#FAC6C5" d="M124.356,55.311c0,0-28.998,4.161-34.911,9.852c3.568-1.631,10.07-2.477,19.256,4.775
				c0,0,0.007,0.024,0.009,0.032c5.849-0.985,22.209-4.028,33.6-8.914C140.771,59.293,134.327,55.185,124.356,55.311z"/>
			<path fill="#4A484A" d="M124.351,54.926c-0.017,0-0.034,0.001-0.05,0.003c-1.189,0.171-29.189,4.247-35.123,9.958
				c-0.135,0.13-0.157,0.339-0.051,0.494c0.105,0.154,0.307,0.21,0.478,0.134c3.718-1.701,10.007-2.261,18.858,4.727
				c0.085,0.067,0.203,0.127,0.311,0.11c6.357-1.071,22.366-4.086,33.688-8.941c0.113-0.048,0.196-0.149,0.224-0.268
				c0.027-0.12-0.005-0.248-0.085-0.339C140.882,58.832,134.16,54.802,124.351,54.926z M141.604,60.919
				c-11.118,4.651-26.447,7.569-32.777,8.641c-7.324-5.744-12.99-6.463-16.956-5.593c8.601-4.765,32.038-8.202,32.514-8.271
				C133.32,55.591,139.51,58.946,141.604,60.919z"/>
		</g>
		<g>
			<path fill="#F69C9C" d="M162.465,94.575c0,0-18.733-31.694-20.017-33.362c-0.037-0.047-0.093-0.104-0.138-0.157
				c-11.39,4.885-27.751,7.929-33.6,8.914c0.186,0.672,8.246,29.665,9.943,37.29C120.165,106.878,158.315,97.216,162.465,94.575z"/>
			<path fill="#4A484A" d="M142.158,60.702c-11.245,4.824-27.182,7.823-33.512,8.887c-0.108,0.019-0.197,0.103-0.256,0.193
				c-0.059,0.094-0.07,0.226-0.041,0.331c0.845,3.041,8.302,29.924,9.928,37.231c0.023,0.102,0.086,0.19,0.174,0.244
				c0.088,0.055,0.195,0.071,0.296,0.046c1.621-0.408,39.718-10.057,43.925-12.733c0.175-0.111,0.23-0.343,0.125-0.519
				c-0.766-1.297-18.761-31.735-20.044-33.401c-0.108-0.124-0.153-0.175-0.153-0.175C142.49,60.682,142.309,60.637,142.158,60.702z
				 M142.188,61.516c1.398,1.909,17.803,29.633,19.738,32.903c-4.228,2.246-29.531,8.965-42.987,12.372
				c-1.727-7.573-8.596-32.374-9.745-36.515C115.73,69.162,131.096,66.215,142.188,61.516z"/>
		</g>
	</g>
	<g>
		<g>
			<path fill="#CBCBCB" d="M94.497,83.745c0,0,5.677-0.577,7.217-0.48c1.54,0.096,2.31,5.388,1.54,6.64
				c-0.77,1.251-7.795,0.866-7.795,0.866L94.497,83.745z"/>
			<path fill="#4A484A" d="M94.457,83.364c-0.104,0.009-0.199,0.062-0.263,0.145c-0.065,0.08-0.093,0.186-0.079,0.289l0.962,7.025
				c0.025,0.182,0.176,0.322,0.36,0.333c1.702,0.092,7.318,0.292,8.144-1.049c0.712-1.156,0.297-4.526-0.521-6.106
				c-0.37-0.712-0.814-1.088-1.323-1.121C100.185,82.783,94.691,83.34,94.457,83.364z M101.69,83.649
				c0.211,0.012,0.461,0.27,0.687,0.707c0.798,1.538,1.015,4.589,0.55,5.347c-0.389,0.632-3.938,0.843-7.131,0.692
				c-0.076-0.553-0.772-5.633-0.864-6.305C96.207,83.965,100.422,83.57,101.69,83.649z"/>
		</g>
		<g>
			
				<ellipse transform="matrix(0.9985 -0.0549 0.0549 0.9985 -4.6745 5.29)" fill="#CBCBCB" cx="94.016" cy="87.788" rx="4.331" ry="5.965"/>
			<path fill="#4A484A" d="M93.668,81.444c-1.023,0.058-1.971,0.542-2.741,1.401c-1.124,1.254-1.73,3.199-1.62,5.2
				c0.192,3.499,2.46,6.226,5.057,6.084c1.023-0.058,1.971-0.541,2.74-1.4c1.125-1.255,1.73-3.2,1.619-5.201l0,0
				C98.532,84.032,96.264,81.304,93.668,81.444z M90.076,88.004c-0.1-1.801,0.433-3.54,1.423-4.645
				c0.632-0.705,1.396-1.099,2.21-1.144c2.172-0.119,4.077,2.283,4.246,5.356l0,0c0.099,1.802-0.433,3.54-1.424,4.646
				c-0.632,0.705-1.395,1.099-2.21,1.144C92.149,93.481,90.244,91.077,90.076,88.004z"/>
		</g>
	</g>
	<g>
		
			<ellipse transform="matrix(0.9856 -0.1689 0.1689 0.9856 -12.1746 21.9263)" fill="#FFFFFF" cx="122.832" cy="82.545" rx="5.727" ry="6.062"/>
		<path fill="#4A484A" d="M121.743,76.191c-1.549,0.264-2.914,1.135-3.845,2.451c-1.005,1.42-1.392,3.173-1.09,4.935
			c0.602,3.504,3.792,5.892,7.112,5.324c1.549-0.265,2.914-1.136,3.845-2.452c1.004-1.419,1.391-3.172,1.09-4.935l0,0
			C128.254,78.01,125.063,75.622,121.743,76.191z M117.567,83.448c-0.268-1.562,0.073-3.109,0.959-4.36
			c0.812-1.15,2.001-1.907,3.346-2.139c2.903-0.497,5.694,1.609,6.223,4.694l0,0c0.268,1.562-0.073,3.113-0.959,4.362
			c-0.812,1.148-2.001,1.906-3.346,2.137C120.888,88.638,118.097,86.533,117.567,83.448z"/>
	</g>
	
		<ellipse transform="matrix(0.9857 -0.1685 0.1685 0.9857 -12.1215 22.2709)" fill="#4A484A" cx="125.141" cy="82.545" rx="2.497" ry="2.645"/>
	<g>
		
			<ellipse transform="matrix(0.9856 -0.1689 0.1689 0.9856 -11.1921 25.2174)" fill="#FFFFFF" cx="142.656" cy="78.407" rx="5.726" ry="6.064"/>
		<path fill="#4A484A" d="M141.567,72.053c-1.549,0.264-2.914,1.135-3.845,2.45c-1.004,1.42-1.392,3.173-1.09,4.935
			c0.601,3.504,3.792,5.892,7.112,5.324c1.549-0.265,2.914-1.136,3.845-2.452c1.004-1.419,1.391-3.172,1.09-4.935l0,0
			C148.079,73.872,144.888,71.484,141.567,72.053z M137.392,79.31c-0.268-1.561,0.073-3.109,0.96-4.361
			c0.812-1.15,2.001-1.907,3.345-2.139c2.903-0.497,5.695,1.609,6.224,4.695l0,0c0.268,1.56-0.073,3.112-0.96,4.36
			c-0.812,1.148-2,1.906-3.345,2.137C140.713,84.5,137.921,82.395,137.392,79.31z"/>
	</g>
	
		<ellipse transform="matrix(0.9857 -0.1685 0.1685 0.9857 -11.1407 25.5535)" fill="#4A484A" cx="144.966" cy="78.407" rx="2.497" ry="2.644"/>
	<g>
		<path fill="#FFFFFF" d="M141.549,90.244c0,0-11.259,2.31-11.74,2.983c-0.482,0.673,1.443,5.774,6.929,4.811
			C142.223,97.077,142.32,90.437,141.549,90.244z"/>
		<path fill="#4A484A" d="M141.472,89.867c-4.261,0.874-11.482,2.444-11.977,3.137c-0.368,0.515,0.029,1.724,0.612,2.647
			c0.672,1.068,2.67,3.473,6.697,2.767c4.158-0.73,5.396-4.543,5.472-6.68c0.022-0.633-0.029-1.716-0.633-1.867
			C141.587,89.856,141.529,89.856,141.472,89.867z M131.19,95.836c-0.826-0.994-1.069-1.95-1.069-2.295
			c0-0.05,0.005-0.088,0.013-0.11c0.48-0.372,6.112-1.7,11.244-2.757c0.066,0.133,0.13,0.391,0.13,0.839
			c0,0.634-0.112,1.516-0.47,2.457c-0.543,1.428-1.741,3.23-4.366,3.69C133.658,98.19,131.944,96.745,131.19,95.836z"/>
	</g>
	<g>
		<g>
			<path fill="#F69C9C" d="M226.197,72.421l-7.016,0.083c0,0-0.005,8.036-1.633,10.465c-1.123,2.397-2.983,3.33-5.81,3.267
				c-4.328-0.099-6.239-6.972-6.897-10.18l-5.806,1.836c0,0,0.386,16.17,12.832,16.427c3.023,0.062,5.744-0.431,8.117-1.387
				C226.889,88.274,226.467,75.92,226.197,72.421z"/>
			<path fill="#4A484A" d="M226.192,72.036l-7.016,0.083c-0.21,0.003-0.38,0.174-0.38,0.386c0,0.079-0.024,7.945-1.568,10.252
				c-1.044,2.218-2.726,3.156-5.481,3.094c-4.084-0.094-5.926-6.935-6.529-9.873c-0.022-0.106-0.088-0.198-0.183-0.254
				c-0.094-0.055-0.207-0.067-0.311-0.035l-5.807,1.838c-0.163,0.054-0.272,0.206-0.268,0.376
				c0.004,0.166,0.541,16.541,13.208,16.802c3.006,0.06,5.788-0.415,8.269-1.415c7.12-4.793,6.738-17.206,6.454-20.896
				C226.565,72.19,226.395,72.034,226.192,72.036z M225.834,72.811c0.051,0.743,0.1,1.708,0.1,2.898
				c0,5.087-0.879,13.34-6.165,16.907c-2.313,0.922-4.993,1.38-7.894,1.32c-11.067-0.229-12.314-13.686-12.44-15.764
				c0.478-0.151,4.47-1.415,5.125-1.622c0.846,3.904,2.848,9.972,7.17,10.071c3.061,0.069,5.02-1.039,6.167-3.487
				c1.472-2.191,1.645-8.665,1.666-10.248C220.199,72.876,225.212,72.819,225.834,72.811z"/>
		</g>
		<g>
			<path fill="#FAC6C5" d="M211.738,86.236c2.827,0.063,4.687-0.87,5.81-3.267c-0.267,0.399-0.573,0.662-0.934,0.699
				c-2.566,0.258-2.566-8.084-2.566-8.084l-7.314-0.127l-1.893,0.6C205.499,79.264,207.41,86.137,211.738,86.236z"/>
			<path fill="#4A484A" d="M204.725,75.688c-0.187,0.06-0.3,0.252-0.261,0.446c0.795,3.872,2.795,10.385,7.266,10.486l0,0
				c3.033,0.068,4.981-1.028,6.131-3.432c0.002-0.003,0.005-0.001,0.007-0.004c-0.001,0.001-0.003,0.001-0.005,0.003
				c0.01-0.019,0.025-0.032,0.035-0.054c0.024-0.052,0.036-0.108,0.036-0.165c0-0.134-0.071-0.264-0.195-0.333
				c-0.175-0.099-0.397-0.047-0.509,0.12c-0.221,0.331-0.441,0.509-0.653,0.529c-0.22,0.021-0.412-0.048-0.602-0.221
				c-1.263-1.143-1.54-5.787-1.54-7.48c0-0.209-0.169-0.381-0.378-0.385l-7.314-0.126L204.725,75.688z M206.85,75.823
				c0,0,6.145,0.125,6.817,0.139c0.024,1.437,0.221,6.252,1.789,7.672c0.29,0.264,0.62,0.379,0.969,0.397
				c-1.037,1.283-2.523,1.867-4.678,1.819l0,0c-3.948-0.09-5.789-6.455-6.452-9.535C205.751,76.171,206.85,75.823,206.85,75.823z"/>
		</g>
		<g>
			<path fill="#FAC6C5" d="M231.499,72.762l-5.302-0.341c0.27,3.498,0.692,15.853-6.213,20.512
				C227.377,89.953,232.859,82.768,231.499,72.762z"/>
			<path fill="#4A484A" d="M225.923,72.151c-0.079,0.079-0.119,0.187-0.11,0.299c0.276,3.588,0.656,15.639-6.045,20.166
				c-0.164,0.107-0.217,0.324-0.125,0.499c0.092,0.174,0.3,0.249,0.483,0.175c6.669-2.688,13.258-9.505,11.753-20.579
				c-0.025-0.182-0.173-0.321-0.356-0.333l-5.302-0.339C226.11,72.03,226.001,72.07,225.923,72.151z M226.703,75.675
				c0-1.159-0.047-2.097-0.096-2.841c0.682,0.043,3.995,0.257,4.532,0.29c0.114,0.926,0.187,1.83,0.187,2.692
				c0,7.613-4.207,12.765-9.047,15.551C226.003,87.105,226.703,80.169,226.703,75.675z"/>
		</g>
	</g>
	<g>
		<g>
			<path fill="#CBCBCB" d="M82.928,170.384c0,0-12.877-10.344-6.577-22.355c6.298-12.009,20.395-15.501,25.991-18.099
				c0,0,1.195-3.212-2.174-6.677c-3.561-3.663-6.752-1.178-6.752-1.178s-19.143,7.665-26.347,22.896
				c-7.204,15.231,9.932,30.719,9.932,30.719L82.928,170.384z"/>
			<path fill="#4A484A" d="M93.179,121.773c-0.099,0.021-19.272,7.842-26.458,23.035c-7.243,15.311,9.848,31.012,10.022,31.168
				c0.146,0.133,0.369,0.133,0.514,0.001l5.927-5.307c0.084-0.075,0.132-0.183,0.129-0.296c-0.003-0.114-0.056-0.22-0.144-0.29
				c-0.127-0.103-12.555-10.292-6.478-21.876c5.142-9.805,15.412-13.805,22.208-16.453l3.605-1.478
				c0.099-0.04,0.161-0.114,0.199-0.214c0.052-0.141,1.239-3.481-2.258-7.079C96.686,119.121,93.214,121.745,93.179,121.773z
				 M65.701,152.795c0-2.515,0.503-5.095,1.715-7.661c7.055-14.915,25.952-22.624,26.142-22.702
				c0.213-0.144,3.068-2.271,6.333,1.088c1.888,1.943,2.277,3.773,2.277,4.951c0,0.63-0.097,1.001-0.149,1.175
				c-0.292,0.119-3.4,1.393-3.4,1.393c-6.484,2.524-17.335,6.751-22.61,16.812c-1.26,2.401-1.765,4.741-1.765,6.949
				c0,7.997,6.586,14.255,8.1,15.59c-0.555,0.498-4.878,4.365-5.335,4.775C75.718,173.943,65.701,164.09,65.701,152.795z"/>
		</g>
		<g>
			<path fill="#4A484A" d="M78.93,166.143c-0.156-0.205-0.312-0.414-0.467-0.63c-1.886,0.954-4.57,2.424-6.798,4.071
				c0.153,0.21,0.307,0.418,0.459,0.618C74.341,168.568,77.062,167.088,78.93,166.143z"/>
			<path fill="#4A484A" d="M75.767,160.638c-2.32,0.707-5.143,1.783-7.571,3.308c0.118,0.233,0.236,0.459,0.357,0.688
				c2.384-1.5,5.206-2.568,7.513-3.268C75.963,161.128,75.864,160.885,75.767,160.638z"/>
			<path fill="#4A484A" d="M74.694,153.399c-2.489,0.415-6.029,1.229-9.113,2.795c0.044,0.27,0.103,0.535,0.157,0.802
				c2.95-1.533,6.419-2.362,8.902-2.793C74.651,153.934,74.666,153.671,74.694,153.399z"/>
			<path fill="#4A484A" d="M75.458,150.073c0.086-0.241,0.179-0.48,0.279-0.721c-1.731-0.65-5.864-2.03-9.588-1.997
				c-0.081,0.258-0.16,0.517-0.23,0.776C69.527,148.043,73.73,149.432,75.458,150.073z"/>
			<path fill="#4A484A" d="M81.113,141.632c-2.258-1.393-5.713-3.378-8.819-4.564c-0.173,0.201-0.342,0.407-0.513,0.613
				c2.991,1.12,6.454,3.097,8.765,4.513C80.729,141.999,80.924,141.821,81.113,141.632z"/>
			<path fill="#4A484A" d="M85.26,138.149c-1.66-2.341-4.007-5.411-6.222-7.486c-0.199,0.159-0.4,0.317-0.6,0.479
				c2.155,2.005,4.52,5.102,6.193,7.461C84.841,138.449,85.05,138.299,85.26,138.149z"/>
			<path fill="#4A484A" d="M84.525,126.785c-0.217,0.138-0.432,0.273-0.654,0.418c1.932,2.514,4.112,5.56,5.904,8.162
				c0.231-0.123,0.46-0.234,0.689-0.352C89.158,133.112,86.783,129.718,84.525,126.785z"/>
			<path fill="#4A484A" d="M90.266,123.535c-0.224,0.112-0.456,0.229-0.698,0.356c2.03,2.608,4.494,6.371,6.021,8.769
				c0.245-0.1,0.487-0.198,0.727-0.296C94.816,130.001,92.351,126.227,90.266,123.535z"/>
		</g>
		<g>
			<g>
				<path fill="#F69C9C" d="M83.766,196.268l5.172-4.74c0,0-5.356-5.991-5.764-8.887c-0.761-2.534,0.003-4.47,2.151-6.308
					c3.291-2.813,9.298,1.033,11.928,2.985l3.1-5.241c0,0-11.071-11.791-20.516-3.682c-2.295,1.971-3.994,4.153-5.123,6.448
					C72.677,184.918,81.23,193.841,83.766,196.268z"/>
				<path fill="#4A484A" d="M79.587,170.102c-2.281,1.959-4.036,4.17-5.217,6.57c-2.109,8.319,6.456,17.315,9.13,19.874
					c0.147,0.14,0.377,0.143,0.527,0.007l5.171-4.743c0.156-0.14,0.167-0.381,0.028-0.538c-0.054-0.06-5.283-5.937-5.67-8.685
					c-0.701-2.349-0.074-4.173,2.02-5.961c3.105-2.655,9.042,1.213,11.449,3.002c0.087,0.064,0.198,0.09,0.305,0.067
					c0.107-0.023,0.2-0.087,0.256-0.182l3.1-5.241c0.088-0.149,0.066-0.335-0.051-0.459C100.521,173.69,89.2,161.848,79.587,170.102
					z M74.787,179.416c0-0.83,0.094-1.66,0.3-2.481c1.108-2.228,2.799-4.356,5.002-6.249c8.481-7.282,18.458,2.129,19.781,3.449
					c-0.254,0.434-2.393,4.047-2.738,4.632c-3.234-2.346-8.769-5.54-12.058-2.728c-1.728,1.479-2.57,3.035-2.57,4.799
					c0,0.61,0.1,1.245,0.301,1.911c0.364,2.615,4.553,7.552,5.594,8.746c-0.47,0.432-4.164,3.82-4.623,4.24
					C81.263,193.29,74.787,186.319,74.787,179.416z"/>
			</g>
			<g>
				<path fill="#FAC6C5" d="M85.325,176.332c-2.148,1.838-2.912,3.774-2.151,6.308c-0.066-0.475-0.015-0.875,0.231-1.143
					c1.739-1.903,7.303,4.311,7.303,4.311l5.535-4.783l1.01-1.708C94.623,177.366,88.616,173.519,85.325,176.332z"/>
				<path fill="#4A484A" d="M85.075,176.039L85.075,176.039c-1.728,1.479-2.57,3.035-2.57,4.799c0,0.58,0.105,1.185,0.285,1.812
					c0.001,0.013,0.001,0.027,0.003,0.042c-0.002-0.013-0.002-0.027-0.003-0.04c0.009,0.033,0.005,0.063,0.015,0.098
					c0.058,0.194,0.254,0.308,0.45,0.266c0.197-0.044,0.327-0.231,0.299-0.43c-0.055-0.395-0.01-0.675,0.133-0.828
					c0.15-0.165,0.339-0.24,0.596-0.238c1.703,0.008,5.008,3.284,6.137,4.545c0.14,0.157,0.379,0.171,0.539,0.033l5.534-4.782
					l1.09-1.804c0.1-0.169,0.056-0.388-0.102-0.505C94.308,176.652,88.474,173.134,85.075,176.039z M96.739,179.428
					c-0.245,0.415-0.828,1.401-0.828,1.401s-4.662,4.006-5.171,4.445c-0.977-1.055-4.336-4.513-6.451-4.524
					c-0.394-0.001-0.692,0.178-0.965,0.401c-0.006-0.099-0.049-0.211-0.049-0.31c0-1.542,0.747-2.887,2.301-4.216
					C88.583,174.054,94.196,177.58,96.739,179.428z"/>
			</g>
			<g>
				<path fill="#FAC6C5" d="M79.588,199.551l4.178-3.283c-2.536-2.426-11.089-11.349-9.051-19.425
					C71.193,183.993,71.901,193.002,79.588,199.551z"/>
				<path fill="#4A484A" d="M74.37,176.672c-0.012,0.023-0.016,0.052-0.028,0.076c-0.007,0.031-0.004,0.063-0.011,0.094l0,0
					c0-0.031,0.004-0.062,0.011-0.094c-1.237,2.539-2.045,5.534-2.045,8.678c0,4.846,1.902,10.038,7.042,14.417
					c0.139,0.119,0.343,0.122,0.487,0.011l4.178-3.284c0.088-0.068,0.141-0.171,0.147-0.282c0.006-0.111-0.037-0.22-0.118-0.297
					c-2.598-2.488-10.923-11.212-8.945-19.056c0.049-0.189-0.055-0.385-0.24-0.454C74.663,176.411,74.457,176.496,74.37,176.672z
					 M73.071,185.411c0-1.993,0.419-3.865,0.988-5.648c0.217,7.045,6.557,13.959,9.127,16.471c-0.535,0.42-3.128,2.456-3.563,2.8
					C74.873,194.872,73.071,189.984,73.071,185.411z M74.341,176.749L74.341,176.749L74.341,176.749z"/>
			</g>
		</g>
	</g>
	<g>
		<g>
			<path fill="#F69C9C" d="M164.722,117.865c-0.53,0-25.779,7.768-25.779,7.768s1.765,21.188,3.001,22.07
				c1.236,0.885,24.189-6.709,24.543-7.238C166.84,139.935,164.722,117.865,164.722,117.865z"/>
			<path fill="#4A484A" d="M138.829,125.265c-0.173,0.054-0.284,0.22-0.27,0.4c0.418,5.012,1.88,21.437,3.161,22.351
				c0.228,0.162,0.647,0.222,1.95-0.015c4.662-0.853,22.609-6.533,23.137-7.324c0.285-0.427-0.288-8.113-1.702-22.849
				c-0.019-0.199-0.185-0.349-0.383-0.349C164.191,117.479,146.438,122.924,138.829,125.265z M164.38,118.345
				c0.757,7.914,1.766,19.304,1.766,21.62c0,0.131-0.007,0.195-0.015,0.268c-1.967,1.171-22.571,7.642-23.994,7.139
				c-0.689-0.76-1.953-11.572-2.785-21.464C148.773,123.012,162.363,118.868,164.38,118.345z"/>
		</g>
		<g>
			<g>
				<path fill="#FAC6C5" d="M164.722,117.865c-0.101,0-2.962-2.696-2.962-2.696c-0.578,0-28.101,8.469-28.101,8.469
					s0.002,0.024,0.005,0.062c1.483,0.48,3.698,1.227,5.376,1.903C140.678,125.1,164.21,117.865,164.722,117.865z"/>
				<path fill="#4A484A" d="M133.544,123.272c-0.159,0.048-0.26,0.225-0.264,0.391c-0.004,0.165,0.108,0.348,0.264,0.403
					l5.351,1.895c0.078,0.028,0.179,0.035,0.258,0.012c5.196-1.601,24.774-7.603,25.602-7.727c0.147-0.021,0.243-0.15,0.287-0.293
					c0.003-0.009,0.002-0.02,0.004-0.029c0.007-0.029,0.06-0.027,0.06-0.059c0-0.048-0.072-0.046-0.087-0.088
					c-0.022-0.09-0.046-0.186-0.11-0.246l-2.886-2.641c-0.071-0.066-0.168-0.104-0.264-0.104
					C161.169,114.785,140.014,121.28,133.544,123.272z M161.647,115.591c1.175,1.106,1.842,1.721,2.262,2.092
					c-4,1.099-22.183,6.691-24.861,7.516c-0.208-0.075-2.959-1.048-4.253-1.507C145.419,120.426,160.384,115.864,161.647,115.591z"
					/>
			</g>
			<g>
				<path fill="#F2AAA9" d="M139.04,125.603c-1.678-0.676-3.893-1.423-5.376-1.903c0.107,1.273,1.959,23.063,3.266,23.997
					c0.335,0.24,4.899-0.075,5.014,0.005c-1.236-0.882-3.001-22.07-3.001-22.07S138.98,125.622,139.04,125.603z"/>
				<path fill="#4A484A" d="M133.423,123.394c-0.104,0.079-0.155,0.209-0.143,0.337c0.59,6.986,2.103,23.335,3.427,24.28
					c0.258,0.185,0.958,0.203,3.741,0.102l1.418-0.035c0.152-0.004,0.309-0.11,0.368-0.248c0.059-0.142,0.052-0.316-0.051-0.427
					c-0.742-0.8-2.026-11.83-2.857-21.802c-0.013-0.15,0-0.304-0.143-0.353l-5.402-1.913
					C133.659,123.289,133.527,123.313,133.423,123.394z M137.099,147.355c-0.723-0.77-2.059-12.107-3-23.093
					c0.833,0.294,3.971,1.407,4.476,1.585c0.395,4.726,1.629,18.39,2.808,21.464c-0.236,0.007-0.524,0.015-0.964,0.032
					C139.367,147.382,137.408,147.454,137.099,147.355z M141.946,147.319h-0.003H141.946z M141.559,147.703
					c0-0.005,0.005-0.008,0.005-0.015c0.052,0.086,0.105,0.292,0.156,0.328C141.616,147.941,141.559,147.823,141.559,147.703z"/>
			</g>
		</g>
	</g>
</g>
</svg>
