<?xml version="1.0" encoding="utf-8"?>
<!-- Generator: Adobe Illustrator 17.0.0, SVG Export Plug-In . SVG Version: 6.00 Build 0)  -->
<!DOCTYPE svg PUBLIC "-//W3C//DTD SVG 1.1//EN" "http://www.w3.org/Graphics/SVG/1.1/DTD/svg11.dtd">
<svg version="1.1" id="Layer_1" xmlns="http://www.w3.org/2000/svg" xmlns:xlink="http://www.w3.org/1999/xlink" x="0px" y="0px"
	 width="137.09px" height="102.054px" viewBox="0 0 137.09 102.054" enable-background="new 0 0 137.09 102.054"
	 xml:space="preserve">
<g>
	<g>
		<g>
			<path fill="#C69EC5" d="M109.71,40.675L130,52.987c0,0-1.061,7.382-1.653,8.853c-0.591,1.469-33.549,24.067-34.342,24.079
				c-0.79,0.01-3.627-2.574-3.372-3.946C90.891,80.599,108.374,41.056,109.71,40.675z"/>
			<path fill="#4A484A" d="M109.776,40.168l-0.194,0.057c-1.876,0.536-19.336,41.28-19.407,41.663
				c-0.157,0.84,0.489,1.822,1.054,2.496c0.656,0.778,1.989,2.011,2.782,2c1.406-0.017,34.226-23.022,34.77-24.372
				c0.603-1.501,1.638-8.654,1.679-8.959l0.046-0.306l-20.555-12.471L109.776,40.168z M129.493,53.223
				c-0.197,1.347-0.565,3.725-0.927,5.666c-0.235,1.261-0.464,2.319-0.634,2.748c-1.14,1.782-32.137,23.003-33.983,23.798
				c-0.35-0.084-1.414-0.861-2.21-1.903c-0.465-0.607-0.705-1.157-0.647-1.471c0.442-1.997,16.574-38.121,18.704-40.789
				C110.427,41.653,128.988,52.917,129.493,53.223z"/>
		</g>
		<g>
			<path fill="#4A484A" d="M90.633,81.972c0.021-0.105,0.143-0.437,0.35-0.956c1.245,1.45,2.425,2.491,2.782,2.392
				c1.131-0.577,21.594-18.21,35.887-30.63L130,52.987c0,0-0.045,0.32-0.123,0.829c-2.656,2.306-6.942,6.026-11.656,10.098
				c0.018,0,0.041-0.006,0.062-0.002c0.252,0.04,0.422,0.285,0.377,0.539l-0.949,5.452c-0.357,0.253-0.717,0.507-1.08,0.763
				l1.107-6.335c-2.473,2.132-5.041,4.345-7.535,6.49c0.061,0.081,0.101,0.182,0.101,0.289l-0.077,4.027
				c-0.317,0.217-0.63,0.435-0.943,0.652l0.081-4.249c-7.511,6.439-14.16,12.066-15.177,12.68c0.125,0.086,0.213,0.223,0.213,0.389
				l-0.017,1.125c-0.197,0.113-0.339,0.185-0.38,0.185c-0.133,0-0.328-0.075-0.555-0.202l0.018-1.121
				c0.002-0.11,0.048-0.205,0.112-0.285c-0.86-0.145-1.987-1.184-2.95-2.266C90.632,82.022,90.629,81.993,90.633,81.972z"/>
			<path fill="#4A484A" d="M127.527,58.055c0.252,0.032,0.436,0.265,0.405,0.519c-0.151,1.207-0.352,2.762-0.562,4.209
				c-0.294,0.244-0.665,0.535-1.071,0.851c0.241-1.6,0.511-3.586,0.706-5.175C127.037,58.203,127.271,58.021,127.527,58.055z"/>
			<path fill="#4A484A" d="M123.473,61.563c0.253,0.051,0.417,0.3,0.365,0.548l-0.811,3.976c-0.359,0.263-0.733,0.532-1.116,0.813
				l1.012-4.974C122.975,61.674,123.221,61.512,123.473,61.563z"/>
			<path fill="#4A484A" d="M114.231,68.368c0.255,0.03,0.438,0.265,0.403,0.519l-0.428,3.484c-0.343,0.237-0.684,0.475-1.029,0.719
				l0.532-4.316C113.741,68.518,113.972,68.335,114.231,68.368z"/>
			<path fill="#4A484A" d="M107.131,75.696c0.258,0.01,0.461,0.222,0.455,0.48l-0.024,0.795c-0.318,0.221-0.637,0.44-0.951,0.655
				l0.043-1.477C106.662,75.894,106.875,75.691,107.131,75.696z"/>
			<path fill="#4A484A" d="M102.418,78.133c0.258,0.013,0.46,0.228,0.447,0.485l-0.067,1.605c-0.326,0.218-0.649,0.438-0.962,0.649
				l0.099-2.292C101.945,78.323,102.164,78.122,102.418,78.133z"/>
			<path fill="#4A484A" d="M99.182,80.847c0.261,0.008,0.463,0.225,0.451,0.481l-0.03,1.045c-0.332,0.22-0.645,0.427-0.955,0.633
				l0.056-1.709C98.712,81.043,98.926,80.839,99.182,80.847z"/>
		</g>
	</g>
	<g>
		<g>
			<path fill="#FAAE5E" d="M73.408,10.273l-29.465,4.479c0,0-2.332,9.071-2.357,11.06c-0.022,1.991,27.275,44.095,28.19,44.491
				c0.91,0.394,5.447-1.232,5.813-2.947C75.952,65.64,74.774,11.361,73.408,10.273z"/>
			<path fill="#4A484A" d="M73.321,9.695l-29.848,4.537l-0.095,0.377c-0.099,0.371-2.352,9.163-2.378,11.195
				c-0.021,1.827,26.921,44.338,28.543,45.034c0.914,0.397,3.054-0.389,4.191-0.972c0.982-0.51,2.203-1.336,2.426-2.387
				c0.102-0.478-0.471-56.137-2.387-57.663l-0.198-0.16L73.321,9.695z M73.018,10.924c1.181,4.121,2.446,53.785,1.995,56.314
				c-0.084,0.389-0.628,0.912-1.461,1.39c-1.425,0.824-3.033,1.213-3.48,1.139c-1.756-1.812-27.445-41.376-27.908-43.989
				c0.01-0.58,0.257-1.918,0.592-3.492c0.518-2.427,1.239-5.36,1.66-7.015C45.152,15.16,72.104,11.063,73.018,10.924z"/>
		</g>
		<g>
			<path fill="#4A484A" d="M75.588,67.356c0.027-0.131,0.046-0.574,0.056-1.275c-2.143,1.079-4.014,1.715-4.381,1.428
				c-1.03-1.214-16.241-31.533-26.815-52.832l-0.506,0.075c0,0-0.102,0.394-0.257,1.019c1.965,3.957,5.138,10.336,8.638,17.333
				c-0.021-0.009-0.046-0.026-0.072-0.032c-0.312-0.073-0.628,0.128-0.696,0.444l-1.532,6.779c0.291,0.465,0.587,0.934,0.884,1.406
				l1.775-7.879c1.838,3.665,3.747,7.469,5.602,11.159c-0.111,0.067-0.205,0.163-0.257,0.287l-1.853,4.706
				c0.263,0.403,0.52,0.808,0.778,1.21l1.956-4.963c5.599,11.089,10.59,20.823,11.473,22.026c-0.186,0.037-0.354,0.155-0.434,0.346
				l-0.523,1.313c0.175,0.225,0.303,0.378,0.351,0.397c0.153,0.065,0.417,0.072,0.74,0.033l0.519-1.307
				c0.051-0.129,0.043-0.261,0.008-0.386c1.067,0.247,2.876-0.411,4.514-1.202C75.565,67.415,75.583,67.383,75.588,67.356z"/>
			<path fill="#4A484A" d="M44.364,21.821c-0.307-0.084-0.634,0.097-0.72,0.407c-0.407,1.472-0.925,3.372-1.381,5.152
				c0.224,0.423,0.512,0.94,0.83,1.503c0.494-1.972,1.14-4.405,1.681-6.341C44.861,22.23,44.677,21.908,44.364,21.821z"/>
			<path fill="#4A484A" d="M47.371,27.845c-0.319-0.064-0.627,0.145-0.687,0.459l-0.98,5c0.289,0.478,0.593,0.972,0.902,1.481
				l1.228-6.255C47.894,28.215,47.687,27.909,47.371,27.845z"/>
			<path fill="#4A484A" d="M54.8,40.197c-0.311-0.089-0.635,0.094-0.719,0.408l-1.185,4.243c0.283,0.441,0.563,0.881,0.845,1.329
				l1.466-5.259C55.294,40.605,55.115,40.28,54.8,40.197z"/>
			<path fill="#4A484A" d="M59.491,52.117c-0.303-0.112-0.64,0.037-0.757,0.336l-0.357,0.936c0.262,0.408,0.525,0.816,0.786,1.218
				l0.665-1.734C59.942,52.572,59.792,52.234,59.491,52.117z"/>
			<path fill="#4A484A" d="M63.78,57.217c-0.305-0.108-0.643,0.045-0.752,0.347l-0.697,1.892c0.273,0.411,0.541,0.823,0.802,1.218
				l0.994-2.706C64.237,57.666,64.08,57.328,63.78,57.217z"/>
			<path fill="#4A484A" d="M66.221,61.928c-0.304-0.118-0.644,0.035-0.755,0.339l-0.469,1.226c0.279,0.416,0.542,0.806,0.801,1.194
				l0.76-2.007C66.671,62.379,66.521,62.041,66.221,61.928z"/>
		</g>
	</g>
	<g>
		<g>
			<path fill="#CBE193" d="M26.097,50.988L9.697,71.12c0,0,3.043,5.11,4.017,5.927c0.977,0.816,39.204,0.813,39.979,0.403
				c0.772-0.408,2.83-3.885,2.209-4.805C55.277,71.728,27.501,50.575,26.097,50.988z"/>
			<path fill="#4A484A" d="M25.754,50.808L9.14,71.203l0.128,0.21c0.123,0.212,3.076,5.157,4.071,5.996
				c0.896,0.747,39.102,1.13,40.475,0.402c0.774-0.41,1.736-2.057,2.164-3.001c0.367-0.815,0.727-1.906,0.344-2.47
				C56.151,72.083,28.071,50,26.099,50.577l-0.205,0.057L25.754,50.808z M26.173,51.493c2.799,0.926,28.33,20.163,29.305,21.463
				c0.14,0.21,0.058,0.759-0.23,1.469c-0.492,1.218-1.317,2.375-1.634,2.623c-2.013,0.362-37.959,0.389-39.552-0.378
				c-0.283-0.239-0.793-0.932-1.364-1.775c-0.881-1.301-1.885-2.931-2.444-3.86C10.662,70.534,25.665,52.118,26.173,51.493z"/>
		</g>
		<g>
			<path fill="#4A484A" d="M55.901,72.646c-0.049-0.07-0.257-0.26-0.601-0.548c-0.817,1.768-1.682,3.188-2.057,3.301
				c-1.256,0.151-25.972-2.612-43.265-4.622L9.697,71.12c0,0,0.13,0.223,0.344,0.572c3.214,0.373,8.397,0.971,14.093,1.616
				c-0.016,0.008-0.041,0.016-0.062,0.03c-0.232,0.164-0.332,0.441-0.218,0.612l2.407,3.686c0.416,0.008,0.837,0.013,1.259,0.017
				l-2.8-4.281c2.985,0.335,6.087,0.681,9.1,1.015c-0.04,0.094-0.05,0.193-0.022,0.276l1.172,3.05
				c0.366-0.002,0.732,0.002,1.095,0.003l-1.236-3.218c9.062,0.988,17.065,1.809,18.223,1.744c-0.1,0.131-0.147,0.284-0.103,0.409
				l0.322,0.856c0.224-0.019,0.382-0.038,0.422-0.059c0.129-0.069,0.3-0.231,0.484-0.448l-0.323-0.849
				c-0.03-0.083-0.102-0.132-0.187-0.161c0.799-0.566,1.615-1.954,2.257-3.293C55.915,72.686,55.913,72.662,55.901,72.646z"/>
			<path fill="#4A484A" d="M13.482,73.709c-0.235,0.158-0.351,0.434-0.251,0.614c0.474,0.846,1.094,1.935,1.691,2.936
				c0.353,0.03,0.792,0.059,1.274,0.088c-0.671-1.101-1.473-2.485-2.094-3.6C14.001,73.564,13.724,73.548,13.482,73.709z"/>
			<path fill="#4A484A" d="M18.384,74.268c-0.234,0.172-0.325,0.449-0.207,0.612l1.871,2.627c0.422,0.013,0.859,0.022,1.308,0.035
				l-2.337-3.285C18.9,74.091,18.616,74.096,18.384,74.268z"/>
			<path fill="#4A484A" d="M29.232,74.627c-0.242,0.158-0.355,0.434-0.252,0.611l1.363,2.449c0.399,0.002,0.796,0.005,1.199,0.01
				l-1.693-3.031C29.748,74.485,29.471,74.464,29.232,74.627z"/>
			<path fill="#4A484A" d="M38.133,76.515c-0.247,0.143-0.387,0.411-0.311,0.606l0.24,0.599c0.369,0.001,0.738,0.003,1.103,0.001
				l-0.442-1.112C38.646,76.418,38.384,76.375,38.133,76.515z"/>
			<path fill="#4A484A" d="M43.387,75.903c-0.247,0.147-0.386,0.417-0.304,0.609l0.502,1.195c0.376-0.005,0.751-0.006,1.113-0.008
				l-0.72-1.709C43.898,75.8,43.63,75.76,43.387,75.903z"/>
			<path fill="#4A484A" d="M47.274,76.284c-0.251,0.142-0.39,0.414-0.307,0.606l0.314,0.786c0.383-0.005,0.742-0.011,1.101-0.016
				l-0.519-1.283C47.784,76.185,47.521,76.143,47.274,76.284z"/>
		</g>
	</g>
</g>
</svg>
