<?xml version="1.0" encoding="utf-8"?>
<!-- Generator: Adobe Illustrator 17.0.0, SVG Export Plug-In . SVG Version: 6.00 Build 0)  -->
<!DOCTYPE svg PUBLIC "-//W3C//DTD SVG 1.1//EN" "http://www.w3.org/Graphics/SVG/1.1/DTD/svg11.dtd">
<svg version="1.1" id="Layer_1" xmlns="http://www.w3.org/2000/svg" xmlns:xlink="http://www.w3.org/1999/xlink" x="0px" y="0px"
	 width="131.384px" height="120.023px" viewBox="0 0 131.384 120.023" enable-background="new 0 0 131.384 120.023"
	 xml:space="preserve">
<g>
	<g>
		<polygon fill="#FEEA5B" points="106.273,22.138 73.407,29.121 50.903,9.642 45.217,38.866 15.043,53.652 24.058,70.903 
			46.368,79.321 48.258,93.356 57.271,110.607 81.098,88.231 113.657,91.129 104.643,73.878 99.596,65.288 115.29,39.395 		"/>
		<path fill="#4A484A" d="M50.034,9.469c0,0-5.439,27.954-5.607,28.793c-0.765,0.376-30.591,14.994-30.591,14.994l9.594,18.359
			c0,0,21.184,7.994,22.129,8.346c0.129,0.976,1.841,13.662,1.841,13.662l9.626,18.427c0,0,23.824-22.372,24.393-22.9
			c0.768,0.067,33.772,3.006,33.772,3.006l-9.764-18.684c0,0-4.319-7.357-4.802-8.171c0.533-0.878,15.681-25.874,15.681-25.874
			l-9.558-18.291c0,0-32.256,6.852-33.092,7.03c-0.648-0.556-23.33-20.193-23.33-20.193L50.034,9.469z M46.086,39.029
			c0,0,4.864-25.014,5.391-27.72c2.081,1.802,21.686,18.771,21.686,18.771s31.378-6.664,32.639-6.934
			c0.566,1.078,8.049,15.406,8.469,16.214c-0.496,0.825-15.704,25.918-15.704,25.918l5.315,9.048c0,0,6.982,13.37,8.238,15.779
			c-2.912-0.257-31.337-2.787-31.337-2.787s-21.687,20.362-23.267,21.845c-0.945-1.815-8.266-15.822-8.403-16.082
			c-0.039-0.304-1.94-14.398-1.94-14.398s-21.875-8.258-22.485-8.492c-0.288-0.547-7.685-14.711-8.44-16.147
			c1.543-0.755,29.751-14.583,29.751-14.583L46.086,39.029z"/>
	</g>
	<g>
		<path fill="#4A484A" d="M23.368,58.987c-0.455,0.163-0.702,0.67-0.534,1.127l4.29,11.95l2.172,0.82l-4.803-13.368
			C24.337,59.058,23.828,58.822,23.368,58.987z"/>
		<path fill="#4A484A" d="M32.262,60.981c-0.438,0.231-0.601,0.766-0.37,1.197l7.598,14.55l2.483,0.94l-8.514-16.311
			C33.231,60.925,32.693,60.758,32.262,60.981z"/>
		<path fill="#4A484A" d="M29.709,65.648c-0.434,0.225-0.6,0.766-0.378,1.193l3.94,7.538l2.487,0.941l-4.855-9.298
			C30.676,65.59,30.138,65.426,29.709,65.648z"/>
		<path fill="#4A484A" d="M54.685,90.532c-0.432,0.227-0.601,0.765-0.376,1.199l7.596,14.529l1.341-1.261L55.877,90.91
			C55.654,90.474,55.117,90.305,54.685,90.532z"/>
		<path fill="#4A484A" d="M62.796,87.626c-0.427,0.237-0.584,0.779-0.347,1.205l6.161,11.13l1.334-1.252l-5.94-10.738
			C63.764,87.545,63.218,87.391,62.796,87.626z"/>
		<path fill="#4A484A" d="M68.727,79.87c-0.422,0.236-0.587,0.772-0.351,1.202L75.3,93.681l1.334-1.258l-6.7-12.204
			C69.695,79.791,69.155,79.635,68.727,79.87z"/>
		<path fill="#4A484A" d="M73.198,71.876c-0.427,0.247-0.582,0.781-0.34,1.208l8.517,15.177l2.139,0.187L74.4,72.219
			C74.16,71.787,73.62,71.641,73.198,71.876z"/>
		<path fill="#4A484A" d="M86.964,74.004c-0.434,0.24-0.585,0.773-0.355,1.203l7.819,14.214l2.127,0.191l-8.391-15.259
			C87.925,73.925,87.388,73.768,86.964,74.004z"/>
		<path fill="#4A484A" d="M97.679,75.395c-0.431,0.228-0.591,0.763-0.366,1.192l7.361,13.747l2.11,0.188l-7.908-14.768
			C98.647,75.327,98.111,75.164,97.679,75.395z"/>
		<path fill="#4A484A" d="M99.276,43.946c-0.442,0.211-0.633,0.736-0.429,1.181l5.634,12.101l1.106-1.82l-5.137-11.031
			C100.242,43.932,99.717,43.739,99.276,43.946z"/>
		<path fill="#4A484A" d="M102.509,36.268c-0.423,0.238-0.577,0.781-0.334,1.203l6.877,12.226l1.044-1.737l-6.385-11.356
			C103.474,36.177,102.937,36.028,102.509,36.268z"/>
		<path fill="#4A484A" d="M104.416,29.614c-0.434,0.212-0.618,0.74-0.408,1.181l7.323,15.126l1.097-1.801l-6.824-14.102
			C105.389,29.588,104.858,29.401,104.416,29.614z"/>
	</g>
	<g>
		<polygon fill="#F89A5E" points="104.643,73.878 72.084,70.981 48.258,93.356 44.4,64.731 15.043,53.652 45.217,38.866 
			50.903,9.642 73.407,29.121 106.273,22.138 90.015,48.976 		"/>
		<path fill="#4A484A" d="M50.034,9.469c0,0-5.439,27.954-5.607,28.793c-0.765,0.376-31.61,15.496-31.61,15.496
			S42.632,65.01,43.59,65.369c0.137,1.01,4.021,29.812,4.021,29.812S71.839,72.43,72.402,71.897
			c0.771,0.066,33.871,3.017,33.871,3.017S91.562,49.862,91.047,48.987c0.529-0.871,17.045-28.133,17.045-28.133
			s-33.599,7.134-34.436,7.313c-0.648-0.556-23.33-20.193-23.33-20.193L50.034,9.469z M46.086,39.029c0,0,4.864-25.014,5.391-27.72
			c2.081,1.802,21.686,18.771,21.686,18.771s27.771-5.901,31.297-6.649c-1.852,3.059-15.478,25.537-15.478,25.537
			s12.489,21.254,14.028,23.879c-3.076-0.276-31.241-2.782-31.241-2.782S51.153,89.419,48.906,91.532
			c-0.403-3.01-3.704-27.442-3.704-27.442s-24.589-9.283-27.928-10.549c3.233-1.585,28.724-14.078,28.724-14.078L46.086,39.029z"/>
	</g>
</g>
</svg>
