<?xml version="1.0" encoding="utf-8"?>
<!-- Generator: Adobe Illustrator 17.0.0, SVG Export Plug-In . SVG Version: 6.00 Build 0)  -->
<!DOCTYPE svg PUBLIC "-//W3C//DTD SVG 1.1//EN" "http://www.w3.org/Graphics/SVG/1.1/DTD/svg11.dtd">
<svg version="1.1" id="Layer_1" xmlns="http://www.w3.org/2000/svg" xmlns:xlink="http://www.w3.org/1999/xlink" x="0px" y="0px"
	 width="81.258px" height="80.204px" viewBox="0 0 81.258 80.204" enable-background="new 0 0 81.258 80.204" xml:space="preserve">
<g>
	<g>
		<path fill="#C69EC5" d="M55.529,24.986c0.146-0.929,0.281-7.209,0.281-7.209s-5.337-2.434-7.209-2.434l-0.468,4.775
			c0,0-3.838-0.656-6.366-0.656l-0.281-3.558c0,0-4.306-0.655-7.583,1.873l0.936,3.277c0,0-4.775,1.592-5.524,3.464l-2.06-3.277
			c0,0-3.464,1.872-4.213,3.558c0,0,5.149,7.677,5.898,8.239c0.749,0.562,1.966,2.059,7.677,0.935
			C42.328,32.85,55.062,27.982,55.529,24.986z"/>
		<path fill="#4A484A" d="M48.321,15.316c0,0-0.387,3.953-0.438,4.476c-0.9-0.145-3.721-0.57-5.856-0.603
			c-0.034-0.435-0.261-3.306-0.261-3.306c-0.01-0.13-0.108-0.236-0.237-0.255c-0.181-0.027-4.463-0.644-7.798,1.928
			c-0.069,0.054-0.109,0.137-0.109,0.222c0,0.026,0.003,0.051,0.011,0.077c0,0,0.739,2.588,0.863,3.022
			c-0.927,0.331-4.114,1.576-5.175,3.124c-0.365-0.581-1.828-2.908-1.828-2.908c-0.079-0.125-0.241-0.169-0.371-0.098
			c-0.145,0.078-3.558,1.938-4.336,3.691c-0.039,0.088-0.03,0.191,0.023,0.271c0.529,0.79,5.198,7.734,5.963,8.308l0.187,0.148
			c0.818,0.663,2.34,1.896,7.713,0.838c5.445-1.071,18.628-5.968,19.136-9.22l0,0c0.146-0.937,0.278-6.989,0.284-7.247
			c0.002-0.112-0.062-0.215-0.165-0.262c-0.22-0.1-5.415-2.459-7.326-2.459C48.457,15.062,48.335,15.172,48.321,15.316z
			 M48.303,20.341c0.062-0.047,0.102-0.119,0.109-0.196c0,0,0.391-3.986,0.44-4.49c1.79,0.155,5.904,1.958,6.672,2.301
			c-0.02,0.899-0.143,6.158-0.273,6.986l0,0c-0.431,2.761-12.957,7.628-18.689,8.756c-5.116,1.006-6.505-0.119-7.252-0.724
			l-0.203-0.161c-0.514-0.385-3.671-4.951-5.734-8.022c0.689-1.314,3.054-2.753,3.785-3.172c0.248,0.393,1.917,3.049,1.917,3.049
			c0.056,0.089,0.157,0.14,0.263,0.13c0.105-0.009,0.196-0.077,0.235-0.175c0.574-1.436,4.058-2.87,5.352-3.302
			c0.117-0.04,0.192-0.149,0.192-0.267c0-0.025-0.003-0.052-0.011-0.078c0,0-0.774-2.71-0.877-3.071
			c2.782-2.04,6.231-1.826,6.993-1.746c0.033,0.406,0.263,3.325,0.263,3.325c0.011,0.146,0.133,0.259,0.28,0.259
			c2.475,0,6.281,0.646,6.319,0.652C48.163,20.408,48.24,20.388,48.303,20.341z"/>
	</g>
	<g>
		<path fill="#C69EC5" d="M51.317,27.233c0,0-5.711-2.06-12.078,0.281c-6.367,2.341-4.962,6.929-4.962,6.929
			s12.266,23.031,13.576,23.125c1.311,0.094,16.01-5.804,16.01-7.115C63.862,49.141,55.249,36.502,51.317,27.233z"/>
		<path fill="#4A484A" d="M39.142,27.25c-6.541,2.405-5.149,7.227-5.134,7.274c3.73,7.016,12.501,23.229,13.824,23.323
			c1.416,0.101,14.123-5.087,15.972-6.81l0.339-0.586c0-0.592-1.14-2.538-3.511-6.53c-2.851-4.801-6.756-11.376-9.057-16.799
			c-0.03-0.072-0.089-0.128-0.163-0.155C51.354,26.948,45.53,24.902,39.142,27.25z M47.872,57.287
			c-1.049-0.464-8.75-14.341-13.348-22.977c-0.032-0.126-1.216-4.317,4.812-6.533c5.947-2.187,11.31-0.471,11.779-0.313
			c2.321,5.434,6.195,11.965,9.034,16.745c1.765,2.972,3.432,5.778,3.432,6.243C63.202,51.665,49.212,57.384,47.872,57.287z"/>
	</g>
	<g>
		<path fill="#4A484A" d="M51.563,27.802c-0.075-0.173-0.152-0.346-0.224-0.517c-4.837,1.529-11.934,5.348-12.997,14.66
			c0.159,0.292,0.321,0.584,0.485,0.882C39.53,33.192,46.73,29.318,51.563,27.802z"/>
		<path fill="#4A484A" d="M54.457,33.697c-0.089-0.167-0.177-0.334-0.265-0.501c-4.81,1.593-11.59,5.435-12.658,14.483
			c0.162,0.285,0.322,0.568,0.482,0.85C42.749,39.161,49.648,35.272,54.457,33.697z"/>
		<path fill="#4A484A" d="M58.155,40.28c-4.907,1.791-11.354,5.901-12.024,15.147c0.184,0.283,0.353,0.533,0.514,0.767
			c0.357-9.515,6.898-13.655,11.797-15.422C58.348,40.608,58.252,40.444,58.155,40.28z"/>
	</g>
	<g>
		<path fill="#E8D3E7" d="M39.238,27.514c-6.367,2.341-4.962,6.929-4.962,6.929s12.266,23.031,13.576,23.125
			c0.587,0.042,3.861-1.119,7.296-2.53c-7.032-8.33-12.883-16.98-15.109-27.786C39.773,27.335,39.507,27.415,39.238,27.514z"/>
		<path fill="#4A484A" d="M39.955,26.984l-0.137,0.042l-0.676,0.224c-4.572,1.681-5.268,4.542-5.268,6.129
			c0,0.683,0.129,1.13,0.133,1.145c3.73,7.016,12.501,23.229,13.824,23.323c0.71,0.051,4.346-1.286,7.423-2.551
			c0.083-0.035,0.145-0.106,0.166-0.193c0.021-0.087,0-0.181-0.058-0.248c-6.116-7.246-12.688-16.198-15.049-27.662
			c-0.016-0.078-0.064-0.146-0.133-0.185C40.112,26.969,40.03,26.959,39.955,26.984z M39.841,27.61
			c2.408,11.284,8.809,20.126,14.845,27.308c-3.678,1.497-6.395,2.399-6.814,2.369c-1.049-0.464-8.75-14.341-13.348-22.977
			c-0.009-0.036-0.115-0.411-0.115-0.98c0-1.401,0.639-3.976,4.926-5.552c0-0.001,0.002-0.001,0,0
			C39.336,27.778,39.667,27.668,39.841,27.61z M39.142,27.25L39.142,27.25C39.142,27.25,39.14,27.251,39.142,27.25z"/>
	</g>
	<g>
		<path fill="#4A484A" d="M40.636,29.752c-0.048-0.183-0.103-0.364-0.149-0.548c-3.112,1.111-4.998,3.447-6.091,5.463
			c0.075,0.14,0.187,0.349,0.327,0.611C35.737,33.306,37.557,30.88,40.636,29.752z"/>
		<path fill="#4A484A" d="M41.293,31.99c-0.059-0.185-0.123-0.367-0.179-0.552c-2.821,1.407-4.459,3.851-5.356,5.764
			c0.107,0.2,0.223,0.413,0.34,0.628C36.906,35.997,38.481,33.439,41.293,31.99z"/>
		<path fill="#4A484A" d="M42.229,34.652c-0.069-0.178-0.133-0.36-0.201-0.54c-2.57,1.333-4.137,3.522-5.048,5.343
			c0.109,0.199,0.219,0.402,0.333,0.61C38.151,38.297,39.674,36.016,42.229,34.652z"/>
		<path fill="#4A484A" d="M43.355,37.327c-0.078-0.173-0.164-0.344-0.24-0.518c-2.394,1.303-3.897,3.347-4.796,5.094
			c0.11,0.201,0.222,0.404,0.335,0.609C39.489,40.798,40.954,38.659,43.355,37.327z"/>
		<path fill="#4A484A" d="M44.28,39.255c-0.085-0.169-0.175-0.337-0.258-0.507c-2.321,1.289-3.799,3.277-4.691,4.992
			c0.111,0.201,0.225,0.404,0.337,0.607C40.501,42.656,41.941,40.575,44.28,39.255z"/>
		<path fill="#4A484A" d="M45.588,41.704c-0.093-0.165-0.184-0.333-0.276-0.499c-2.285,1.356-3.708,3.388-4.555,5.092
			c0.113,0.201,0.225,0.401,0.337,0.601C41.882,45.228,43.281,43.092,45.588,41.704z"/>
		<path fill="#4A484A" d="M47.306,44.557c-0.102-0.161-0.206-0.32-0.307-0.481c-2.313,1.324-3.769,3.339-4.64,5.054
			c0.115,0.201,0.228,0.396,0.342,0.594C43.519,48.031,44.954,45.907,47.306,44.557z"/>
		<path fill="#4A484A" d="M48.842,46.879c-0.109-0.157-0.213-0.316-0.321-0.474c-2.386,1.373-3.853,3.482-4.71,5.229
			c0.116,0.198,0.233,0.397,0.347,0.588C44.959,50.505,46.411,48.278,48.842,46.879z"/>
		<path fill="#4A484A" d="M49.978,48.483c-2.476,1.406-3.973,3.606-4.826,5.389c0.122,0.2,0.24,0.389,0.357,0.577
			c0.796-1.748,2.275-4.073,4.808-5.502C50.204,48.792,50.091,48.637,49.978,48.483z"/>
	</g>
	<g>
		<g>
			<path fill="#E8D3E7" d="M61.147,51.295c-6.783,2.068-13.997,10.417-11.002,13.885c1.617,1.107,5.44,1.812,11.658-1.901
				c6.273-3.745,6.648-9.737,5.056-12.733c-0.017-0.032-0.051-0.077-0.071-0.112C65.689,50.289,63.944,50.442,61.147,51.295z"/>
			<path fill="#4A484A" d="M61.065,51.026L61.065,51.026c-5.016,1.53-10.469,6.514-11.669,10.666
				c-0.432,1.496-0.247,2.767,0.536,3.672c1.015,0.706,4.717,2.514,12.015-1.843c6.349-3.791,6.839-9.946,5.16-13.106
				c-0.053-0.086-0.077-0.121-0.077-0.121c-0.044-0.069-0.125-0.127-0.206-0.139C65.479,49.978,63.541,50.271,61.065,51.026z
				 M50.303,64.949c-0.607-0.719-0.749-1.778-0.367-3.101c1.134-3.926,6.517-8.828,11.292-10.284l0,0
				c2.323-0.708,4.13-0.993,5.392-0.859c0.47,0.897,0.755,2.044,0.755,3.312c0,2.94-1.515,6.512-5.716,9.021
				C54.647,67.224,51.194,65.558,50.303,64.949z M66.64,50.705c0.026,0.003,0.058,0.002,0.084,0.006
				C66.68,50.711,66.66,50.717,66.64,50.705z"/>
		</g>
		<g>
			<path fill="#9E779E" d="M60.544,54.015c-4.228,1.229-8.723,6.188-6.857,8.248c1.007,0.658,3.391,1.076,7.265-1.129
				c3.909-2.224,4.143-5.784,3.15-7.564c-0.01-0.018-0.032-0.045-0.044-0.066C63.374,53.418,62.286,53.508,60.544,54.015z"/>
			<path fill="#4A484A" d="M60.465,53.745c-3.154,0.917-6.665,4.005-7.366,6.482c-0.085,0.299-0.127,0.583-0.127,0.85
				c0,0.537,0.17,1.003,0.506,1.375c0.666,0.445,3.015,1.542,7.612-1.074c4.025-2.29,4.328-6.024,3.257-7.945
				c-0.043-0.078-0.166-0.197-0.254-0.208C63.239,53.117,62.019,53.293,60.465,53.745z M53.84,62.028
				c-0.317-0.364-0.403-0.934-0.201-1.648c0.657-2.319,3.985-5.224,6.982-6.095l0,0c1.397-0.407,2.488-0.575,3.261-0.511
				c0.269,0.51,0.437,1.148,0.437,1.858c0,1.708-0.929,3.791-3.506,5.258C57.38,62.844,54.96,62.759,53.84,62.028z M60.465,53.745
				L60.465,53.745L60.465,53.745z"/>
		</g>
		<g>
			<path fill="#C69EC5" d="M62.738,46.333c-0.749-0.187-4.774-1.03-11.047,3.558c-6.273,4.588-5.993,8.333-5.805,9.924
				s2.621,4.213,4.213,5.337c0.014,0.01,0.031,0.019,0.045,0.028c-2.994-3.468,4.219-11.817,11.002-13.885
				c2.797-0.853,4.542-1.005,5.64-0.861C66.063,49.19,63.467,46.515,62.738,46.333z"/>
			<path fill="#4A484A" d="M51.526,49.664c-6.554,4.793-6.092,8.709-5.918,10.184c0.197,1.674,2.655,4.351,4.33,5.533
				c0.116,0.082,0.297,0.079,0.393-0.026c0.095-0.105,0.12-0.25,0.027-0.358c-0.662-0.767-0.803-1.826-0.421-3.149
				c1.134-3.926,6.517-8.828,11.292-10.284c2.399-0.731,4.257-1.018,5.521-0.851c0.107,0.014,0.211-0.034,0.271-0.123
				c0.06-0.089,0.063-0.205,0.009-0.297c-0.679-1.167-3.339-4.011-4.223-4.232l0,0C61.695,45.782,57.598,45.222,51.526,49.664z
				 M46.165,59.782c-0.032-0.272-0.074-0.633-0.074-1.071c0-1.795,0.712-4.897,5.766-8.594c5.876-4.297,9.763-3.774,10.814-3.512
				c0.521,0.13,2.591,2.152,3.569,3.515c-1.302-0.045-3.029,0.252-5.174,0.905c-5.016,1.53-10.469,6.514-11.669,10.666
				c-0.152,0.526-0.228,1.025-0.228,1.489c0,0.346,0.071,0.657,0.155,0.962C47.895,62.883,46.309,61.003,46.165,59.782z
				 M66.824,50.155c-0.012-0.001-0.026,0-0.037-0.002C66.799,50.153,66.811,50.154,66.824,50.155z"/>
		</g>
	</g>
	<g>
		<path fill="#4A484A" d="M64.528,47.754c-3.476,0.097-7.751,1.355-11.504,4.062c-3.757,2.71-5.64,6.922-6.5,9.537
			c0.121,0.198,0.247,0.397,0.394,0.599c0.764-2.481,2.59-6.906,6.436-9.68c3.862-2.786,8.269-4,11.708-3.972
			C64.883,48.111,64.707,47.931,64.528,47.754z"/>
	</g>
</g>
</svg>
