<?xml version="1.0" encoding="utf-8"?>
<!-- Generator: Adobe Illustrator 17.0.0, SVG Export Plug-In . SVG Version: 6.00 Build 0)  -->
<!DOCTYPE svg PUBLIC "-//W3C//DTD SVG 1.1//EN" "http://www.w3.org/Graphics/SVG/1.1/DTD/svg11.dtd">
<svg version="1.1" id="Layer_1" xmlns="http://www.w3.org/2000/svg" xmlns:xlink="http://www.w3.org/1999/xlink" x="0px" y="0px"
	 width="228.738px" height="194.51px" viewBox="0 0 228.738 194.51" enable-background="new 0 0 228.738 194.51"
	 xml:space="preserve">
<g>
	<g>
		<path fill="#FEDE58" d="M144.192,138.679c0,0,13.3,2.789,14.586,10.296c1.288,7.508,0,13.3,1.502,15.66
			c1.501,2.36,11.798,0.644,12.442-3.432c0.644-4.076,0.254-12.897-1.501-18.019c-2.574-7.507-11.155-7.723-11.155-7.723
			L144.192,138.679z"/>
		<path fill="#4A484A" d="M144.128,138.364c-0.15,0.03-0.258,0.162-0.258,0.314s0.107,0.285,0.255,0.316
			c0.132,0.027,13.102,2.831,14.337,10.036c0.608,3.545,0.638,6.741,0.661,9.31c0.029,2.991,0.049,5.152,0.886,6.468
			c0.883,1.387,3.956,1.45,6.611,0.898c2.857-0.595,6.046-2.077,6.422-4.453c0.687-4.355,0.173-13.243-1.516-18.174
			c-2.618-7.631-11.364-7.938-11.453-7.94L144.128,138.364z M160.13,135.776c0.011,0.008,8.317,0.309,10.787,7.512
			c1.801,5.253,2.084,14.09,1.488,17.865c-0.324,2.055-3.39,3.398-5.917,3.923c-2.792,0.581-5.343,0.317-5.936-0.614
			c-0.737-1.16-0.759-3.352-0.785-6.128c-0.023-2.592-0.054-5.818-0.671-9.413c-1.081-6.307-10.034-9.285-13.458-10.207
			C147.939,138.248,160.13,135.776,160.13,135.776z"/>
	</g>
	<g>
		<path fill="#4A484A" d="M168.091,138.561c-3.279,0.625-8.624,2.124-12.236,5.549c0.161,0.145,0.316,0.294,0.467,0.446
			c3.65-3.432,9.238-4.871,12.37-5.435C168.496,138.925,168.297,138.737,168.091,138.561z"/>
		<path fill="#4A484A" d="M170.838,142.26c-3.152,1.548-8.511,4.112-12.359,5.588c0.07,0.202,0.133,0.408,0.186,0.617
			c3.869-1.481,9.244-4.051,12.419-5.61C171.008,142.65,170.923,142.453,170.838,142.26z"/>
		<path fill="#4A484A" d="M172.492,148.924c-2.05,0.931-7.261,3.024-13.292,3.336c0.019,0.215,0.041,0.431,0.057,0.642
			c5.952-0.314,11.111-2.325,13.32-3.311C172.549,149.369,172.522,149.145,172.492,148.924z"/>
		<path fill="#4A484A" d="M172.975,154.584c-0.01-0.274-0.02-0.546-0.034-0.823c-2.259,2.052-6.81,5.096-13.496,4.676
			c0.002,0.219,0.004,0.433,0.007,0.643C165.963,159.476,170.515,156.692,172.975,154.584z"/>
		<path fill="#4A484A" d="M159.521,161.364c0.013,0.242,0.034,0.472,0.056,0.696c5.696,1.882,10.3,0.232,13.243-1.583
			c0.028-0.238,0.05-0.492,0.072-0.753C170.078,161.594,165.433,163.442,159.521,161.364z"/>
	</g>
	<g>
		<g>
			<path fill="#FEDE58" d="M165.669,130.739c0,0,11.767-6.796,17.736-2.063c5.967,4.733,8.874,9.906,11.568,10.661
				c2.693,0.756,9.217-7.393,6.977-10.859c-2.241-3.465-8.416-9.776-13.142-12.419c-6.927-3.875-13.462,1.691-13.462,1.691
				L165.669,130.739z"/>
			<path fill="#4A484A" d="M175.136,117.505l-9.724,13.041c-0.092,0.123-0.084,0.292,0.018,0.406c0.101,0.115,0.268,0.142,0.4,0.065
				c0.115-0.067,11.646-6.632,17.374-2.089c2.817,2.235,4.973,4.595,6.705,6.493c2.017,2.209,3.474,3.805,4.976,4.226
				c1.584,0.444,3.916-1.56,5.523-3.742c1.732-2.35,3.117-5.581,1.811-7.601c-2.395-3.703-8.707-9.982-13.256-12.526
				C181.922,111.84,175.203,117.448,175.136,117.505z M175.602,117.943c0.016-0.002,6.402-5.32,13.047-1.603
				c4.845,2.71,10.954,9.103,13.03,12.313c1.13,1.746-0.259,4.792-1.789,6.87c-1.692,2.296-3.768,3.802-4.832,3.504
				c-1.323-0.371-2.803-1.99-4.674-4.041c-1.748-1.914-3.922-4.296-6.78-6.562c-4.962-3.936-13.577-0.266-16.824,1.36
				C168.202,127.877,175.602,117.943,175.602,117.943z"/>
		</g>
		<g>
			<path fill="#4A484A" d="M183.392,114.705c-2.025,2.654-5.008,7.337-5.411,12.298c0.216,0.001,0.431,0.009,0.644,0.021
				c0.428-4.992,3.63-9.792,5.587-12.303C183.936,114.705,183.662,114.698,183.392,114.705z"/>
			<path fill="#4A484A" d="M187.904,115.626c-1.313,3.255-3.595,8.742-5.476,12.409c0.187,0.104,0.37,0.215,0.55,0.336
				c1.893-3.685,4.183-9.186,5.507-12.466C188.291,115.805,188.098,115.714,187.904,115.626z"/>
			<path fill="#4A484A" d="M193.584,119.487c-0.905,2.061-3.39,7.097-7.675,11.353c0.159,0.147,0.318,0.294,0.471,0.44
				c4.223-4.204,6.725-9.145,7.712-11.353C193.924,119.779,193.754,119.632,193.584,119.487z"/>
			<path fill="#4A484A" d="M197.721,123.379c-0.19-0.198-0.38-0.393-0.575-0.591c-0.313,3.036-1.673,8.34-6.932,12.488
				c0.148,0.161,0.293,0.319,0.435,0.474C195.761,131.702,197.295,126.591,197.721,123.379z"/>
			<path fill="#4A484A" d="M192.222,137.407c0.172,0.171,0.341,0.328,0.507,0.482c5.498-2.399,7.827-6.7,8.808-10.016
				c-0.139-0.195-0.292-0.399-0.449-0.608C200.24,130.534,198.012,135.011,192.222,137.407z"/>
		</g>
	</g>
	<g>
		<g>
			<path fill="#FEDE58" d="M67.151,112.108c0,0-13.497,1.598-15.443,8.963c-1.948,7.364-1.18,13.247-2.884,15.465
				c-1.706,2.217-11.811-0.405-12.089-4.523c-0.28-4.117,0.89-12.869,3.094-17.815c3.229-7.25,11.796-6.703,11.796-6.703
				L67.151,112.108z"/>
			<path fill="#4A484A" d="M39.534,114.067c-2.12,4.761-3.42,13.569-3.121,17.968c0.162,2.4,3.205,4.159,6,5.005
				c2.596,0.785,5.662,0.995,6.666-0.309c0.95-1.236,1.161-3.385,1.455-6.361c0.252-2.557,0.564-5.74,1.485-9.217
				c1.868-7.067,15.036-8.71,15.169-8.726c0.152-0.018,0.271-0.139,0.283-0.291c0.012-0.152-0.083-0.293-0.228-0.336l-15.526-4.614
				C51.556,107.168,42.816,106.698,39.534,114.067z M42.599,136.424c-2.468-0.748-5.404-2.358-5.545-4.432
				c-0.257-3.814,0.809-12.591,3.069-17.662c3.097-6.955,11.398-6.518,11.482-6.513c0,0,11.857,3.53,14.105,4.199
				c-3.492,0.614-12.678,2.785-14.312,8.973c-0.934,3.528-1.251,6.739-1.505,9.319c-0.273,2.761-0.488,4.943-1.325,6.032
				C47.896,137.214,45.328,137.251,42.599,136.424z"/>
		</g>
		<g>
			<path fill="#4A484A" d="M43.355,109.873c3.211,0.912,8.403,2.88,11.697,6.612c-0.173,0.13-0.34,0.265-0.505,0.403
				c-3.332-3.743-8.77-5.672-11.84-6.511C42.92,110.198,43.135,110.028,43.355,109.873z"/>
			<path fill="#4A484A" d="M40.292,113.312c3.001,1.821,8.113,4.85,11.815,6.662c-0.088,0.195-0.168,0.395-0.239,0.599
				c-3.723-1.819-8.851-4.855-11.873-6.691C40.09,113.686,40.189,113.497,40.292,113.312z"/>
			<path fill="#4A484A" d="M38.052,119.804c1.959,1.108,6.965,3.655,12.945,4.5c-0.04,0.213-0.08,0.426-0.115,0.635
				c-5.9-0.84-10.86-3.301-12.973-4.479C37.956,120.241,38.004,120.021,38.052,119.804z"/>
			<path fill="#4A484A" d="M37.07,125.398c0.034-0.271,0.069-0.542,0.106-0.817c2.069,2.244,6.333,5.68,13.028,5.855
				c-0.021,0.217-0.044,0.431-0.065,0.64C43.621,130.893,39.333,127.716,37.07,125.398z"/>
			<path fill="#4A484A" d="M49.871,133.344c-0.037,0.241-0.077,0.467-0.119,0.69c-5.84,1.369-10.28-0.682-13.05-2.752
				c-0.006-0.239-0.006-0.494-0.004-0.755C39.333,132.638,43.798,134.89,49.871,133.344z"/>
		</g>
	</g>
	<g>
		<path fill="#B797B7" d="M121.224,85.536c-26.289-3.065-64.08,1.388-71.343,16.185c-7.263,14.796,19.8,31.846,62.347,38.781
			c42.546,6.936,69.963-6.183,66.33-21.673C174.927,103.338,148.985,88.772,121.224,85.536z"/>
		<path fill="#4A484A" d="M49.591,101.579c-1.72,3.505-1.61,7.183,0.326,10.934c6.216,12.044,30.654,23.155,62.26,28.307
			c34.376,5.604,55.442-1.907,63.034-10.04c3.389-3.63,4.654-7.788,3.66-12.025c-3.625-15.463-28.929-30.195-57.608-33.539
			C96.026,82.274,57.08,86.323,49.591,101.579z M112.279,140.185c-31.41-5.121-55.665-16.098-61.791-27.967
			c-1.837-3.56-1.944-7.044-0.319-10.355c7.358-14.99,45.971-18.928,71.017-16.007c27.954,3.258,53.551,18.084,57.059,33.046
			c0.941,4.018-0.273,7.973-3.504,11.438C167.255,138.358,146.406,145.748,112.279,140.185z"/>
	</g>
	<g>
		<path fill="#4A484A" d="M60.929,98.934l-0.371-0.525c-0.403,0.285-7.496,5.369-11.165,12.054c0.095,0.273,0.204,0.546,0.319,0.82
			C53.283,104.415,60.831,99.004,60.929,98.934z"/>
		<path fill="#4A484A" d="M55.281,118.739c0.177,0.163,0.37,0.323,0.553,0.486c1.787-6.95,7.349-14.155,7.416-14.241l-0.508-0.396
			C62.47,104.936,57.151,111.818,55.281,118.739z"/>
		<path fill="#4A484A" d="M64.976,125.593c0.192,0.109,0.394,0.217,0.59,0.324c1.915-6.418,7.564-12.148,7.633-12.217l-0.455-0.455
			C72.459,113.529,66.938,119.124,64.976,125.593z"/>
		<path fill="#4A484A" d="M76.204,130.911c0.201,0.081,0.398,0.162,0.602,0.242c1.916-6.959,5.734-14.223,5.781-14.312l-0.567-0.302
			C81.971,116.629,78.152,123.893,76.204,130.911z"/>
		<path fill="#4A484A" d="M87.695,134.915c0.209,0.063,0.421,0.125,0.63,0.187c0.847-7.052,3.582-15.954,3.618-16.064l-0.616-0.19
			C91.189,119.295,88.545,127.901,87.695,134.915z"/>
		<path fill="#4A484A" d="M102.262,122.235c0.026,0.11,2.317,10.012,0.66,16.532c0.21,0.044,0.42,0.09,0.632,0.133
			c1.69-6.644-0.558-16.36-0.667-16.813L102.262,122.235z"/>
		<path fill="#4A484A" d="M118.023,126.718c0.016,0.086,1.25,7.767-0.3,14.568c0.215,0.028,0.428,0.054,0.643,0.08
			c1.555-6.92,0.307-14.666,0.293-14.753L118.023,126.718z"/>
		<path fill="#4A484A" d="M132.185,127.7c0.02,0.092,1.767,8.238,1.018,14.686c0.216,0.003,0.436,0.009,0.651,0.01
			c0.748-6.505-0.959-14.456-1.04-14.833L132.185,127.7z"/>
		<path fill="#4A484A" d="M143.191,126.547c0.064,0.078,5.787,7.236,5.609,14.897c0.214-0.03,0.432-0.058,0.643-0.089
			c0.125-7.868-5.688-15.133-5.755-15.213L143.191,126.547z"/>
		<path fill="#4A484A" d="M155.081,124.918c0.052,0.074,4.643,6.804,5.562,13.87c0.213-0.068,0.413-0.144,0.623-0.214
			c-0.986-7.183-5.604-13.946-5.656-14.021L155.081,124.918z"/>
		<path fill="#4A484A" d="M163.778,121.07c0.057,0.073,4.918,6.473,6.106,13.553c0.196-0.12,0.397-0.237,0.586-0.36
			c-1.293-7.148-6.125-13.512-6.181-13.586L163.778,121.07z"/>
		<path fill="#4A484A" d="M168.364,116.727l-0.295,0.572c0.082,0.042,6.803,3.616,9.059,10.38c0.15-0.255,0.297-0.51,0.426-0.768
			C175.042,120.254,168.447,116.769,168.364,116.727z"/>
		<path fill="#4A484A" d="M177.607,115.91c-3.892-2.921-8.599-4.021-8.676-4.038l-0.141,0.628c0.082,0.018,5.376,1.272,9.257,4.595
			C177.911,116.699,177.77,116.304,177.607,115.91z"/>
	</g>
	<g>
		<path fill="#FAC6C5" d="M121.488,85.626C97.512,82.27,64.97,84.641,57.848,95.775c-7.121,11.134,14.913,24.937,53.653,31.892
			c38.738,6.955,64.26-2.124,61.425-14.205C170.096,101.381,146.803,89.17,121.488,85.626z"/>
		<path fill="#4A484A" d="M57.577,95.602c-1.613,2.522-1.815,5.21-0.601,7.987c4.276,9.782,25.147,19.13,54.469,24.394
			c31.342,5.627,52.374,0.763,59.317-6.556c2.29-2.415,3.147-5.194,2.479-8.039c-2.832-12.084-25.546-24.419-51.709-28.081
			C96.21,81.763,64.556,84.692,57.577,95.602z M111.558,127.35c-28.67-5.148-49.865-14.576-53.992-24.02
			c-1.123-2.569-0.936-5.052,0.554-7.382c6.843-10.696,38.198-13.521,63.325-10.004c25.485,3.568,48.44,15.945,51.171,27.591
			c0.623,2.661-0.158,5.168-2.321,7.448C163.47,128.177,142.664,132.935,111.558,127.35z"/>
	</g>
	<g>
		<path fill="#D1B1D0" d="M121.238,77.113C99.5,74.269,68.252,78.4,62.246,92.129c-6.006,13.729,19.52,25.312,54.702,31.748
			c35.182,6.436,54.702-1.502,51.699-15.875C165.644,93.63,144.193,80.115,121.238,77.113z"/>
		<path fill="#4A484A" d="M61.951,92c-1.316,3.007-1.195,6.014,0.361,8.939c4.967,9.343,24.861,17.819,54.578,23.255
			c23.347,4.27,41.651,2.344,48.965-5.155c2.925-2.998,3.999-6.836,3.108-11.102c-3-14.358-23.945-28.038-47.682-31.143
			C100.391,74.061,68.152,77.825,61.951,92z M117.005,123.561c-29.521-5.4-49.249-13.755-54.124-22.924
			c-1.458-2.741-1.572-5.561-0.339-8.379c6.073-13.886,37.968-17.533,58.655-14.826c23.091,3.021,44.236,16.765,47.134,30.637
			c0.857,4.104-0.13,7.644-2.938,10.521C158.23,125.934,140.142,127.793,117.005,123.561z"/>
	</g>
	<g>
		<path fill="#E5D4E5" d="M168.647,108.003c-2.072-9.916-12.928-19.424-26.999-25.353c6.621,8.038,8.092,20.073,3.401,26.64
			c-6.567,7.976-15.364,12.521-25.192,15.09C153.199,129.86,171.566,121.974,168.647,108.003z"/>
		<path fill="#4A484A" d="M141.39,82.457c-0.088,0.119-0.085,0.283,0.009,0.397c6.539,7.936,8.058,19.711,3.389,26.248
			c-5.947,7.221-14.132,12.122-25.012,14.966c-0.148,0.038-0.247,0.174-0.241,0.326c0.008,0.151,0.12,0.277,0.269,0.302
			c22.31,3.667,39.126,1.572,46.14-5.751c2.856-2.982,3.9-6.789,3.019-11.009c-1.996-9.555-12.415-19.358-27.19-25.583
			C141.637,82.296,141.478,82.339,141.39,82.457z M145.298,109.495c1.909-2.673,2.826-6.178,2.826-9.943
			c0-5.417-1.968-11.328-5.551-16.115c14.007,6.158,23.854,15.513,25.758,24.631c0.199,0.954,0.299,1.877,0.299,2.77
			c0,2.904-1.054,5.472-3.153,7.662c-6.721,7.019-22.813,9.087-44.227,5.759C131.58,121.332,139.503,116.53,145.298,109.495z"/>
	</g>
	<g>
		<path fill="#4A484A" d="M150.323,89.315c0.482-0.494,0.902-1.01,1.29-1.532c-0.184-0.114-0.373-0.223-0.557-0.336
			c-0.362,0.486-0.753,0.966-1.199,1.424c-0.993,1.02-2.149,1.861-3.428,2.562c0.068,0.209,0.129,0.418,0.191,0.629
			C148.004,91.319,149.251,90.416,150.323,89.315z"/>
		<path fill="#4A484A" d="M147.585,96.493c3.76-1.136,6.608-3.214,8.722-5.452c-0.172-0.133-0.336-0.27-0.51-0.401
			c-2.028,2.13-4.747,4.106-8.316,5.204C147.514,96.06,147.558,96.278,147.585,96.493z"/>
		<path fill="#4A484A" d="M147.467,103.227c5.938-1.914,10.363-4.973,13.566-8.049c-0.151-0.152-0.31-0.299-0.463-0.449
			c-3.086,2.958-7.326,5.903-12.999,7.786C147.538,102.753,147.508,102.993,147.467,103.227z"/>
		<path fill="#4A484A" d="M164.951,99.855c-4.492,3.108-10.681,6.142-18.9,7.73c-0.121,0.245-0.249,0.486-0.387,0.72
			c8.566-1.58,15.005-4.709,19.652-7.926C165.199,100.203,165.071,100.029,164.951,99.855z"/>
		<path fill="#4A484A" d="M167.366,104.097c-4.5,4.005-12.574,8.178-26.979,9.975c-0.305,0.267-0.613,0.532-0.925,0.789
			c15.057-1.679,23.508-5.853,28.229-9.959C167.584,104.632,167.485,104.364,167.366,104.097z"/>
		<path fill="#4A484A" d="M168.768,108.738c-5.976,6.465-17.457,13.707-38.219,11.774c-0.38,0.183-0.765,0.357-1.151,0.531
			c21.292,2.279,33.195-4.886,39.479-11.485C168.851,109.288,168.81,109.014,168.768,108.738z"/>
	</g>
	<g>
		<g>
			<g>
				<path fill="#E5D4E5" d="M103.32,32.493c0,0,15.858-2.339,20.281,10.081c4.42,12.42-2.371,24.767-4.202,30.469
					c0,0-0.81,5.283,4.415,5.591c5.279,0.313,7.066-6.761,7.066-6.761s7.137-18.698,1.014-33.889
					c-6.122-15.192-28.458-13.216-28.458-13.216L103.32,32.493z"/>
				<path fill="#4A484A" d="M103.407,24.448c-0.163,0.015-0.29,0.151-0.293,0.316l-0.115,7.725c-0.001,0.094,0.039,0.185,0.11,0.247
					c0.072,0.062,0.166,0.09,0.258,0.077c0.157-0.023,15.652-2.152,19.932,9.87c3.615,10.157-0.296,20.125-2.886,26.72l-1.32,3.543
					c-0.027,0.153-0.38,2.59,1.033,4.339c0.819,1.014,2.055,1.576,3.672,1.671c5.481,0.325,7.377-6.93,7.395-7.003
					c0.06-0.152,7.101-18.956,1.001-34.087C126.051,22.627,103.633,24.428,103.407,24.448z M131.596,38.105
					c6.003,14.896-0.946,33.469-1.017,33.655c-0.029,0.103-1.796,6.847-6.746,6.554c-1.426-0.084-2.505-0.565-3.205-1.43
					c-0.81-1-0.951-2.309-0.951-3.098c0-0.415,0.039-0.685,0.04-0.693c0.006,0,1.293-3.455,1.293-3.455
					c1.761-4.484,4.368-11.126,4.368-18.339c0-2.887-0.417-5.865-1.475-8.833c-4.093-11.499-17.896-10.579-20.256-10.333
					c0.01-0.636,0.097-6.536,0.105-7.061C105.697,24.942,125.892,23.952,131.596,38.105z"/>
			</g>
			<g>
				<path fill="#4A484A" d="M108.978,32.448c0.248,0.024,0.5,0.053,0.759,0.084c0.561-1.975,1.279-4.857,1.572-7.533
					c-0.253-0.029-0.501-0.056-0.746-0.082C110.27,27.578,109.534,30.493,108.978,32.448z"/>
				<path fill="#4A484A" d="M114.988,33.829c1.026-2.118,2.114-4.84,2.625-7.575c-0.242-0.072-0.483-0.138-0.724-0.203
					c-0.5,2.689-1.597,5.404-2.616,7.511C114.51,33.645,114.75,33.739,114.988,33.829z"/>
				<path fill="#4A484A" d="M120.859,37.849c1.344-2.049,3.094-5.108,4.008-8.339c-0.223-0.147-0.447-0.28-0.675-0.418
					c-0.851,3.114-2.542,6.134-3.871,8.186C120.506,37.462,120.687,37.648,120.859,37.849z"/>
				<path fill="#4A484A" d="M122.73,40.59c0.115,0.219,0.225,0.442,0.332,0.676c1.604-0.805,5.309-2.838,7.738-5.51
					c-0.133-0.229-0.264-0.458-0.404-0.675C128.083,37.705,124.325,39.784,122.73,40.59z"/>
				<path fill="#4A484A" d="M125.028,50.194c2.48-0.689,6.172-1.84,9.063-3.27c-0.027-0.256-0.064-0.511-0.097-0.77
					c-2.771,1.393-6.462,2.554-8.993,3.264C125.019,49.676,125.018,49.935,125.028,50.194z"/>
				<path fill="#4A484A" d="M124.784,55.448c2.76,0.362,6.498,0.72,9.437,0.51c0.019-0.246,0.037-0.493,0.051-0.741
					c-2.848,0.21-6.614-0.152-9.403-0.518C124.844,54.949,124.814,55.199,124.784,55.448z"/>
				<path fill="#4A484A" d="M133.375,62.429c0.046-0.244,0.092-0.49,0.132-0.739c-3.063-0.286-6.675-0.746-9.711-1.188
					c-0.065,0.247-0.137,0.483-0.203,0.724C125.81,61.552,129.796,62.103,133.375,62.429z"/>
				<path fill="#4A484A" d="M131.912,68.666c0.068-0.236,0.138-0.477,0.207-0.733c-3.199-0.276-7.506-1.006-10.223-1.504
					c-0.09,0.241-0.179,0.478-0.266,0.714C124.304,67.634,128.62,68.372,131.912,68.666z"/>
			</g>
		</g>
	</g>
	<g>
		<g>
			<path fill="#B797B7" d="M85.553,36.204c7.902,12.635,25.509,5.09,21.167-10.365C102.377,10.384,73.455,16.858,85.553,36.204z"/>
			<path fill="#4A484A" d="M83.871,22.068c-2.496,3.781-1.995,8.862,1.41,14.306v0.001c4.185,6.691,10.757,7.609,15.413,5.55
				c4.817-2.131,8.645-7.958,6.336-16.174c-1.325-4.717-5.008-7.878-10.101-8.672C91.632,16.254,86.385,18.259,83.871,22.068z
				 M84.407,22.423c2.342-3.547,7.449-5.484,12.422-4.708c4.835,0.754,8.328,3.747,9.582,8.211
				c2.204,7.844-1.415,13.391-5.978,15.41c-4.403,1.947-10.626,1.063-14.607-5.302l0,0C82.563,30.815,82.059,25.981,84.407,22.423z"
				/>
		</g>
		<g>
			<path fill="#4A484A" d="M92.847,41.321l11.273-2.196c0.24-0.251,0.469-0.514,0.687-0.789l-12.083,2.354L92.847,41.321z"/>
			<path fill="#4A484A" d="M95.099,37.594l11.402-2.22c0.091-0.234,0.185-0.465,0.263-0.708l-11.788,2.296L95.099,37.594z"/>
			<path fill="#4A484A" d="M95.542,33.042l11.842-2.306c0.003-0.218,0.011-0.434,0.003-0.657L95.42,32.411L95.542,33.042z"/>
			<path fill="#4A484A" d="M94.157,29.227l12.78-2.489c-0.047-0.208-0.094-0.415-0.151-0.626l-12.751,2.484L94.157,29.227z"/>
			<path fill="#4A484A" d="M90.965,24.588l13.804-2.688c-0.15-0.196-0.308-0.381-0.468-0.564l-13.459,2.621L90.965,24.588z"/>
			<path fill="#4A484A" d="M85.654,22.427l16.237-3.162c-0.271-0.174-0.545-0.343-0.829-0.495l-15.529,3.025L85.654,22.427z"/>
			<path fill="#4A484A" d="M96.217,17.31l-8.482,1.652c-0.482,0.272-0.931,0.587-1.363,0.921l11.595-2.258
				C97.389,17.488,96.807,17.375,96.217,17.31z"/>
		</g>
		<g>
			<path fill="#69C3DD" d="M82.463,37.534c6.911,11.052,23.196,4.067,19.396-9.451C98.061,14.564,71.88,20.611,82.463,37.534z"/>
			<path fill="#4A484A" d="M81.065,25.198c-2.217,3.359-1.818,7.801,1.127,12.507v-0.001c3.674,5.876,9.662,6.584,13.967,4.68
				c4.451-1.969,8.037-7.181,6.011-14.389c-1.139-4.057-4.365-6.784-8.849-7.484C88.427,19.749,83.387,21.676,81.065,25.198z
				 M82.736,37.364L82.736,37.364c-3.591-5.742-2.599-9.592-1.134-11.811c2.189-3.318,6.967-5.129,11.618-4.405
				c4.224,0.659,7.261,3.219,8.33,7.022c1.92,6.837-1.454,11.769-5.653,13.626C91.846,43.587,86.207,42.911,82.736,37.364z"/>
		</g>
		<g>
			<path fill="#FFFFFF" d="M82.941,32.553c4.086,6.534,13.714,2.404,11.467-5.588C92.162,18.973,76.684,22.548,82.941,32.553z"/>
			<path fill="#4A484A" d="M82.004,25.187c-0.573,0.869-0.857,1.856-0.857,2.922c0,1.427,0.509,2.996,1.522,4.614
				c2.214,3.54,5.825,3.967,8.422,2.818c2.685-1.187,4.846-4.326,3.627-8.662c-0.687-2.451-2.632-4.098-5.338-4.519
				C86.438,21.901,83.405,23.064,82.004,25.187z M83.214,32.383L83.214,32.383c-2.086-3.336-1.517-5.562-0.672-6.841
				c1.266-1.92,4.039-2.967,6.738-2.546c2.445,0.381,4.201,1.86,4.82,4.058c1.113,3.965-0.84,6.825-3.27,7.899
				C88.487,35.989,85.222,35.595,83.214,32.383z M82.668,32.724L82.668,32.724L82.668,32.724z"/>
		</g>
		<g>
			<path fill="#358EA9" d="M92.923,37.058c1.414,2.261,4.745,0.832,3.968-1.934C96.114,32.358,90.757,33.596,92.923,37.058z"/>
			<path fill="#4A484A" d="M92.423,34.393c-0.155,0.237-0.332,0.619-0.332,1.134c0,0.462,0.14,1.031,0.559,1.701
				c0.833,1.332,2.196,1.49,3.177,1.056c1.012-0.448,1.829-1.625,1.373-3.247c-0.256-0.917-1.01-1.558-2.016-1.715
				C94.086,33.151,92.952,33.592,92.423,34.393z M93.196,36.888L93.196,36.888c-0.525-0.839-0.606-1.579-0.236-2.14
				c0.395-0.599,1.269-0.923,2.125-0.789c0.761,0.119,1.307,0.575,1.498,1.252c0.374,1.337-0.312,2.174-1.015,2.485
				C94.839,38.018,93.824,37.893,93.196,36.888z M92.65,37.229L92.65,37.229L92.65,37.229z"/>
		</g>
	</g>
	<g>
		<path fill="#B797B7" d="M114.374,70.463c0,0,3.645,3.646,9.223,4.076c5.578,0.429,9.225-2.574,9.225-2.574
			s6.436,3.003,6.007,8.795c0,0-5.148,5.578-16.304,4.505c-11.155-1.073-16.088-7.723-16.517-10.083S112.656,68.961,114.374,70.463z
			"/>
		<path fill="#4A484A" d="M109.121,71.154c-1.829,1.038-3.691,2.656-3.43,4.086c0.414,2.277,5.357,9.244,16.803,10.345
			c11.187,1.075,16.356-4.375,16.571-4.608c0.049-0.053,0.079-0.122,0.084-0.194c0.442-5.945-6.125-9.08-6.191-9.111
			c-0.112-0.053-0.244-0.035-0.341,0.042c-0.035,0.03-3.62,2.916-8.994,2.503c-5.388-0.415-8.986-3.947-9.022-3.983
			c-0.004-0.005-0.01-0.01-0.015-0.015C113.547,69.312,111.091,70.034,109.121,71.154z M122.555,84.944
			c-11.081-1.066-15.839-7.666-16.231-9.82c-0.16-0.877,1.121-2.279,3.115-3.41c2.031-1.153,4.061-1.586,4.722-1.009
			c0.214,0.212,3.83,3.725,9.411,4.155c5.065,0.39,8.517-1.941,9.284-2.515c0.827,0.425,5.671,3.117,5.671,7.871
			c0,0.133-0.008,0.268-0.015,0.404C138.05,81.083,132.945,85.943,122.555,84.944z"/>
	</g>
	<g>
		<path fill="#4A484A" d="M116.15,71.864c-2.199,0.761-6.518,2.589-8.877,5.831c0.13,0.177,0.271,0.356,0.42,0.539
			c2.391-3.412,7.229-5.288,9.158-5.923C116.598,72.16,116.368,72.01,116.15,71.864z"/>
		<path fill="#4A484A" d="M117.684,72.782c-1.926,1.751-5.615,5.321-7.082,8.184c0.169,0.124,0.337,0.25,0.516,0.373
			c1.387-2.805,5.325-6.562,7.184-8.245C118.088,72.992,117.883,72.887,117.684,72.782z"/>
		<path fill="#4A484A" d="M115.691,83.708c0.2,0.075,0.407,0.147,0.614,0.219c0.634-3.827,4.157-8.489,5.141-9.726
			c-0.232-0.054-0.461-0.113-0.682-0.175C119.574,75.538,116.37,79.904,115.691,83.708z"/>
		<path fill="#4A484A" d="M122.177,85.219c0.119,0.012,0.227,0.034,0.348,0.045c0.102,0.01,0.195,0.01,0.295,0.018
			c0.599-3.056,1.253-8.18,1.561-10.712c-0.213-0.004-0.427-0.012-0.646-0.026C123.422,77.103,122.763,82.239,122.177,85.219z"/>
		<path fill="#4A484A" d="M127.169,74.353c0.775,2.654,1.888,7.327,1.382,10.838c0.226-0.029,0.446-0.063,0.666-0.097
			c0.464-3.616-0.625-8.213-1.407-10.872C127.6,74.27,127.388,74.314,127.169,74.353z"/>
		<path fill="#4A484A" d="M130.374,73.379c-0.198,0.087-0.406,0.173-0.625,0.257c1.477,1.907,4.079,5.795,4.587,10.006
			c0.208-0.091,0.42-0.18,0.611-0.272C134.385,79.144,131.892,75.348,130.374,73.379z"/>
	</g>
	<g>
		<path fill="#FFFFFF" d="M75.224,88.375c-2.822,4.233,0.322,14.158,11.906,16.732c11.584,2.574,6.435-1.609,1.931-4.183
			c-4.505-2.574-10.619-4.505-9.654-10.297C80.372,84.835,76.51,86.444,75.224,88.375z"/>
	</g>
	<g>
		<circle fill="#FFFFFF" cx="107.08" cy="108.968" r="2.896"/>
	</g>
</g>
</svg>
