<?xml version="1.0" encoding="utf-8"?>
<!-- Generator: Adobe Illustrator 17.0.0, SVG Export Plug-In . SVG Version: 6.00 Build 0)  -->
<!DOCTYPE svg PUBLIC "-//W3C//DTD SVG 1.1//EN" "http://www.w3.org/Graphics/SVG/1.1/DTD/svg11.dtd">
<svg version="1.1" id="Layer_1" xmlns="http://www.w3.org/2000/svg" xmlns:xlink="http://www.w3.org/1999/xlink" x="0px" y="0px"
	 width="181.645px" height="331.589px" viewBox="0 0 181.645 331.589" enable-background="new 0 0 181.645 331.589"
	 xml:space="preserve">
<g>
	<g>
		<g>
			<g>
				<path fill="#FEE69E" d="M87.647,270.718c-0.263-0.415-0.531-0.829-0.827-1.235c-5.683-7.841-13.523-29.007-12.544-42.531
					c0.98-13.523,11.76-28.024,11.76-28.024s-8.229-5.88-11.367-5.685c0,0-11.172,18.031-11.562,36.847
					c-0.393,18.814,10.779,41.548,10.779,41.548s-0.025,0.012-0.062,0.03c1.754,1.183,4.203,2.288,7.46,2.567
					C84.758,274.534,86.63,272.758,87.647,270.718z"/>
				<path fill="#4A484A" d="M74.651,192.948c-0.096,0.007-0.182,0.057-0.232,0.139c-0.111,0.181-11.218,18.315-11.607,36.995
					c-0.389,18.67,10.697,41.458,10.811,41.686c0.022,0.046-0.006,0.114,0.037,0.143c2.214,1.495,4.771,2.375,7.599,2.617
					c3.023,0.26,5.322-1.013,6.652-3.679c0.047-0.094,0.044-0.2-0.015-0.289l-0.837-1.25c-5.695-7.856-13.449-29.095-12.488-42.337
					c0.963-13.28,11.595-27.728,11.701-27.871c0.047-0.063,0.067-0.144,0.056-0.221c-0.013-0.078-0.056-0.148-0.12-0.194
					C85.868,198.444,77.855,192.749,74.651,192.948z M63.389,231.053c0-0.32,0.004-0.641,0.011-0.958
					c0.372-17.862,10.615-35.196,11.438-36.563c2.854,0.002,9.621,4.651,10.784,5.464c-1.374,1.922-10.729,15.41-11.639,27.936
					c-0.059,0.809-0.087,1.642-0.087,2.495c0,13.768,7.337,32.85,12.686,40.229c0,0,0.504,0.753,0.714,1.065
					c-1.238,2.36-3.244,3.456-5.988,3.221c-2.663-0.228-5.065-1.061-7.16-2.439C74.015,271.233,63.389,249.372,63.389,231.053z"/>
			</g>
			<g>
				<path fill="#4A484A" d="M83.011,203.504c-4.27-1.213-8.439-2.715-11.694-3.982c-0.086,0.176-0.169,0.35-0.255,0.53
					c3.234,1.262,7.379,2.756,11.636,3.973C82.803,203.848,82.909,203.671,83.011,203.504z"/>
				<path fill="#4A484A" d="M80.582,207.76c-5.136-0.634-9.087-1.677-11.776-2.584c-0.076,0.182-0.148,0.36-0.222,0.545
					c2.688,0.908,6.619,1.948,11.708,2.593C80.388,208.129,80.486,207.941,80.582,207.76z"/>
				<path fill="#4A484A" d="M77.808,213.572c-4.626-0.534-8.569-1.505-11.239-2.301c-0.062,0.187-0.122,0.371-0.183,0.559
					c2.666,0.795,6.587,1.761,11.188,2.306C77.651,213.947,77.728,213.759,77.808,213.572z"/>
				<path fill="#4A484A" d="M76.172,217.923c-3.671,0.108-7.812-0.245-11.3-0.678c-0.049,0.196-0.098,0.392-0.144,0.59
					c3.452,0.432,7.559,0.787,11.251,0.689C76.043,218.323,76.106,218.123,76.172,217.923z"/>
				<path fill="#4A484A" d="M74.373,225.936c-3.466-0.221-7.537-0.848-10.846-1.443c-0.024,0.197-0.05,0.396-0.072,0.594
					c3.304,0.597,7.366,1.222,10.861,1.439C74.334,226.329,74.351,226.134,74.373,225.936z"/>
				<path fill="#4A484A" d="M74.201,229.901c-0.002-0.197-0.005-0.394-0.005-0.588c-3.53,0.266-7.57,0.27-11.067,0.188
					c-0.008,0.194-0.019,0.39-0.022,0.587l0,0C66.605,230.171,70.649,230.165,74.201,229.901z"/>
				<path fill="#4A484A" d="M75.557,240.982c-3.285,0.627-7.75,0.967-11.39,1.148c0.036,0.196,0.066,0.395,0.104,0.59
					c3.639-0.181,8.087-0.523,11.409-1.164C75.638,241.365,75.598,241.174,75.557,240.982z"/>
				<path fill="#4A484A" d="M76.722,245.844c-3.776,1.122-8.088,1.997-11.203,2.556c0.048,0.191,0.098,0.381,0.146,0.57
					c3.124-0.561,7.43-1.436,11.214-2.559C76.827,246.222,76.774,246.032,76.722,245.844z"/>
				<path fill="#4A484A" d="M78.12,250.561c-2.654,1.602-6.63,3.798-10.492,5.177c0.061,0.189,0.121,0.383,0.182,0.569
					c3.883-1.372,7.828-3.548,10.502-5.162C78.248,250.952,78.182,250.757,78.12,250.561z"/>
				<path fill="#4A484A" d="M80.461,257.068c-2.328,0.932-7.085,2.692-11.225,3.366c0.069,0.189,0.139,0.38,0.207,0.566
					c4.201-0.695,8.909-2.446,11.236-3.384C80.605,257.436,80.533,257.253,80.461,257.068z"/>
				<path fill="#4A484A" d="M82.294,261.361c-3.128,1.502-7.469,3.303-11.289,3.686c0.078,0.192,0.156,0.386,0.232,0.572
					c3.866-0.434,8.188-2.229,11.306-3.727C82.46,261.717,82.376,261.542,82.294,261.361z"/>
				<path fill="#4A484A" d="M84.857,266.389c-2.382,1.181-6.249,2.318-12.279,2.397c0.091,0.203,0.179,0.404,0.261,0.588
					c5.981-0.103,9.853-1.225,12.317-2.462C85.057,266.743,84.957,266.563,84.857,266.389z"/>
			</g>
			<g>
				<path fill="#F89A5E" d="M81.283,274.234c-3.257-0.279-5.706-1.385-7.46-2.567c-1.114,0.535-17.597,8.505-18.164,11.534
					c-0.1,0.529-0.14,1.074-0.142,1.62c2.334,0.035,7.154-0.064,17.093-0.664c10.583-0.641,16.229-1.158,19.037-2.097
					c-0.447-3.342-1.553-7.482-4-11.343C86.63,272.758,84.758,274.534,81.283,274.234z"/>
				<path fill="#4A484A" d="M87.632,270.425c-0.105,0.004-0.2,0.066-0.247,0.161c-1.231,2.467-3.276,3.596-6.077,3.355l0,0
					c-2.726-0.232-5.189-1.08-7.32-2.518c-0.086-0.058-0.197-0.067-0.292-0.021c-2.959,1.421-17.748,8.667-18.327,11.744
					l-0.144,1.673c-0.008,0.083,0.021,0.149,0.075,0.212c0.055,0.06,0.132,0.083,0.214,0.084c2.241,0.032,7.03-0.057,17.114-0.666
					c10.136-0.613,16.184-1.132,19.112-2.11c0.135-0.045,0.218-0.178,0.199-0.318c-0.394-2.939-1.414-7.314-4.044-11.462
					C87.84,270.471,87.738,270.419,87.632,270.425z M87.621,271.288c2.321,3.828,3.298,7.785,3.691,10.56
					c-2.947,0.915-8.882,1.42-18.718,2.015c-9.65,0.584-14.411,0.69-16.756,0.668c0.032-0.388,0.11-1.274,0.11-1.274
					c0.432-2.311,11.81-8.34,17.877-11.262c2.179,1.431,4.671,2.296,7.433,2.533l0,0C84.093,274.769,86.262,273.624,87.621,271.288z
					"/>
			</g>
			<g>
				<path fill="#FDC05D" d="M55.517,284.821c-0.003,2.685,1.024,5.339,1.513,5.828c0.588,0.588,34.299-0.588,34.69-2.156
					c0.183-0.732,0.355-3.21-0.073-6.433c-2.809,0.939-8.454,1.456-19.037,2.097C62.672,284.758,57.851,284.856,55.517,284.821z"/>
				<path fill="#4A484A" d="M91.554,281.781c-2.867,0.959-8.875,1.472-18.96,2.081c-10.067,0.608-14.84,0.698-17.071,0.665
					c-0.079-0.001-0.155,0.029-0.211,0.084c-0.056,0.055-0.087,0.132-0.087,0.209c-0.003,2.752,1.033,5.471,1.599,6.036
					c0.854,0.855,30.301-0.611,34.248-1.704c0.602-0.167,0.872-0.339,0.935-0.588c0.218-0.871,0.341-3.478-0.066-6.543
					c-0.013-0.086-0.062-0.164-0.137-0.21C91.728,281.765,91.637,281.754,91.554,281.781z M55.514,285.116h0.004H55.514z
					 M72.628,284.45c9.779-0.593,15.723-1.099,18.761-2.013c0.164,1.341,0.232,2.541,0.232,3.501c0,1.254-0.097,2.129-0.185,2.483
					c-1.225,1.256-32.808,2.505-34.261,1.975c-0.359-0.378-1.27-2.778-1.338-5.278C58.193,285.139,62.97,285.034,72.628,284.45z"/>
			</g>
		</g>
		<g>
			<path fill="#D87432" d="M74.178,231.068c0,0-9.309,1.176-10.975-2.646c0,0-4.409,0.295-4.409,5.292
				c0,4.998,2.156,8.036,7.545,7.252C71.728,240.181,78.489,234.89,74.178,231.068z"/>
			<path fill="#4A484A" d="M63.183,228.13c-0.047,0.002-4.684,0.372-4.684,5.584c0,2.95,0.739,5.084,2.195,6.346
				c1.33,1.15,3.244,1.552,5.688,1.197c3.728-0.543,8.352-3.244,9.297-6.401c0.44-1.474-0.013-2.859-1.306-4.007
				c-0.062-0.058-0.149-0.083-0.232-0.071c-0.09,0.011-9.108,1.104-10.668-2.473C63.423,228.192,63.307,228.121,63.183,228.13z
				 M61.08,239.613c-1.322-1.144-1.993-3.129-1.993-5.899l0,0c0-4.23,3.248-4.884,3.971-4.978c1.87,3.55,9.904,2.768,10.997,2.641
				c0.783,0.728,1.2,1.527,1.2,2.394c0,0.299-0.047,0.604-0.14,0.916c-0.867,2.899-5.343,5.483-8.818,5.988
				C64.03,241.004,62.274,240.647,61.08,239.613z"/>
		</g>
	</g>
	<g>
		<g>
			<g>
				<path fill="#FEE69E" d="M139.957,272.554c-0.313-0.379-0.632-0.756-0.976-1.122c-6.628-7.06-17.076-27.068-17.808-40.607
					c-0.733-13.54,8.13-29.286,8.13-29.286s-8.906-4.795-11.993-4.205c0,0-8.809,19.297-6.824,38.011
					c1.984,18.714,15.935,39.857,15.935,39.857s-0.022,0.015-0.059,0.037c1.89,0.953,4.459,1.741,7.726,1.606
					C137.571,276.701,139.205,274.705,139.957,272.554z"/>
				<path fill="#4A484A" d="M117.256,197.045c-0.095,0.017-0.172,0.078-0.212,0.165c-0.089,0.194-8.82,19.585-6.851,38.165
					c1.97,18.57,15.843,39.776,15.982,39.988c0.028,0.042,0.009,0.115,0.056,0.139c2.383,1.202,5.031,1.753,7.868,1.637
					c3.03-0.125,5.152-1.677,6.136-4.488c0.033-0.1,0.018-0.205-0.053-0.284l-0.987-1.136c-6.641-7.075-17.012-27.166-17.729-40.423
					c-0.72-13.296,8.004-28.969,8.093-29.126c0.039-0.068,0.049-0.15,0.027-0.226c-0.022-0.075-0.074-0.139-0.145-0.177
					C129.075,201.081,120.41,196.441,117.256,197.045z M128.902,201.659c-1.067,1.979-8.066,15.413-8.066,27.565
					c0,0.541,0.015,1.08,0.043,1.615c0.751,13.867,11.263,33.736,17.888,40.793c0,0,0.593,0.68,0.841,0.967
					c-0.93,2.498-2.781,3.838-5.531,3.952c-2.671,0.108-5.158-0.413-7.411-1.513c-0.149-0.229-13.934-21.307-15.886-39.727
					c-0.199-1.863-0.287-3.737-0.287-5.598c0-15.759,6.36-30.614,7.018-32.104C120.321,197.238,127.608,200.979,128.902,201.659z"/>
			</g>
			<g>
				<path fill="#4A484A" d="M126.881,206.46c-4.388-0.664-8.716-1.628-12.104-2.475c-0.062,0.185-0.125,0.367-0.187,0.559
					c3.368,0.844,7.666,1.803,12.043,2.474C126.717,206.828,126.8,206.641,126.881,206.46z"/>
				<path fill="#4A484A" d="M125.008,210.988c-5.177,0.019-9.227-0.516-12.009-1.077c-0.052,0.189-0.102,0.377-0.152,0.567
					c2.783,0.564,6.812,1.099,11.943,1.096C124.861,211.379,124.934,211.181,125.008,210.988z"/>
				<path fill="#4A484A" d="M122.988,217.105c-4.655,0.053-8.69-0.412-11.439-0.865c-0.037,0.192-0.074,0.383-0.11,0.576
					c2.745,0.454,6.756,0.918,11.389,0.876C122.879,217.495,122.933,217.301,122.988,217.105z"/>
				<path fill="#4A484A" d="M121.913,221.628c-3.626,0.569-7.778,0.74-11.294,0.754c-0.023,0.199-0.047,0.399-0.068,0.601
					c3.482-0.006,7.597-0.172,11.249-0.734C121.837,222.041,121.875,221.835,121.913,221.628z"/>
				<path fill="#4A484A" d="M121.141,229.804c-3.467,0.218-7.584,0.11-10.942-0.064c0.003,0.199,0.003,0.399,0.006,0.598
					c3.353,0.177,7.459,0.283,10.955,0.059C121.151,230.198,121.144,230.001,121.141,229.804z"/>
				<path fill="#4A484A" d="M121.471,233.759c-0.027-0.195-0.055-0.39-0.079-0.583c-3.47,0.71-7.476,1.224-10.956,1.584
					c0.018,0.193,0.031,0.389,0.051,0.584l0,0C113.97,234.985,117.979,234.469,121.471,233.759z"/>
				<path fill="#4A484A" d="M124.213,244.581c-3.179,1.036-7.565,1.934-11.153,2.575c0.061,0.19,0.114,0.383,0.177,0.573
					c3.587-0.64,7.956-1.541,11.171-2.595C124.342,244.951,124.277,244.764,124.213,244.581z"/>
				<path fill="#4A484A" d="M125.981,249.255c-3.605,1.59-7.771,3.002-10.792,3.95c0.072,0.183,0.146,0.364,0.218,0.548
					c3.028-0.953,7.189-2.364,10.801-3.956C126.134,249.616,126.056,249.436,125.981,249.255z"/>
				<path fill="#4A484A" d="M127.965,253.762c-2.432,1.922-6.099,4.603-9.757,6.457c0.084,0.18,0.169,0.364,0.253,0.543
					c3.679-1.854,7.317-4.507,9.766-6.447C128.14,254.131,128.051,253.946,127.965,253.762z"/>
				<path fill="#4A484A" d="M131.106,259.919c-2.193,1.219-6.687,3.564-10.71,4.755c0.092,0.18,0.185,0.36,0.276,0.536
					c4.08-1.219,8.529-3.55,10.72-4.772C131.296,260.265,131.2,260.092,131.106,259.919z"/>
				<path fill="#4A484A" d="M133.467,263.947c-2.915,1.885-6.993,4.218-10.734,5.08c0.102,0.182,0.203,0.363,0.303,0.538
					c3.781-0.916,7.841-3.243,10.745-5.122C133.676,264.278,133.571,264.115,133.467,263.947z"/>
				<path fill="#4A484A" d="M136.642,268.611c-2.214,1.471-5.906,3.088-11.877,3.928c0.116,0.191,0.227,0.378,0.332,0.55
					c5.919-0.858,9.619-2.457,11.908-3.997C136.886,268.937,136.765,268.771,136.642,268.611z"/>
			</g>
			<g>
				<path fill="#F89A5E" d="M134.088,276.845c-3.267,0.135-5.836-0.653-7.726-1.606c-1.037,0.672-16.382,10.657-16.564,13.733
					c-0.031,0.537-0.002,1.084,0.064,1.625c2.32-0.26,7.09-0.965,16.874-2.816c10.416-1.969,15.953-3.194,18.62-4.478
					c-0.865-3.261-2.485-7.228-5.399-10.748C139.205,274.705,137.571,276.701,134.088,276.845z"/>
				<path fill="#4A484A" d="M139.905,272.264c-0.105,0.019-0.19,0.092-0.227,0.193c-0.909,2.601-2.795,3.979-5.602,4.095l0,0
					c-2.736,0.112-5.287-0.417-7.581-1.575c-0.094-0.047-0.205-0.041-0.292,0.016c-2.757,1.784-16.514,10.841-16.698,13.963
					l0.066,1.679c0.003,0.08,0.039,0.145,0.102,0.198c0.061,0.053,0.142,0.066,0.224,0.057c2.229-0.249,6.969-0.942,16.895-2.819
					c9.978-1.886,15.911-3.163,18.691-4.503c0.128-0.062,0.193-0.204,0.157-0.341c-0.761-2.865-2.324-7.076-5.457-10.859
					C140.115,272.285,140.011,272.246,139.905,272.264z M134.099,277.139L134.099,277.139c2.843-0.117,4.846-1.533,5.898-4.022
					c2.788,3.507,4.258,7.312,4.998,10.018c-2.808,1.277-8.632,2.527-18.315,4.358c-9.501,1.798-14.209,2.5-16.538,2.774
					c-0.016-0.389-0.05-1.278-0.05-1.278c0.138-2.343,10.661-9.759,16.311-13.424C128.745,276.71,131.328,277.253,134.099,277.139z"
					/>
			</g>
			<g>
				<path fill="#FDC05D" d="M109.862,290.597c0.336,2.661,1.689,5.168,2.236,5.59c0.656,0.509,33.95-4.909,34.142-6.513
					c0.089-0.748-0.052-3.23-0.884-6.372c-2.667,1.284-8.204,2.51-18.62,4.478C116.952,289.632,112.182,290.337,109.862,290.597z"/>
				<path fill="#4A484A" d="M145.228,283.036c-2.724,1.312-8.619,2.578-18.548,4.456c-9.906,1.874-14.632,2.564-16.851,2.814
					c-0.079,0.008-0.149,0.048-0.198,0.11c-0.05,0.061-0.071,0.14-0.061,0.218c0.344,2.728,1.715,5.296,2.347,5.785
					c0.956,0.74,29.984-4.428,33.761-6.011c0.576-0.241,0.823-0.443,0.853-0.7c0.107-0.891-0.099-3.491-0.892-6.482
					c-0.021-0.085-0.082-0.155-0.161-0.191C145.399,282.997,145.307,282.998,145.228,283.036z M126.791,288.069
					c9.627-1.82,15.46-3.072,18.356-4.363c0.631,2.492,0.823,4.479,0.823,5.45c0,0.208-0.009,0.37-0.022,0.482
					c-1.057,1.4-32.231,6.622-33.739,6.281c-0.403-0.329-1.608-2.598-1.993-5.07C112.557,290.574,117.28,289.869,126.791,288.069z"
					/>
			</g>
		</g>
		<g>
			<path fill="#D87432" d="M121.595,234.919c0,0-9.086,2.341-11.221-1.24c0,0-4.338,0.848-3.707,5.806
				c0.629,4.958,3.152,7.699,8.399,6.241C120.313,244.269,126.353,238.166,121.595,234.919z"/>
			<path fill="#4A484A" d="M110.317,233.39c-0.046,0.007-4.601,0.961-3.942,6.131c0.371,2.927,1.374,4.949,2.978,6.017
				c1.465,0.974,3.413,1.132,5.791,0.472c3.631-1.009,7.879-4.272,8.418-7.522c0.251-1.517-0.373-2.836-1.802-3.811
				c-0.07-0.047-0.156-0.064-0.239-0.043c-0.088,0.023-8.896,2.246-10.895-1.107C110.563,233.422,110.438,233.366,110.317,233.39z
				 M109.679,245.048c-1.456-0.968-2.371-2.852-2.72-5.6c-0.042-0.324-0.062-0.628-0.062-0.915c0-3.46,2.757-4.368,3.389-4.531
				c2.332,3.312,10.29,1.471,11.222,1.24c0.994,0.712,1.519,1.579,1.519,2.597c0,0.18-0.016,0.364-0.046,0.552
				c-0.493,2.985-4.609,6.112-7.993,7.052C112.779,246.056,110.994,245.924,109.679,245.048z"/>
		</g>
	</g>
	<g>
		<g>
			<g>
				<path fill="#FAAE5E" d="M37.017,105.123c1.214,0.166,2.081-0.21,2.273-4.857c0.157-3.792-1.297-8.444-1.837-10.029
					c-0.009,0.002-0.021,0.004-0.029,0.006c-1.135,0.339-3.134,1.944-3.134,1.944s2.667,9.879,0.834,11.365
					C35.68,104.408,36.321,105.027,37.017,105.123z"/>
				<path fill="#4A484A" d="M37.34,89.961c-1.175,0.352-3.15,1.93-3.232,1.997c-0.093,0.073-0.131,0.193-0.1,0.306
					c1.012,3.749,2.159,10.065,0.933,11.06c-0.117,0.094-0.144,0.262-0.062,0.388c0.669,1.031,1.376,1.604,2.1,1.703l0,0
					c0.453,0.062,0.979,0.075,1.428-0.302c0.71-0.595,1.062-2.041,1.18-4.835c0.156-3.779-1.244-8.347-1.854-10.136
					C37.681,89.992,37.492,89.916,37.34,89.961z M37.27,90.635c0.599,1.797,1.737,5.641,1.737,9.038
					c0,0.195-0.004,0.388-0.011,0.579c-0.104,2.508-0.421,3.95-0.969,4.409c-0.225,0.188-0.496,0.235-0.971,0.17l0,0
					c-0.512-0.07-1.061-0.548-1.598-1.334c0.398-0.515,0.594-1.375,0.594-2.499c0-3.106-1.142-7.608-1.43-8.699
					C34.968,92.031,36.309,91.019,37.27,90.635z"/>
			</g>
			<g>
				<path fill="#FAAE5E" d="M31.142,110.846c-5.301-6.34-7.362-15.298-7.979-18.637c-1.83,0.983-3.855,3.923-3.9,4.251
					c-0.052,0.387,1.337,19.864,15.608,19.644c2.527-0.039,4.463-0.757,5.941-1.917C37.896,115.227,34.316,114.643,31.142,110.846z"
					/>
				<path fill="#4A484A" d="M23.025,91.95c-1.907,1.025-3.992,4.029-4.053,4.471c-0.011,0.078,0.513,9.62,5.742,15.516
					c2.68,3.023,6.098,4.524,10.163,4.461c2.393-0.037,4.412-0.696,6.026-1.932c0.002-0.001,0.005-0.001,0.008-0.002
					c0,0-0.004,0-0.006,0.001c0.026-0.02,0.062-0.026,0.089-0.046c0.072-0.057,0.112-0.144,0.112-0.231
					c0-0.049-0.012-0.097-0.036-0.142c-0.07-0.126-0.222-0.184-0.357-0.135c-1.907,0.68-5.656,1.162-9.346-3.253l0,0
					c-5.21-6.231-7.271-15.014-7.915-18.501c-0.018-0.092-0.077-0.171-0.161-0.212C23.206,91.903,23.107,91.905,23.025,91.95z
					 M25.609,112.037c-5.44-5.598-6.053-15.399-6.053-15.55c0,0,0,0,0-0.001c0.102-0.322,1.809-2.707,3.411-3.765
					c0.731,3.771,2.843,12.207,7.95,18.313c2.885,3.453,5.797,4.044,7.968,3.842c-1.191,0.535-2.491,0.912-4.018,0.935
					C31.211,115.867,28.096,114.597,25.609,112.037z M30.918,111.034L30.918,111.034L30.918,111.034z"/>
			</g>
			<g>
				<path fill="#D87432" d="M42.676,90.17c0,0-4.055-0.261-5.223,0.067c0.54,1.584,1.994,6.236,1.837,10.029
					c-0.191,4.647-1.059,5.024-2.273,4.857c-0.696-0.096-1.338-0.715-1.893-1.571c-0.008,0.004-0.013,0.018-0.019,0.023
					c0,0-2.908-4.059-5.058-11.475c0,0-3.91-0.337-5.904-0.215c-0.311,0.02-0.643,0.143-0.979,0.324
					c0.616,3.338,2.678,12.297,7.979,18.637c3.174,3.798,6.754,4.381,9.671,3.342C47.69,108.789,44.486,93.594,42.676,90.17z"/>
				<path fill="#4A484A" d="M37.374,89.953c-0.078,0.022-0.144,0.075-0.182,0.146c-0.036,0.072-0.044,0.156-0.017,0.232
					c0.598,1.757,1.974,6.242,1.821,9.922c-0.104,2.508-0.421,3.95-0.969,4.409c-0.225,0.188-0.496,0.235-0.971,0.17
					c-0.539-0.074-1.123-0.572-1.687-1.441c-0.055-0.028-2.933-4.099-5.04-11.373c-0.034-0.117-0.137-0.201-0.258-0.211
					c-0.16-0.014-3.956-0.337-5.948-0.215l-1.1,0.357c-0.141,0.046-0.177,0.168-0.15,0.313c0.652,3.532,2.742,12.433,8.043,18.771
					c3.917,4.688,7.943,4.162,9.994,3.43c7.195-5.629,3.715-21.234,2.024-24.431c-0.048-0.091-0.14-0.149-0.241-0.156
					C42.527,89.866,38.576,89.616,37.374,89.953z M42.481,90.453c0.899,1.815,2.257,6.95,2.257,12.151
					c0,4.438-0.99,8.906-4.107,11.352c-1.824,0.634-5.573,1.115-9.263-3.299c-5.107-6.107-7.179-14.635-7.866-18.256
					c0.236-0.079,0.659-0.221,0.659-0.221c1.784-0.109,5.073,0.15,5.666,0.198c2.135,7.25,5.011,11.328,5.039,11.369
					c0.681,0.996,1.388,1.569,2.111,1.668c0.453,0.062,0.977,0.075,1.428-0.302c0.71-0.595,1.062-2.041,1.18-4.835
					c0.008-0.198,0.011-0.399,0.011-0.601c0-3.469-1.146-7.36-1.758-9.199C39.051,90.276,41.854,90.417,42.481,90.453z"/>
			</g>
		</g>
		<g>
			<g>
				<path fill="#FEE69E" d="M39.356,115.447c0,0-1.027,12.571,8.938,15.389c9.967,2.817,19.307-3.163,23.687-4.901
					c0,0,4.103-0.912,4.61,3.173c0.514,4.126-4.944,5.9-4.944,5.9s-14.305,6.586-26.531,2.579
					c-12.228-4.007-11.812-21.642-11.812-21.642L39.356,115.447z"/>
				<path fill="#4A484A" d="M39.333,115.154l-6.053,0.498c-0.149,0.012-0.267,0.135-0.27,0.286
					c-0.006,0.179-0.279,17.9,12.014,21.929c12.196,3.996,26.601-2.526,26.747-2.592c0.024-0.006,5.649-1.887,5.112-6.204
					c-0.159-1.276-0.668-2.226-1.516-2.822c-1.458-1.028-3.369-0.619-3.451-0.601c-0.043,0.015-2.757,1.237-2.757,1.237
					c-5.037,2.377-12.649,5.968-20.785,3.668c-9.614-2.718-8.735-14.959-8.725-15.081c0.007-0.086-0.024-0.171-0.085-0.232
					C39.504,115.178,39.419,115.146,39.333,115.154z M39.048,115.767c-0.004,0.152-0.01,0.331-0.01,0.575
					c0,2.989,0.69,12.378,9.177,14.777c8.349,2.359,16.389-1.438,21.195-3.702l2.68-1.208c-0.028,0.009,1.7-0.357,2.942,0.522
					c0.704,0.497,1.132,1.309,1.268,2.412c0.477,3.836-4.691,5.568-4.743,5.586c-0.175,0.077-14.377,6.503-26.35,2.577
					c-11.12-3.642-11.598-19.002-11.61-21.091C34.064,116.178,38.482,115.813,39.048,115.767z"/>
			</g>
			<g>
				<path fill="#4A484A" d="M39.61,119.889c0.03,0.195,0.065,0.391,0.104,0.593c-1.521,0.544-3.745,1.258-5.829,1.629
					c-0.035-0.195-0.07-0.39-0.102-0.581C35.854,121.16,38.104,120.431,39.61,119.889z"/>
				<path fill="#4A484A" d="M40.998,124.535c-1.608,0.916-3.689,1.915-5.809,2.459c-0.068-0.187-0.132-0.371-0.195-0.559
					c2.084-0.533,4.157-1.537,5.76-2.447C40.829,124.171,40.915,124.352,40.998,124.535z"/>
				<path fill="#4A484A" d="M44.449,128.932c-1.538,1.162-3.85,2.697-6.337,3.585c-0.126-0.166-0.243-0.339-0.361-0.507
					c2.398-0.831,4.681-2.319,6.224-3.47C44.129,128.675,44.283,128.807,44.449,128.932z"/>
				<path fill="#4A484A" d="M46.693,130.258c0.179,0.078,0.359,0.153,0.547,0.224c-0.55,1.302-1.955,4.317-3.928,6.363
					c-0.187-0.091-0.372-0.181-0.55-0.279C44.703,134.611,46.142,131.551,46.693,130.258z"/>
				<path fill="#4A484A" d="M54.345,131.556c-0.414,1.983-1.13,4.941-2.104,7.287c-0.202-0.01-0.403-0.025-0.608-0.037
					c0.951-2.249,1.675-5.206,2.104-7.23C53.938,131.576,54.14,131.56,54.345,131.556z"/>
				<path fill="#4A484A" d="M58.453,131.086c0.425,2.149,0.895,5.063,0.88,7.382c-0.191,0.027-0.385,0.055-0.578,0.08
					c0.021-2.248-0.455-5.186-0.886-7.354C58.064,131.161,58.26,131.124,58.453,131.086z"/>
				<path fill="#4A484A" d="M64.366,137.464c-0.189,0.048-0.379,0.097-0.573,0.142c-0.379-2.39-0.923-5.199-1.425-7.56
					c0.189-0.063,0.372-0.132,0.558-0.196C63.294,131.571,63.928,134.671,64.366,137.464z"/>
				<path fill="#4A484A" d="M69.183,135.987c-0.18,0.065-0.366,0.133-0.564,0.2c-0.38-2.496-1.171-5.836-1.698-7.944
					c0.184-0.082,0.365-0.165,0.547-0.247C67.988,130.069,68.787,133.418,69.183,135.987z"/>
			</g>
		</g>
	</g>
	<g>
		<g>
			<path fill="#FDC05D" d="M147.434,120.485c-2.264-0.707-33.26-10.375-41.898-12.499c0,0-28.811,1.764-33.661,4.115
				c0,0-0.005,0.017-0.01,0.031c6.033,1.991,42.473,13.922,53.515,15.403C125.381,127.536,141.459,123.898,147.434,120.485z"/>
			<path fill="#4A484A" d="M71.747,111.837c-0.108,0.052-0.177,0.181-0.169,0.3c0.008,0.119,0.083,0.237,0.196,0.275
				c7.018,2.315,42.575,13.94,53.567,15.416c0.763-0.153,16.293-3.691,22.238-7.087c0.102-0.059,0.158-0.172,0.146-0.287
				c-0.012-0.117-0.091-0.215-0.203-0.25c-1.353-0.422-33.2-10.361-41.915-12.503C104.34,107.765,76.594,109.488,71.747,111.837z
				 M105.556,108.28c8.033,1.989,36.278,10.768,41.109,12.274c-6.278,3.259-21.193,6.661-21.349,6.696
				c-10.522-1.43-44.23-12.392-52.599-15.146C78.972,109.934,105.278,108.297,105.556,108.28z"/>
		</g>
		<g>
			<g>
				<path fill="#F89A5E" d="M125.089,127.492c-11.361-1.638-47.239-13.385-53.223-15.359c-0.406,1.32-18.773,61.1-20.323,76.993
					c0,0,53.112,19.796,74.28,19.796c0,0,0.103-0.025,0.292-0.071C127.749,197.104,125.464,137.019,125.089,127.492z"/>
				<path fill="#4A484A" d="M71.731,111.872c-0.07,0.036-0.122,0.099-0.146,0.174c-0.188,0.609-18.778,61.072-20.337,77.051
					c-0.012,0.132,0.065,0.259,0.191,0.305c0.531,0.197,53.405,19.814,74.383,19.814c0.067-0.009,0.362-0.08,0.362-0.08
					c0.117-0.027,0.205-0.125,0.223-0.244c1.618-11.653-0.567-69.861-1.025-81.41c-0.005-0.143-0.11-0.26-0.252-0.28
					c-11.255-1.623-46.268-13.069-53.172-15.347C71.884,111.829,71.803,111.836,71.731,111.872z M72.059,112.506
					c7.396,2.438,41.344,13.511,52.744,15.235c0.349,8.84,1.606,42.333,1.606,64.01c0,7.62-0.158,13.758-0.563,16.862
					c-0.04,0.01-0.092,0.021-0.092,0.021c-20.132-0.007-70.197-18.339-73.894-19.704C53.495,173.261,70.702,116.932,72.059,112.506z
					"/>
			</g>
			<g>
				<path fill="#FDC05D" d="M125.786,147.096c-0.866,17.141-3.69,35.407-21.719,42.618c-12.322,5.074-24.646,5.232-36.967,4.883
					c17.377,5.86,44.88,14.325,58.723,14.325c0,0,0.103-0.025,0.292-0.071C127.258,200.636,126.483,168.767,125.786,147.096z"/>
				<path fill="#4A484A" d="M125.492,147.081c-0.905,17.888-4.14,35.401-21.534,42.36c-12.384,5.098-24.994,5.197-36.85,4.862
					c-0.145-0.006-0.271,0.098-0.297,0.242c-0.025,0.143,0.057,0.283,0.195,0.329c15.884,5.355,44.646,14.341,58.816,14.341
					c0.067-0.009,0.362-0.08,0.362-0.08c0.117-0.027,0.205-0.125,0.223-0.244c1.112-8.018,0.437-38.035-0.328-61.805
					c-0.006-0.158-0.134-0.283-0.292-0.285C125.631,146.801,125.5,146.923,125.492,147.081z M104.179,189.984
					c15.778-6.311,20.095-21.074,21.496-37.016c0.399,13.284,0.734,27.721,0.734,38.853c0,7.645-0.16,13.712-0.562,16.792
					c-0.04,0.01-0.092,0.021-0.092,0.021c-13.511-0.007-40.617-8.325-56.755-13.713C80.364,195.186,92.351,194.856,104.179,189.984z
					"/>
			</g>
			<g>
				<path fill="#4A484A" d="M126.186,160.662l-1.652-0.527c-0.03,0.195-0.065,0.39-0.098,0.585l1.767,0.565
					C126.198,161.076,126.193,160.868,126.186,160.662z"/>
				<path fill="#4A484A" d="M126.31,165.475l-2.641-0.842c-0.043,0.191-0.094,0.381-0.14,0.572l2.796,0.893
					C126.32,165.889,126.315,165.683,126.31,165.475z"/>
				<path fill="#4A484A" d="M126.469,172.557l-4.697-1.5c-0.068,0.184-0.14,0.367-0.211,0.551l4.922,1.57
					C126.477,172.971,126.474,172.764,126.469,172.557z"/>
				<path fill="#4A484A" d="M126.623,181.642l-8.804-2.811c-0.115,0.171-0.241,0.336-0.36,0.503l9.173,2.928
					C126.628,182.056,126.626,181.849,126.623,181.642z"/>
				<path fill="#4A484A" d="M126.69,189.211l-14.152-4.515c-0.178,0.149-0.363,0.294-0.548,0.441l14.703,4.692
					C126.693,189.625,126.692,189.421,126.69,189.211z"/>
				<path fill="#4A484A" d="M105.401,189.139l21.278,6.791c0.002-0.205,0.004-0.406,0.006-0.615l-20.5-6.543
					C105.927,188.896,105.668,189.02,105.401,189.139z"/>
				<path fill="#4A484A" d="M92.35,193.195l34.163,10.303c0.009-0.196,0.016-0.404,0.021-0.607l-32.986-9.949
					C93.149,193.028,92.75,193.117,92.35,193.195z"/>
				<path fill="#4A484A" d="M80.215,194.575l46.007,13.396c0.02-0.189,0.038-0.395,0.056-0.599l-44.292-12.894
					C81.393,194.514,80.804,194.549,80.215,194.575z"/>
			</g>
			<g>
				<path fill="#F89A5E" d="M147.578,120.53c0,0-0.059-0.018-0.144-0.045c-5.976,3.413-22.054,7.051-22.054,7.051
					c-0.09-0.012-0.197-0.03-0.292-0.044c0.375,9.527,2.66,69.612,1.026,81.358c2.901-0.709,26.758-6.566,32.829-9.142
					C158.944,199.709,154.975,146.351,147.578,120.53z"/>
				<path fill="#4A484A" d="M147.288,120.229c-5.868,3.352-21.812,6.984-21.972,7.021c-0.044-0.027-0.187-0.049-0.187-0.049
					c-0.087-0.014-0.173,0.014-0.238,0.071c-0.065,0.059-0.1,0.143-0.097,0.231c0.455,11.542,2.643,69.703,1.029,81.306
					c-0.013,0.096,0.021,0.193,0.094,0.26c0.073,0.064,0.173,0.089,0.268,0.066c2.721-0.664,26.763-6.564,32.873-9.155
					c0.117-0.049,0.188-0.168,0.179-0.293c-0.039-0.534-4.056-53.683-11.377-79.237c-0.027-0.096-0.102-0.172-0.195-0.201
					l-0.142-0.045C147.444,120.181,147.358,120.19,147.288,120.229z M147.295,120.61c0.012,0.04,0.023,0.082,0.034,0.121
					c-0.044-0.053-0.058-0.14-0.083-0.156C147.266,120.571,147.285,120.576,147.295,120.61z M147.361,120.854
					c7.027,24.761,10.989,74.96,11.273,78.66c-6.114,2.52-28.233,7.983-32.179,8.95c0.389-3.19,0.539-9.243,0.539-16.732
					c0-21.64-1.247-54.945-1.6-63.916C126.452,127.595,141.341,124.179,147.361,120.854z"/>
			</g>
			<g>
				<path fill="#FDC05D" d="M152.964,146.859c-0.127,23.503-7.235,47.675-25.227,61.591c6.205-1.529,25.787-6.441,31.207-8.741
					C158.944,199.709,156.883,172.003,152.964,146.859z"/>
				<path fill="#4A484A" d="M152.941,146.565c-0.152,0.012-0.27,0.138-0.272,0.291c-0.084,15.727-3.458,44.612-25.112,61.362
					c-0.108,0.086-0.145,0.236-0.084,0.36c0.061,0.126,0.2,0.191,0.334,0.158c5.951-1.469,25.792-6.442,31.252-8.757
					c0.117-0.049,0.188-0.168,0.179-0.293c-0.022-0.276-2.107-28.005-5.983-52.875C153.229,146.662,153.095,146.555,152.941,146.565
					z M153.184,150.299c3.404,22.982,5.292,47.142,5.45,49.216c-5.315,2.189-22.788,6.621-29.757,8.351
					C148.377,192.04,152.624,166.356,153.184,150.299z"/>
			</g>
			<g>
				<path fill="#4A484A" d="M154.46,157.196l-2.13,0.94c-0.024,0.225-0.045,0.449-0.069,0.672l2.281-1.006
					C154.514,157.6,154.488,157.399,154.46,157.196z"/>
				<path fill="#4A484A" d="M155.113,162.2l-3.515,1.552c-0.037,0.227-0.062,0.458-0.1,0.686l3.691-1.63
					C155.165,162.605,155.14,162.403,155.113,162.2z"/>
				<path fill="#4A484A" d="M155.774,167.592l-5.382,2.374c-0.056,0.24-0.115,0.479-0.171,0.717l5.626-2.48
					C155.824,167.999,155.799,167.795,155.774,167.592z"/>
				<path fill="#4A484A" d="M156.602,174.853l-8.66,3.821c-0.087,0.254-0.175,0.505-0.264,0.758l8.989-3.967
					C156.646,175.261,156.625,175.058,156.602,174.853z"/>
				<path fill="#4A484A" d="M156.988,178.453l-10.732,4.735c-0.106,0.261-0.211,0.524-0.32,0.784l11.117-4.906
					C157.03,178.863,157.01,178.657,156.988,178.453z"/>
				<path fill="#4A484A" d="M157.49,183.379l-14.244,6.285c-0.153,0.288-0.318,0.567-0.475,0.851l14.778-6.521
					C157.53,183.791,157.511,183.585,157.49,183.379z"/>
				<path fill="#4A484A" d="M158.255,191.474l-23.441,10.344c-0.313,0.35-0.609,0.712-0.933,1.054l24.429-10.779
					C158.291,191.889,158.272,191.684,158.255,191.474z"/>
				<path fill="#4A484A" d="M158.634,195.838l-25.563,11.28c1.08-0.273,2.238-0.568,3.449-0.882l22.165-9.779
					C158.667,196.258,158.651,196.056,158.634,195.838z"/>
			</g>
		</g>
	</g>
	<g>
		<path fill="#D87432" d="M101.567,107.398c0,0-4.557,6.321,4.852,8.084c9.408,1.764,15.581-0.588,14.847-2.939
			C120.53,110.191,101.567,107.398,101.567,107.398z"/>
		<path fill="#4A484A" d="M101.33,107.226c-0.076,0.105-1.832,2.584-0.878,4.972c0.707,1.768,2.696,2.97,5.912,3.573
			c7.478,1.402,13.072,0.245,14.735-1.625c0.473-0.53,0.626-1.115,0.446-1.691c-0.752-2.406-16.738-4.877-19.936-5.348
			C101.503,107.092,101.393,107.137,101.33,107.226z M106.473,115.194c-3.003-0.563-4.845-1.643-5.473-3.21
			c-0.171-0.426-0.239-0.862-0.239-1.285c0-1.416,0.73-2.638,0.951-2.98c7.272,1.081,18.782,3.34,19.272,4.913
			c0.03,0.097,0.045,0.193,0.045,0.291c0,0.278-0.123,0.558-0.368,0.834C119.147,115.459,113.661,116.542,106.473,115.194z"/>
	</g>
	<g>
		<g>
			<path fill="#FDC05D" d="M130.722,73.884c-1.668-0.224-46.005-14.855-53.177-17.519c1.333-0.118,28.364-5.956,36.224-6.294
				c7.585-0.327,40.09,13.304,43.95,14.513C148.082,65.201,132.347,74.102,130.722,73.884z"/>
			<path fill="#4A484A" d="M113.756,49.778c-5.859,0.253-22.146,3.512-30.896,5.263c-2.911,0.583-5.013,1.003-5.34,1.032
				c-0.138,0.012-0.248,0.118-0.267,0.254c-0.018,0.136,0.062,0.267,0.189,0.314c7.369,2.737,51.653,17.322,53.241,17.534l0,0
				c0.601,0.081,2.309-0.667,5.807-2.23c5.934-2.652,14.9-6.662,21.247-7.067c0.139-0.008,0.243-0.115,0.265-0.252
				c0.02-0.137-0.065-0.272-0.195-0.322l-6.555-2.484C140.209,57.522,119.654,49.523,113.756,49.778z M82.974,55.617
				c8.734-1.748,24.993-5.001,30.807-5.252c5.776-0.249,26.255,7.72,37.257,12.002c0,0,3.924,1.486,5.47,2.072
				c-6.34,0.773-14.638,4.456-20.258,6.969c-2.585,1.155-5.026,2.247-5.489,2.185l0,0c-1.519-0.204-42.51-13.702-52.074-17.129
				C79.629,56.285,81.064,55.999,82.974,55.617z"/>
		</g>
		<g>
			<path fill="#FFD490" d="M108.77,59.185c-2.539-3.174-1.307-6.346,1.473-8.78c-10.375,1.307-31.523,5.856-32.698,5.96
				c7.172,2.664,51.509,17.295,53.177,17.519c0.253,0.034,0.847-0.152,1.704-0.494C123.2,69.932,114.226,67.369,108.77,59.185z"/>
			<path fill="#4A484A" d="M110.206,50.114c-7.357,0.928-19.871,3.432-27.35,4.927c-2.909,0.582-5.01,1.003-5.337,1.032
				c-0.138,0.012-0.248,0.118-0.267,0.254c-0.018,0.136,0.062,0.267,0.189,0.314c7.369,2.737,51.653,17.322,53.241,17.534
				c0.299,0.04,0.835-0.108,1.852-0.511c0.112-0.046,0.188-0.155,0.186-0.277c-0.003-0.122-0.079-0.229-0.192-0.271l-2.873-1.06
				c-8.129-2.973-15.807-5.782-20.642-13.034c-0.004-0.007-0.009-0.014-0.015-0.021c-2.913-3.641-0.35-6.81,1.437-8.375
				c0.097-0.085,0.128-0.224,0.075-0.342C110.457,50.167,110.335,50.098,110.206,50.114z M82.972,55.618
				c6.732-1.346,19.01-3.798,26.458-4.801c-1.515,1.537-2.328,3.171-2.328,4.796c0,1.28,0.477,2.55,1.438,3.751
				c4.94,7.399,12.7,10.239,20.915,13.244c0,0,1.291,0.476,2.11,0.778c-0.469,0.157-0.735,0.216-0.804,0.207
				c-1.519-0.204-42.51-13.702-52.074-17.129C79.629,56.286,81.063,56,82.972,55.618z M108.541,59.369
				c-0.001-0.001-0.012-0.015-0.016-0.021C108.53,59.355,108.536,59.362,108.541,59.369z"/>
		</g>
		<g>
			<path fill="#4A484A" d="M85.717,54.769c-0.347,0.07-0.684,0.137-1.018,0.204c10.165,4.361,30.237,12.93,42.533,17.887
				c1.97,0.615,3.234,0.99,3.489,1.024c0.104,0.014,0.275-0.017,0.487-0.072C119.998,69.415,97.283,59.73,85.717,54.769z"/>
			<path fill="#4A484A" d="M112.616,63.616c-8.045-3.375-16.444-6.953-22.773-9.661c-0.345,0.067-0.686,0.134-1.024,0.201
				c6.861,2.937,16.423,7.012,25.334,10.741C113.626,64.491,113.114,64.065,112.616,63.616z"/>
			<path fill="#4A484A" d="M108.77,59.185c-0.117-0.147-0.219-0.294-0.32-0.441c-4.761-2.01-9.445-4.003-13.564-5.762
				c-0.347,0.066-0.691,0.131-1.036,0.197c4.562,1.948,9.885,4.214,15.268,6.484C109.003,59.502,108.882,59.351,108.77,59.185z"/>
			<path fill="#4A484A" d="M107.414,55.129c-2.522-1.069-4.984-2.116-7.314-3.109c-0.35,0.064-0.702,0.127-1.055,0.19
				c2.633,1.122,5.454,2.322,8.35,3.549C107.389,55.548,107.393,55.338,107.414,55.129z"/>
			<path fill="#4A484A" d="M108.119,52.96c-1.323-0.561-2.623-1.114-3.892-1.654c-0.355,0.06-0.715,0.119-1.076,0.181
				c1.523,0.648,3.099,1.318,4.707,2C107.935,53.31,108.022,53.135,108.119,52.96z"/>
		</g>
		<g>
			<g>
				<path fill="#F89A5E" d="M157.376,64.477c0.209,0.065,0.343,0.107,0.343,0.107s-1.821,46.351-1.714,48.302
					c0.104,1.95-23.841,3.31-24.928,3.356c-0.025,0.001-0.095-0.013-0.158-0.024c-0.091-6.882-0.197-42.333-0.197-42.333
					C132.347,74.102,147.739,65.093,157.376,64.477z"/>
				<path fill="#4A484A" d="M157.358,64.183c-6.468,0.414-15.354,4.505-21.234,7.213c-2.523,1.161-4.904,2.258-5.363,2.196
					c-0.084-0.012-0.168,0.014-0.232,0.07c-0.064,0.056-0.101,0.136-0.101,0.222l0.196,42.336c0.001,0.148,0.128,0.274,0.275,0.291
					l0.19,0.023c0.23-0.01,23.215-1.221,25.034-3.224l0.174-0.442c-0.105-1.915,1.697-47.811,1.715-48.275
					c0.005-0.133-0.079-0.252-0.205-0.291l-0.344-0.108C157.43,64.185,157.393,64.181,157.358,64.183z M130.683,74.175
					c0.012,0.001,0.025,0.001,0.04,0.003C130.709,74.179,130.695,74.178,130.683,74.175z M136.369,71.931
					c5.827-2.683,14.625-6.731,20.979-7.155c0.021,0.007,0.036,0.012,0.068,0.021c-0.125,3.172-1.711,43.646-1.711,47.824
					c0,0.13,0.002,0.224,0.004,0.281c-0.539,1.379-18.787,2.786-24.499,3.04c-0.002-0.536-0.191-41.318-0.194-41.808
					C131.791,74.016,133.396,73.3,136.369,71.931z"/>
			</g>
			<g>
				<g>
					<path fill="#FDC05D" d="M157.571,64.538c-5.487,17.489-9.251,43.051-25.591,51.654c4.555-0.263,24.117-1.543,24.024-3.306
						c-0.107-1.951,1.714-48.302,1.714-48.302S157.658,64.565,157.571,64.538z"/>
					<path fill="#4A484A" d="M157.432,64.276c-0.069,0.038-0.118,0.098-0.141,0.174l-2.975,10.432
						c-4.352,15.987-9.282,34.105-22.474,41.051c-0.123,0.064-0.184,0.206-0.146,0.339c0.038,0.134,0.161,0.223,0.301,0.215
						c11.138-0.643,24.396-1.793,24.3-3.616c-0.105-1.915,1.697-47.811,1.715-48.275c0.005-0.133-0.076-0.252-0.204-0.291
						l-0.15-0.046C157.583,64.233,157.502,64.238,157.432,64.276z M154.885,75.036c0,0,1.78-6.246,2.47-8.665
						c-0.32,8.232-1.648,42.428-1.648,46.25c0,0.13,0.002,0.224,0.004,0.281c-0.363,0.927-9.784,2.143-22.542,2.92
						C145.781,108.368,150.621,90.701,154.885,75.036z"/>
				</g>
			</g>
			<g>
				<path fill="#4A484A" d="M156.096,69.535c-0.064,0.226-0.128,0.455-0.192,0.683l1.617-0.537c0.008-0.215,0.017-0.424,0.023-0.628
					L156.096,69.535z"/>
				<path fill="#4A484A" d="M154.482,75.393l2.855-0.948c0.008-0.213,0.016-0.42,0.024-0.628l-2.693,0.894
					C154.607,74.938,154.545,75.165,154.482,75.393z"/>
				<path fill="#4A484A" d="M152.885,81.167l4.248-1.41c0.009-0.21,0.017-0.42,0.024-0.627l-4.077,1.353
					C153.016,80.711,152.95,80.939,152.885,81.167z"/>
				<path fill="#4A484A" d="M151.527,85.785l5.445-1.809c0.008-0.21,0.017-0.419,0.024-0.628l-5.26,1.747
					C151.668,85.325,151.599,85.555,151.527,85.785z"/>
				<path fill="#4A484A" d="M150.053,90.345l6.766-2.247c0.007-0.21,0.016-0.419,0.023-0.628l-6.552,2.176
					C150.211,89.879,150.133,90.112,150.053,90.345z"/>
				<path fill="#4A484A" d="M147.477,97.08l9.121-3.029c0.006-0.209,0.015-0.417,0.022-0.628l-8.843,2.937
					C147.679,96.599,147.58,96.842,147.477,97.08z"/>
				<path fill="#4A484A" d="M143.233,105.25l13.119-4.356c0.007-0.206,0.015-0.416,0.022-0.627l-12.661,4.205
					C143.555,104.732,143.396,104.994,143.233,105.25z"/>
				<path fill="#4A484A" d="M138.197,111.581l17.993-5.976c0.008-0.206,0.014-0.415,0.021-0.627l-17.121,5.686
					C138.798,110.978,138.5,111.282,138.197,111.581z"/>
				<path fill="#4A484A" d="M136.955,115.866l19.113-6.348c0.006-0.201,0.012-0.41,0.019-0.626l-21.493,7.137
					C135.308,115.982,136.101,115.928,136.955,115.866z"/>
			</g>
			<g>
				<path fill="#FAAE5E" d="M77.483,56.371c0,0,0.041-0.003,0.062-0.006c7.172,2.664,51.509,17.295,53.177,17.519
					c0,0,0.107,35.452,0.197,42.333c-2.872-0.516-53.464-12.952-53.872-13.89C76.631,101.367,77.483,56.371,77.483,56.371z"/>
				<path fill="#4A484A" d="M77.349,56.126c-0.079,0.053-0.157,0.144-0.16,0.24c-0.142,7.525-0.832,45.109-0.411,46.079
					c0.57,1.312,53.567,13.97,54.089,14.063c0.087,0.015,0.174-0.009,0.241-0.065c0.066-0.057,0.105-0.141,0.105-0.229
					l-0.196-42.331c-0.001-0.146-0.108-0.271-0.255-0.29c-1.576-0.212-45.755-14.77-53.114-17.503
					C77.557,56.057,77.427,56.072,77.349,56.126z M77.261,102.131c-0.047-0.202-0.066-1.463-0.066-3.464
					c0-8.756,0.383-31.649,0.576-41.908c7.939,2.908,49.469,16.588,52.658,17.351c0.002,0.441,0.191,41.026,0.194,41.745
					C125.758,114.855,78.65,103.183,77.261,102.131z"/>
			</g>
		</g>
	</g>
	<g>
		<g>
			<ellipse fill="#FFFFFF" cx="88.78" cy="83.439" rx="7.644" ry="8.281"/>
			<path fill="#4A484A" d="M80.842,83.439c0,4.729,3.562,8.575,7.939,8.575c2.124,0,4.12-0.895,5.62-2.52
				c1.495-1.619,2.317-3.769,2.317-6.055c0-2.286-0.822-4.437-2.317-6.055c-1.5-1.625-3.496-2.52-5.62-2.52
				C84.403,74.864,80.842,78.711,80.842,83.439z M81.43,83.439c0-4.404,3.298-7.986,7.351-7.986c1.958,0,3.801,0.828,5.187,2.331
				c1.395,1.51,2.161,3.518,2.161,5.656c0,2.137-0.767,4.147-2.161,5.656c-1.387,1.502-3.229,2.331-5.187,2.331
				C84.727,91.426,81.43,87.843,81.43,83.439z"/>
		</g>
		<ellipse fill="#4A484A" cx="86.145" cy="85.405" rx="3.087" ry="3.345"/>
	</g>
	<g>
		<g>
			<ellipse fill="#FFFFFF" cx="116.12" cy="90.494" rx="7.644" ry="8.282"/>
			<path fill="#4A484A" d="M108.182,90.494c0,4.729,3.562,8.575,7.938,8.575c2.125,0,4.12-0.895,5.621-2.52
				c1.495-1.619,2.316-3.769,2.316-6.055c0-2.285-0.821-4.436-2.316-6.054c-1.501-1.626-3.496-2.521-5.621-2.521
				C111.744,81.92,108.182,85.766,108.182,90.494z M108.77,90.494c0-4.403,3.297-7.986,7.35-7.986c1.959,0,3.801,0.828,5.188,2.331
				c1.394,1.509,2.161,3.518,2.161,5.655c0,2.138-0.768,4.147-2.161,5.657c-1.388,1.502-3.229,2.331-5.188,2.331
				C112.067,98.481,108.77,94.899,108.77,90.494z"/>
		</g>
		<ellipse fill="#4A484A" cx="113.487" cy="92.46" rx="3.087" ry="3.344"/>
	</g>
	<g>
		<path fill="#D87432" d="M110.044,101.519c-0.49-1.18-17.051-6.762-17.736-5.586c-0.687,1.176-0.098,5.291,0.196,5.88
			c0.294,0.588,16.364,5.488,17.149,5.194C110.436,106.713,110.533,102.695,110.044,101.519z"/>
		<path fill="#4A484A" d="M92.054,95.785c-0.76,1.302-0.108,5.569,0.188,6.16c0.374,0.749,16.58,5.688,17.515,5.337l0.488-0.553
			c0.259-0.6,0.395-1.746,0.395-2.856c0-0.987-0.106-1.946-0.323-2.466c-0.546-1.313-13.856-5.699-17.13-5.919
			C92.538,95.444,92.201,95.533,92.054,95.785z M95.268,96.438c5.284,1.206,14.026,4.44,14.506,5.2
			c0.191,0.466,0.273,1.291,0.273,2.146c0,1.376-0.209,2.822-0.498,2.948c-1.024,0.14-15.981-4.386-16.822-5.105
			c-0.237-0.5-0.776-4.5-0.166-5.546C92.57,96.09,92.946,95.908,95.268,96.438z M110.315,101.406L110.315,101.406L110.315,101.406z"
			/>
	</g>
	<g>
		<g>
			<path fill="#D87432" d="M156.057,87.516c-1.305-0.098-6.007-1.036-7.588-1.155c-3.427-0.256-6.46,2.947-6.776,7.157
				c-0.315,4.209,2.206,7.83,5.633,8.087c1.307,0.098,6.009,1.037,7.589,1.155c3.427,0.257,6.462-2.947,6.776-7.156
				C162.007,91.395,159.485,87.774,156.057,87.516z"/>
			<path fill="#4A484A" d="M141.399,93.496c-0.327,4.365,2.321,8.134,5.904,8.403l3.442,0.528l4.146,0.627
				c1.503,0.113,3.014-0.415,4.257-1.485c1.624-1.397,2.658-3.563,2.836-5.943c0.327-4.365-2.321-8.134-5.905-8.403
				c0.009,0.001-0.007-0.001,0,0l-3.442-0.529l-4.146-0.626C144.907,85.8,141.726,89.132,141.399,93.496z M154.935,102.468
				l-4.091-0.62l-3.497-0.536c-3.26-0.244-5.666-3.73-5.362-7.773c0.304-4.04,3.201-7.129,6.462-6.885l4.091,0.62l3.497,0.536h0.001
				c3.074,0.231,5.388,3.344,5.388,7.086c0,0.227-0.008,0.455-0.025,0.687c-0.168,2.226-1.126,4.245-2.633,5.541
				C157.625,102.105,156.301,102.57,154.935,102.468z M156.033,87.809l0.003,0.001h-0.001L156.033,87.809z"/>
		</g>
		<g>
			
				<ellipse transform="matrix(0.9972 0.0748 -0.0748 0.9972 7.5553 -11.3684)" fill="#FAAE5E" cx="155.486" cy="95.139" rx="6.222" ry="7.643"/>
			<path fill="#4A484A" d="M151.823,88.708c-1.623,1.397-2.657,3.563-2.836,5.943c-0.179,2.38,0.52,4.676,1.917,6.3
				c1.07,1.243,2.487,1.99,3.987,2.103c1.503,0.113,3.014-0.415,4.257-1.485c1.624-1.397,2.658-3.563,2.836-5.943
				c0.327-4.365-2.321-8.134-5.905-8.403C154.578,87.11,153.067,87.638,151.823,88.708z M154.935,102.468
				c-1.344-0.101-2.618-0.775-3.585-1.9c-1.296-1.506-1.943-3.646-1.777-5.873c0.168-2.226,1.127-4.246,2.633-5.541
				c1.125-0.967,2.485-1.445,3.829-1.344c3.261,0.245,5.667,3.731,5.363,7.773c-0.168,2.226-1.126,4.245-2.633,5.541
				C157.625,102.105,156.301,102.57,154.935,102.468z"/>
		</g>
	</g>
	<g>
		<g>
			<path fill="#F0A3A4" d="M80.604,133.669c-2.403-0.543-4.03-0.869-4.319-0.841c-1.47,0.147-7.938,14.552-7.203,29.398
				c0,0,27.929,10.73,37.777,10.73c0,0,0.804-1.479,1.841-4.276c-12.065-2.256-32.562-10.129-32.562-10.129
				C75.652,148.729,78.318,139.103,80.604,133.669z"/>
			<path fill="#4A484A" d="M76.257,132.536c-1.935,0.192-8.186,15.189-7.468,29.704c0.005,0.117,0.08,0.219,0.188,0.261
				c1.142,0.439,28.092,10.75,37.882,10.75c0.108,0,0.208-0.06,0.259-0.154c0.033-0.06,0.825-1.528,1.858-4.316
				c0.012-0.032,0.018-0.066,0.018-0.1c0-0.051-0.013-0.102-0.038-0.146c-0.043-0.075-0.118-0.128-0.202-0.144
				c-11.393-2.13-30.526-9.359-32.327-10.044c-0.032-0.712-0.053-1.426-0.053-2.138c0-8.594,2.252-17.081,4.501-22.426
				c0.014-0.037,0.022-0.076,0.022-0.115c0-0.046-0.011-0.092-0.032-0.134c-0.041-0.077-0.112-0.134-0.198-0.152
				C76.722,132.489,76.384,132.523,76.257,132.536z M69.318,159.81c0-13.966,5.821-26.424,7.001-26.69
				c0.083-0.007,0.679,0.043,3.887,0.763c-2.229,5.414-4.42,13.812-4.42,22.331c0,0.784,0.021,1.568,0.059,2.352
				c0.005,0.117,0.08,0.219,0.188,0.261c0.203,0.078,20.27,7.755,32.267,10.071c-0.809,2.133-1.433,3.401-1.614,3.755
				c-9.509-0.108-35.419-9.908-37.313-10.63C69.338,161.282,69.318,160.543,69.318,159.81z"/>
		</g>
		<g>
			<path fill="#4A484A" d="M76.138,158.552c-0.006-0.139-0.006-0.276-0.012-0.416l-7.062,3.567c0.008,0.174,0.01,0.349,0.019,0.523
				c0,0,0.06,0.022,0.144,0.056l7.18-3.629C76.233,158.589,76.138,158.552,76.138,158.552z"/>
			<path fill="#4A484A" d="M80.563,133.772l-7,3.535c-0.112,0.269-0.226,0.544-0.34,0.831l7.004-3.538
				C80.339,134.315,80.451,134.038,80.563,133.772z"/>
			<path fill="#4A484A" d="M78.747,138.896l-7.019,3.546c-0.077,0.256-0.156,0.512-0.231,0.775l7.02-3.547
				C78.593,139.407,78.669,139.152,78.747,138.896z"/>
			<path fill="#4A484A" d="M77.407,144.122l-7.034,3.554c-0.051,0.242-0.1,0.488-0.15,0.733l7.032-3.553
				C77.306,144.61,77.355,144.365,77.407,144.122z"/>
			<path fill="#4A484A" d="M76.665,148.313l-7.041,3.557c-0.035,0.236-0.069,0.472-0.102,0.71l7.045-3.56
				C76.599,148.783,76.631,148.548,76.665,148.313z"/>
			<path fill="#4A484A" d="M76.194,152.81l-7.05,3.562c-0.015,0.226-0.027,0.453-0.04,0.679l7.052-3.563
				C76.168,153.262,76.18,153.036,76.194,152.81z"/>
			<path fill="#4A484A" d="M79.759,159.9l-7.184,3.629c0.24,0.089,0.496,0.181,0.756,0.275l7.184-3.63
				C80.252,160.081,80.001,159.989,79.759,159.9z"/>
			<path fill="#4A484A" d="M84.552,161.616l-7.186,3.631c0.252,0.089,0.51,0.179,0.771,0.268l7.186-3.63
				C85.061,161.794,84.805,161.705,84.552,161.616z"/>
			<path fill="#4A484A" d="M89.03,163.151l-7.188,3.632c0.261,0.087,0.519,0.175,0.783,0.263l7.189-3.632
				C89.553,163.326,89.29,163.239,89.03,163.151z"/>
			<path fill="#4A484A" d="M94.436,164.908l-7.192,3.633c0.267,0.084,0.536,0.168,0.805,0.252l7.194-3.635
				C94.974,165.074,94.704,164.991,94.436,164.908z"/>
			<path fill="#4A484A" d="M99.02,166.29l-7.196,3.636c0.277,0.08,0.555,0.159,0.832,0.239l7.196-3.636
				C99.576,166.45,99.299,166.37,99.02,166.29z"/>
			<path fill="#4A484A" d="M103.462,167.5l-7.204,3.641c0.291,0.073,0.582,0.149,0.868,0.219l7.206-3.641
				C104.044,167.647,103.754,167.575,103.462,167.5z"/>
			<path fill="#4A484A" d="M108.242,168.59l-7.222,3.648c0.325,0.064,0.64,0.121,0.952,0.177l6.568-3.318
				c0.054-0.141,0.104-0.27,0.159-0.416C108.551,168.651,108.393,168.618,108.242,168.59z"/>
		</g>
		<g>
			<path fill="#E7595C" d="M80.604,133.669c-2.286,5.435-4.952,15.061-4.467,24.883c0,0,20.497,7.873,32.562,10.129
				c1.812-4.883,4.348-13.816,4.627-26.15C113.344,141.783,90.406,135.889,80.604,133.669z"/>
			<path fill="#4A484A" d="M80.333,133.555c-2.477,5.889-4.956,15.55-4.488,25.011c0.005,0.117,0.08,0.219,0.188,0.261
				c0.205,0.08,20.659,7.909,32.613,10.143c0.141,0.026,0.28-0.052,0.33-0.188c1.968-5.301,4.37-14.157,4.645-26.245
				c0.03-1.428-32.623-9.078-32.952-9.153C80.529,133.351,80.388,133.424,80.333,133.555z M76.375,156.21
				c0-8.48,2.191-16.841,4.411-22.197c10.591,2.407,30.945,7.715,32.242,8.637c-0.283,11.773-2.592,20.427-4.521,25.69
				c-11.418-2.183-30.292-9.312-32.08-9.992C76.395,157.636,76.375,156.922,76.375,156.21z"/>
		</g>
	</g>
	<g>
		<ellipse fill="#FDC05D" cx="84.763" cy="149.144" rx="3.234" ry="3.724"/>
		<path fill="#4A484A" d="M81.234,149.144c0,2.216,1.583,4.018,3.528,4.018c0.95,0,1.841-0.423,2.509-1.191
			c0.657-0.758,1.019-1.76,1.019-2.826c0-1.065-0.361-2.069-1.019-2.825c-0.668-0.77-1.559-1.193-2.509-1.193
			C82.817,145.126,81.234,146.93,81.234,149.144z M81.823,149.144c0-1.891,1.317-3.43,2.939-3.43c0.777,0,1.51,0.351,2.064,0.988
			c0.564,0.65,0.875,1.519,0.875,2.441c0,0.924-0.311,1.791-0.875,2.441c-0.555,0.638-1.287,0.989-2.064,0.989
			C83.141,152.574,81.823,151.036,81.823,149.144z"/>
	</g>
	<g>
		<ellipse fill="#FDC05D" cx="102.207" cy="153.457" rx="3.234" ry="3.724"/>
		<path fill="#4A484A" d="M98.679,153.457c0,2.215,1.583,4.018,3.528,4.018c0.949,0,1.841-0.423,2.508-1.191
			c0.657-0.758,1.02-1.762,1.02-2.826c0-1.065-0.362-2.069-1.02-2.826c-0.667-0.769-1.559-1.192-2.508-1.192
			C100.262,149.438,98.679,151.241,98.679,153.457z M99.266,153.457c0-1.892,1.318-3.431,2.941-3.431
			c0.776,0,1.51,0.352,2.064,0.989c0.564,0.65,0.875,1.518,0.875,2.441c0,0.924-0.311,1.789-0.875,2.439
			c-0.555,0.639-1.288,0.99-2.064,0.99C100.585,156.887,99.266,155.348,99.266,153.457z"/>
	</g>
	<g>
		<ellipse fill="#D87432" cx="143.607" cy="145.763" rx="7.35" ry="8.82"/>
		<path fill="#4A484A" d="M135.964,145.763c0,5.026,3.429,9.114,7.645,9.114c4.214,0,7.644-4.088,7.644-9.114
			c0-5.024-3.43-9.113-7.644-9.113C139.392,136.649,135.964,140.738,135.964,145.763z M136.553,145.763
			c0-4.7,3.164-8.525,7.056-8.525c3.89,0,7.055,3.825,7.055,8.525c0,4.701-3.165,8.526-7.055,8.526
			C139.717,154.289,136.553,150.464,136.553,145.763z"/>
	</g>
	<g>
		<g>
			<g>
				<path fill="#FAAE5E" d="M152.49,188.435c-0.713-0.996-1.582-1.368-5.091,1.686c-2.862,2.491-5.244,6.745-6.022,8.227
					c0.007,0.004,0.017,0.012,0.023,0.016c1.025,0.593,3.566,0.942,3.566,0.942s5.346-8.727,7.684-8.415
					C152.891,189.897,152.9,189.007,152.49,188.435z"/>
				<path fill="#4A484A" d="M147.207,189.9c-2.855,2.484-5.211,6.64-6.091,8.31c-0.073,0.14,0.001,0.329,0.137,0.409
					c1.064,0.613,3.567,0.962,3.673,0.977c0.116,0.017,0.23-0.038,0.291-0.138c2.029-3.311,5.831-8.484,7.395-8.276
					c0.149,0.021,0.289-0.075,0.325-0.223c0.288-1.194,0.219-2.102-0.207-2.696l0,0c-0.267-0.372-0.618-0.761-1.201-0.829
					C150.608,187.325,149.314,188.064,147.207,189.9z M147.593,190.344c1.893-1.647,3.158-2.409,3.868-2.325
					c0.29,0.032,0.512,0.198,0.79,0.586c0.182,0.253,0.271,0.608,0.271,1.052c0,0.287-0.059,0.627-0.133,0.981
					c-2.451,0.257-6.79,7.088-7.57,8.346c-0.43-0.064-2.088-0.342-3.028-0.776C142.736,196.442,144.931,192.659,147.593,190.344z
					 M152.688,190.598c-0.012-0.001-0.026-0.001-0.038-0.003C152.662,190.596,152.676,190.597,152.688,190.598z"/>
			</g>
			<g>
				<path fill="#FAAE5E" d="M160.684,188.771c-0.963,8.208-6.055,15.86-8.056,18.603c1.971,0.653,5.498,0.105,5.768-0.088
					c0.317-0.228,13.513-14.62,3.546-24.839c-1.764-1.809-3.615-2.722-5.474-2.998C159.227,180.853,161.264,183.855,160.684,188.771
					z"/>
				<path fill="#4A484A" d="M156.188,179.36c-0.044,0.137,0.02,0.284,0.146,0.351c1.804,0.919,4.73,3.313,4.059,9.025l0,0
					c-0.947,8.069-5.912,15.602-8.003,18.464c-0.056,0.076-0.07,0.174-0.042,0.263c0.028,0.091,0.098,0.161,0.187,0.19
					c2.055,0.681,5.668,0.132,6.032-0.128c0.064-0.046,6.636-6.98,7.328-14.831c0.039-0.443,0.059-0.881,0.059-1.312
					c0-3.481-1.274-6.552-3.801-9.141c-1.672-1.715-3.54-2.73-5.547-3.052l-0.005-0.002l0.001,0.002
					c-0.03-0.006-0.06-0.028-0.091-0.032C156.369,179.138,156.231,179.223,156.188,179.36z M161.074,187.192
					c0-2.864-0.994-5.216-2.796-6.818c1.213,0.495,2.385,1.183,3.454,2.279c2.412,2.474,3.634,5.41,3.634,8.734
					c0,0.193-0.005,0.389-0.013,0.586c-0.331,7.826-7.071,15.023-7.14,15.082c-0.304,0.147-3.219,0.557-5.089,0.123
					c2.233-3.117,6.923-10.457,7.853-18.372l0,0C161.043,188.253,161.074,187.714,161.074,187.192z"/>
			</g>
			<g>
				<path fill="#D87432" d="M137.739,194.599c0,0,2.597,3.126,3.638,3.748c0.778-1.482,3.16-5.735,6.022-8.227
					c3.509-3.054,4.378-2.682,5.091-1.686c0.41,0.571,0.4,1.462,0.16,2.455c0.009,0.002,0.021-0.003,0.021-0.003
					s-0.942,4.901-4.854,11.56c0,0,2.443,3.072,3.901,4.438c0.229,0.213,0.546,0.367,0.909,0.489
					c2.001-2.742,7.093-10.395,8.056-18.603c0.579-4.916-1.457-7.918-4.216-9.322C147.821,178.162,138.982,190.931,137.739,194.599z
					"/>
				<path fill="#4A484A" d="M137.462,194.505c-0.033,0.097-0.013,0.204,0.052,0.283c0.108,0.129,2.641,3.17,3.711,3.812
					c0.07,0.041,0.153,0.053,0.232,0.029c0.078-0.02,0.143-0.073,0.182-0.144c0.863-1.643,3.175-5.725,5.955-8.143
					c1.893-1.647,3.158-2.409,3.868-2.325c0.29,0.032,0.512,0.198,0.79,0.586c0.317,0.444,0.357,1.211,0.113,2.217
					c0.017,0.06-0.963,4.945-4.799,11.477c-0.061,0.104-0.052,0.235,0.024,0.331c0.1,0.125,2.472,3.104,3.929,4.469l1.017,0.555
					c0.13,0.069,0.243,0.014,0.331-0.106c2.117-2.901,7.148-10.534,8.111-18.74c0.522-4.433-1.073-7.938-4.376-9.618
					C147.565,177.826,138.621,191.079,137.462,194.505z M156.425,179.739c1.543,0.802,4.068,2.82,4.068,7.38
					c0,0.508-0.033,1.046-0.1,1.617c-0.929,7.91-5.7,15.273-7.858,18.26c-0.22-0.116-0.614-0.327-0.614-0.327
					c-1.243-1.162-3.241-3.62-3.75-4.253c3.802-6.531,4.788-11.423,4.797-11.473c0.101-0.456,0.149-0.87,0.149-1.241
					c0-0.593-0.126-1.075-0.388-1.439c-0.267-0.372-0.618-0.761-1.201-0.829c-0.92-0.108-2.214,0.631-4.321,2.467
					c-2.727,2.372-4.959,6.21-5.925,8.011c-0.956-0.734-2.73-2.804-3.199-3.36C139.361,191.051,147.902,178.472,156.425,179.739z"/>
			</g>
		</g>
		<g>
			<g>
				<path fill="#FEE69E" d="M158.384,179.64c0,0,9.841-7.892,5.039-17.067c-4.803-9.177-15.564-11.854-19.837-13.841
					c0,0-3.482-2.353-0.864-5.529c2.646-3.209,7.686-0.464,7.686-0.464s14.615,5.867,20.104,17.506
					c5.492,11.636-7.606,23.451-7.606,23.451L158.384,179.64z"/>
				<path fill="#4A484A" d="M142.495,143.015c-0.817,0.991-1.158,2.016-1.01,3.041c0.257,1.767,1.867,2.873,1.936,2.919
					c0.04,0.022,2.792,1.153,2.792,1.153c5.188,2.026,13.028,5.088,16.949,12.58c4.632,8.853-4.867,16.626-4.963,16.703
					c-0.067,0.054-0.108,0.135-0.11,0.222c-0.002,0.085,0.034,0.169,0.099,0.226l4.521,4.057c0.112,0.1,0.281,0.1,0.393-0.001
					c0.133-0.119,13.197-12.098,7.677-23.797c-5.477-11.607-20.114-17.592-20.262-17.651
					C150.495,142.453,145.264,139.659,142.495,143.015z M142.067,145.968c-0.122-0.853,0.176-1.721,0.882-2.578
					c2.459-2.982,7.27-0.418,7.318-0.392c0.176,0.073,14.603,5.976,19.978,17.37c0.924,1.956,1.306,3.922,1.306,5.838
					c0,8.632-7.664,16.156-8.653,17.091c-0.348-0.314-3.645-3.271-4.067-3.652c1.157-1.017,6.196-5.796,6.196-11.907
					c0-1.686-0.385-3.469-1.343-5.299c-4.022-7.688-12.308-10.924-17.256-12.857l-2.718-1.115
					C143.736,148.478,142.282,147.475,142.067,145.968z"/>
			</g>
			<g>
				<path fill="#4A484A" d="M161.438,176.404c0.12-0.156,0.238-0.315,0.358-0.482c1.44,0.732,3.487,1.855,5.189,3.116
					c-0.117,0.159-0.234,0.317-0.352,0.472C164.941,178.26,162.866,177.126,161.438,176.404z"/>
				<path fill="#4A484A" d="M163.859,172.204c1.771,0.539,3.926,1.364,5.777,2.53c-0.088,0.177-0.179,0.352-0.271,0.526
					c-1.819-1.148-3.975-1.966-5.735-2.502C163.711,172.577,163.784,172.389,163.859,172.204z"/>
				<path fill="#4A484A" d="M164.682,166.675c1.902,0.32,4.604,0.943,6.96,2.142c-0.035,0.205-0.08,0.409-0.121,0.61
					c-2.253-1.172-4.901-1.808-6.797-2.139C164.716,167.085,164.706,166.882,164.682,166.675z"/>
				<path fill="#4A484A" d="M164.102,164.134c-0.064-0.183-0.136-0.365-0.213-0.551c1.323-0.495,4.48-1.545,7.322-1.52
					c0.062,0.199,0.125,0.396,0.175,0.593C168.633,162.588,165.422,163.646,164.102,164.134z"/>
				<path fill="#4A484A" d="M159.789,157.683c1.725-1.062,4.367-2.575,6.739-3.478c0.132,0.153,0.26,0.311,0.392,0.467
					c-2.287,0.854-4.934,2.361-6.699,3.441C160.082,157.966,159.932,157.828,159.789,157.683z"/>
				<path fill="#4A484A" d="M156.625,155.02c1.269-1.784,3.063-4.128,4.757-5.711c0.151,0.121,0.305,0.242,0.456,0.365
					c-1.646,1.53-3.454,3.894-4.734,5.696C156.945,155.252,156.784,155.134,156.625,155.02z"/>
				<path fill="#4A484A" d="M157.194,146.343c0.166,0.104,0.33,0.21,0.497,0.317c-1.474,1.92-3.143,4.245-4.513,6.231
					c-0.177-0.094-0.352-0.18-0.526-0.27C153.65,151.171,155.467,148.58,157.194,146.343z"/>
				<path fill="#4A484A" d="M152.812,143.856c0.171,0.087,0.348,0.176,0.532,0.273c-1.553,1.99-3.436,4.861-4.604,6.692
					c-0.186-0.077-0.371-0.153-0.555-0.228C149.333,148.793,151.218,145.911,152.812,143.856z"/>
			</g>
		</g>
	</g>
</g>
</svg>
